<svg xmlns:rdf="http://www.w3.org/1999/02/22-rdf-syntax-ns#" xmlns="http://www.w3.org/2000/svg" height="32" width="53" version="1.1" xmlns:cc="http://creativecommons.org/ns#" xmlns:xlink="http://www.w3.org/1999/xlink" xmlns:dc="http://purl.org/dc/elements/1.1/">
<defs>
<linearGradient id="linearGradient2888">
<stop stop-color="#0873b9" offset="0"/>
<stop stop-color="#0a73b7" offset="0.103"/>
<stop stop-color="#0a73b7" offset="0.2"/>
<stop stop-color="#117abb" offset="0.3"/>
<stop stop-color="#1885be" offset="0.4"/>
<stop stop-color="#2090c2" offset="0.5"/>
<stop stop-color="#2899c5" offset="0.6"/>
<stop stop-color="#30a4c9" offset="0.7"/>
<stop stop-color="#49c4d6" offset="0.8"/>
<stop stop-color="#48c1d6" offset="0.9"/>
<stop stop-color="#46c7cd" offset="1"/>
</linearGradient>
<linearGradient id="linearGradient2993" x1="91" xlink:href="#linearGradient2888" gradientUnits="userSpaceOnUse" x2="678" y1="638" y2="638"/>
</defs>
<metadata>
<rdf:RDF>
<cc:Work rdf:about="">
<dc:format>image/svg+xml</dc:format>
<dc:type rdf:resource="http://purl.org/dc/dcmitype/StillImage"/>
<dc:title/>
</cc:Work>
</rdf:RDF>
</metadata>
<g transform="matrix(0.26771812,0,0,0.26771812,-24.640412,-231.28436)">
<path fill="#FFF" d="m286,977-4.95,6.27-46.2,0-14.5-12.5-23.6-68.1,50.6-33.7,12.5-5.06,21.3,0,6.07,10.1-1.13,103z"/>
<g fill="url(#linearGradient2993)" transform="matrix(0.33730835,0,0,0.33730835,61.343587,651.52729)">
<path d="m91,984,0-354,496,0-143,115,0,33,69,0,0,206-422,0z"/>
<path d="m650,984,0-354,28,0,0,354-28,0z"/>
</g>
<path fill="#FFF" d="m118,876-11.8,27.7,6.41,0,2.36-6.07,11.7,0,2.36,6.07,6.52,0-11.8-27.7-5.73,0zm2.84,7.33,3.57,8.86-7.08,0,3.51-8.86z"/>
<path fill="#FFF" d="m139,877,0,27.3,13.2,0c5.78,0,10.1-2.59,10.1-7.42,0-4.7-2.84-6.2-5.24-7,1.63-0.816,3.77-2.42,3.77-5.93,0-5.08-4.43-6.97-9.01-6.97h-12.8zm5.73,5.06,5.73,0c1.57,0,4.39,0.4,4.39,3.04,0,2.22-2.67,2.86-4.05,2.86h-6.07v-5.89zm0,10.8,6.73,0c2.03,0,4.74,0.421,4.74,3.04,0,2.73-2.65,3.04-4.05,3.04h-7.42v-6.07z"/>
<path fill="#FFF" d="m188,895,4.11,4.01c-1.7,1.61-4.9,4.92-10.9,4.92-8.68,0-14.6-5.73-14.6-14.4,0-9.16,7.12-14.2,14.5-14.2,6.18,0,9.16,2.91,10.6,4.4l-3.97,4.44c-2.2-1.84-3.36-3.11-6.97-3.11-3.19,0-7.76,2.36-7.76,8.43,0,4.93,3.09,8.47,7.9,8.47,4.18,0,5.66-1.88,7.04-3.04z"/>
</g>
</svg>
