<!-- Created with Inkscape (http://www.inkscape.org/) -->
<svg xmlns:rdf="http://www.w3.org/1999/02/22-rdf-syntax-ns#" xmlns="http://www.w3.org/2000/svg" height="768" width="1020" version="1.1" xmlns:cc="http://creativecommons.org/ns#" xmlns:xlink="http://www.w3.org/1999/xlink" xmlns:dc="http://purl.org/dc/elements/1.1/">
<defs>
<linearGradient id="linearGradient3905" y2="457" gradientUnits="userSpaceOnUse" x2="0.545" y1="447" x1="1020">
<stop stop-color="#659b05" offset="0"/>
<stop stop-color="#518705" offset="1"/>
</linearGradient>
<linearGradient id="linearGradient4208" y2="222" gradientUnits="userSpaceOnUse" x2="-471" gradientTransform="matrix(0.95614034,0,0,0.9772727,152.11782,270.50067)" y1="3.96" x1="-471">
<stop stop-color="#FFF" offset="0"/>
<stop stop-color="#FFF" stop-opacity="0" offset="1"/>
</linearGradient>
<radialGradient id="radialGradient4228" gradientUnits="userSpaceOnUse" cy="244" cx="207" gradientTransform="matrix(1,0,0,1.0776955,182.83694,224.95487)" r="207">
<stop stop-color="#002500" offset="0"/>
<stop stop-color="#c9eb7e" offset="3E-8"/>
<stop stop-color="#79af10" offset="0.688"/>
<stop stop-color="#3d5f05" offset="1"/>
</radialGradient>
<linearGradient id="linearGradient4230" y2="387" gradientUnits="userSpaceOnUse" x2="484" gradientTransform="matrix(2.4442797,0,0,2.4442797,-21.060427,-170.28204)" y1="353" x1="532">
<stop stop-color="#fff0aa" offset="0"/>
<stop stop-color="#ffb41e" offset="0.556"/>
</linearGradient>
<linearGradient id="linearGradient4232" y2="371" gradientUnits="userSpaceOnUse" x2="486" gradientTransform="matrix(2.4442797,0,0,2.4442797,-21.060427,-170.28204)" y1="371" x1="479">
<stop stop-color="#A05A13" offset="0"/>
<stop stop-color="#EE8A17" offset="1"/>
</linearGradient>
<filter id="filter5445">
<feGaussianBlur stdDeviation="1.1015099"/>
</filter>
<linearGradient id="linearGradient4072" y2="75.8" gradientUnits="userSpaceOnUse" y1="75.8" gradientTransform="matrix(0.74340111,0.18089586,-0.18089586,0.74340111,-233.76435,1114.961)" x2="-258" x1="-309">
<stop stop-color="#d76414" offset="0"/>
<stop stop-color="#440701" offset="1"/>
</linearGradient>
<linearGradient id="linearGradient3968-6" y2="134" gradientUnits="userSpaceOnUse" x2="368" gradientTransform="translate(-801.03334,998.20019)" y1="136" x1="336">
<stop stop-color="#ffb41e" offset="0"/>
<stop stop-color="#f09b19" offset="0.222"/>
<stop stop-color="#e18214" offset="0.444"/>
<stop stop-color="#b93c0a" offset="1"/>
</linearGradient>
<linearGradient id="linearGradient3970-9" y2="64.6" xlink:href="#linearGradient4828-8" gradientUnits="userSpaceOnUse" x2="-266" gradientTransform="matrix(0.97164702,0.23643619,-0.23643619,0.97164702,-145.66007,1124.962)" y1="75.8" x1="-309"/>
<linearGradient id="linearGradient4828-8">
<stop stop-color="#d76414" offset="0"/>
<stop stop-color="#440701" offset="1"/>
</linearGradient>
<linearGradient id="linearGradient3963-1" y2="329" gradientUnits="userSpaceOnUse" x2="-120" gradientTransform="translate(-332.39285,851.99569)" y1="329" x1="-339">
<stop stop-color="#ffb41e" offset="0"/>
<stop stop-color="#ffb41e" offset="0.265"/>
<stop stop-color="#eb8e21" offset="0.563"/>
<stop stop-color="#ae3809" offset="1"/>
</linearGradient>
<linearGradient id="linearGradient3965-1" y2="316" xlink:href="#linearGradient4828-8" gradientUnits="userSpaceOnUse" x2="-23.2" gradientTransform="translate(-332.39285,851.99569)" y1="313" x1="-335"/>
<linearGradient id="linearGradient3977-9" y2="217" gradientUnits="userSpaceOnUse" x2="-249" y1="169" x1="-274">
<stop stop-color="#b93c0a" offset="0"/>
<stop stop-color="#e18214" offset="1"/>
</linearGradient>
<linearGradient id="linearGradient3979-7" y2="217" gradientUnits="userSpaceOnUse" x2="-249" y1="145" x1="-295">
<stop stop-color="#440701" offset="0"/>
<stop stop-color="#dc7913" offset="1"/>
</linearGradient>
<linearGradient id="linearGradient3975-0" y2="167" xlink:href="#linearGradient4909-7" gradientUnits="userSpaceOnUse" x2="-346" y1="151" x1="-346"/>
<linearGradient id="linearGradient4909-7">
<stop stop-color="#3b1202" offset="0"/>
<stop stop-color="#000" stop-opacity="0" offset="1"/>
</linearGradient>
<filter id="filter5038-8" width="1.9182547" y="-0.47393793" x="-0.45912734" height="1.9478759" color-interpolation-filters="sRGB">
<feGaussianBlur stdDeviation="8.745283"/>
</filter>
<filter id="filter3839-1" width="1.2155695" y="-0.054566037" x="-0.10778477" height="1.1091321" color-interpolation-filters="sRGB">
<feGaussianBlur stdDeviation="3.6746681"/>
</filter>
<filter id="filter3761-4" width="1.1682105" y="-0.1608548" x="-0.084105231" height="1.3217096" color-interpolation-filters="sRGB">
<feGaussianBlur stdDeviation="2.9357671"/>
</filter>
<filter id="filter3787-8" width="1.4057742" y="-0.28404197" x="-0.20288712" height="1.5680839" color-interpolation-filters="sRGB">
<feGaussianBlur stdDeviation="7.608267"/>
</filter>
<linearGradient id="linearGradient3944-8" y2="-125" gradientUnits="userSpaceOnUse" x2="-806" gradientTransform="matrix(0.89542182,0,0,0.89542182,15.199626,117.76769)" y1="-102" x1="-820">
<stop stop-color="#e16f51" offset="0"/>
<stop stop-color="#732814" stop-opacity="0" offset="1"/>
</linearGradient>
<filter id="filter3882-6" width="1.4166038" y="-0.20830189" x="-0.20830189" height="1.4166038" color-interpolation-filters="sRGB">
<feGaussianBlur stdDeviation="2.2356773"/>
</filter>
<filter id="filter3839-1-7" width="1.2155695" y="-0.054566037" x="-0.10778477" height="1.1091321" color-interpolation-filters="sRGB">
<feGaussianBlur stdDeviation="3.6746681"/>
</filter>
<filter id="filter3761-4-6" width="1.1682105" y="-0.1608548" x="-0.084105231" height="1.3217096" color-interpolation-filters="sRGB">
<feGaussianBlur stdDeviation="2.9357671"/>
</filter>
<filter id="filter3787-8-2" width="1.4057742" y="-0.28404197" x="-0.20288712" height="1.5680839" color-interpolation-filters="sRGB">
<feGaussianBlur stdDeviation="7.608267"/>
</filter>
<filter id="filter3882-6-1" width="1.4166038" y="-0.20830189" x="-0.20830189" height="1.4166038" color-interpolation-filters="sRGB">
<feGaussianBlur stdDeviation="2.2356773"/>
</filter>
<filter id="filter5919">
<feGaussianBlur stdDeviation="2.4113812"/>
</filter>
<filter id="filter5038-8-6" width="1.9182547" y="-0.47393793" x="-0.45912734" height="1.9478759" color-interpolation-filters="sRGB">
<feGaussianBlur stdDeviation="8.745283"/>
</filter>
<filter id="filter3787-8-5" width="1.4057742" y="-0.28404197" x="-0.20288712" height="1.5680839" color-interpolation-filters="sRGB">
<feGaussianBlur stdDeviation="7.608267"/>
</filter>
</defs>
<metadata>
<rdf:RDF>
<cc:Work rdf:about="">
<dc:format>image/svg+xml</dc:format>
<dc:type rdf:resource="http://purl.org/dc/dcmitype/StillImage"/>
<dc:title/>
</cc:Work>
</rdf:RDF>
</metadata>
<g transform="translate(0,-284.36218)">
<rect height="767" width="1020" y="285" x="0.545" fill="url(#linearGradient3905)"/>
<path opacity="0.4" d="m1140,83.5c0,83.1-67.4,150-150,150-83.1,0-150-67.4-150-150,0-83.1,67.4-150,150-150,83.1,0,150,67.4,150,150z" transform="matrix(1.7919075,0,0,1.7919075,-773.36011,237.33166)" fill="#f5f5f5"/>
<path opacity="0.4" fill="#f5f5f5" d="m1040,696c-282,47-787,43.5-824,240-48.7,235,310,219,583,224-62-65.5-92.8-154-47-245,82.4-115,205-93.8,300-138,10.5-19.9-13.2-55.3-11.2-81.5z"/>
<path opacity="0.4" d="m1140,83.5c0,83.1-67.4,150-150,150-83.1,0-150-67.4-150-150,0-83.1,67.4-150,150-150,83.1,0,150,67.4,150,150z" transform="matrix(1.3815029,0,0,1.3815029,-346.34983,309.88753)" fill="#f5f5f5"/>
<path stroke-linejoin="miter" opacity="0.40000000000000002" d="m-15.7,777,1060,0-3.48-386c-91-48-212,42-344,40-168-6-314-195-458-195-110,2-184,55-261,101l6.96,440z" transform="translate(0,284.36218)" stroke="#FFF" stroke-linecap="butt" stroke-miterlimit="4" stroke-dasharray="none" stroke-width="3" fill="#f5f5f5"/>
<path opacity="0.40000000000000002" d="m359,907c1.38-0.909,7.92-3.92,18.8-8.81s26.1-11.7,44.8-20.2c18.7-8.56,40.8-18.9,65.4-31s51.7-26,80.2-41.6c25.4-14,52.1-29.3,79-46.1s54.2-35.1,80.9-54.8c20.3-15,40.2-30.8,59.3-47.4s37.3-34,54.2-52.2c14.2-15.2,27.4-30.9,39.4-46.9s22.7-32.3,31.8-48.7c8.36-15.1,15.5-30.2,21.3-45.1,5.77-14.9,10.2-29.7,13.2-44,3.21-14.9,5.01-29.5,5.67-43.4,0.662-13.8,0.185-27-1.11-39.1-1.7-16.6-4.96-31.7-8.66-44.8-3.7-13.2-7.83-24.4-11.6-33.6-3.27-8.08-6.29-14.6-8.62-19.5-2.33-4.89-3.96-8.14-4.64-9.64-3.43-7.56-5.13-15.2-5.52-22.8-0.386-7.59,0.546-15.1,2.46-22.2,1.92-7.06,4.83-13.7,8.45-19.3,3.62-5.61,7.95-10.2,12.7-13.2,4.76-3.03,12-4.69,20.6-4.69,8.62-0.004,18.6,1.67,28.6,5.25s20.1,9.09,28.7,16.4c8.63,7.33,15.8,16.5,20,26.8,0.619,1.52,1.72,4.38,3.19,8.54,1.47,4.15,3.31,9.59,5.36,16.3,3.56,11.6,7.69,27.1,11,45.9,3.34,18.9,5.89,41.2,5.92,66.4-0.031,17.2-1.31,35.6-4.27,54.7s-7.59,38.9-14.2,58.9c-6.25,18.7-14.1,37.3-23.5,55.6-9.39,18.3-20.3,36.2-32.6,53.4-13.3,18.6-27.9,36.4-43.7,53.3s-32.7,33-50.3,48c-20.9,17.9-42.7,34.6-65.1,50-22.4,15.5-45.3,29.8-68.3,43-30.1,17.4-60.4,33-90,47s-58.5,26.4-85.9,37.4c-30.1,12.1-58.4,22.5-84.2,31.4-25.8,8.89-48.9,16.3-68.6,22.2-19.7,5.95-35.9,10.5-47.9,13.6-12,3.12-19.6,4.83-22.3,5.02z" stroke="#FFF" stroke-miterlimit="4" stroke-dasharray="none" stroke-width="3" fill="#f5f5f5"/>
<path opacity="0.40000000000000002" stroke-linejoin="round" d="m67.1,795c-2.14-26.5-1.33-53.6,3.77-80.4,4.5-23.7,12.4-47.3,23.6-69.5,10.9-21.5,25-41.9,41.2-60.7,16.8-19.4,36-37.1,56.5-53.4,21.8-17.2,45.1-32.8,69.1-47.2,25.6-15.3,52-29.2,78.7-42.3,28.8-14.1,58-27.2,87.1-39.7s58.1-24.3,86.6-36c30.7-12.5,60.9-24.8,90.3-37,29.3-12.3,57.8-24.6,85.1-37.3,28.4-13.2,55.4-26.6,80.7-40.6,26.1-14.4,50.3-29.4,72.1-45,11.5-8.22,22.4-16.6,32.5-25.1,10.1-8.47,19.5-17.1,28-25.7,9.68-9.74,18.4-19.5,26.1-29.2,7.69-9.69,14.4-19.3,20.1-28.6,7.87-12.7,14-24.9,18.8-36.1,4.78-11.2,8.21-21.4,10.7-30.1,3.02-10.4,4.79-19,5.95-25.2,1.16-6.22,1.71-10.1,1.92-11.5,0.877-5.51,0.406-10.9-0.416-15.9-0.822-4.91-1.99-9.31-2.46-12.9-0.471-3.63-0.243-6.51,1.72-8.47,1.97-1.96,5.68-3.02,12.1-2.87,6.45,0.142,11.3,1.29,15,3.39,3.68,2.1,6.15,5.15,7.71,8.99,3.11,7.68,2.55,18.5,0.66,30.8-0.238,1.56-0.928,6.18-2.41,13.6-1.49,7.37-3.77,17.5-7.64,29.9-3.12,10-7.29,21.4-12.9,33.9-5.66,12.5-12.8,25.9-21.9,39.8-6.67,10.2-14.3,20.6-23,31.1-8.67,10.4-18.4,20.9-29.1,31.1-9.49,9.08-19.7,18-30.7,26.8-10.9,8.75-22.6,17.3-34.9,25.6-23.3,15.7-48.7,30.7-75.9,44.8-26.3,13.7-54.3,26.8-83.4,39.4-27.9,12.1-57,23.8-86.8,35.4s-60.4,23.1-91.3,34.8c-28.8,10.9-58,22-87.2,33.6s-58.5,23.8-87.4,37c-26.8,12.2-53.2,25.2-78.8,39.6-24.1,13.5-47.4,28.2-69.3,44.5-20.6,15.4-39.9,32.2-56.9,50.7-16.5,17.9-30.8,37.4-42.2,58.2-11.7,21.4-20.2,44.3-25.4,67.7-5.88,26.3-7.58,53.3-6.3,79.8z" transform="translate(0,284.36218)" stroke="#FFF" stroke-linecap="round" stroke-miterlimit="4" stroke-width="3" fill="#f5f5f5"/>
<path d="m-151,374c0,63.9-65.9,116-147,116-81.3,0-147-51.8-147-116,0-63.9,65.9-116,147-116,81.3,0,147,51.8,147,116z" transform="matrix(0.79352487,0,0,0.77891599,2005.57,6.8907812)" fill="url(#linearGradient4208)"/>
<path d="m597,488c0,114-92.7,207-207,207s-207-92.7-207-207,92.7-207,207-207,207,92.7,207,207z" transform="matrix(0.4141383,0,0,0.4141383,1246.6951,520.54675)" fill="url(#radialGradient4228)"/>
<g transform="matrix(0.91894664,0,0,0.91894664,284.74615,47.585086)">
<path d="m1180,707-6.94-4.25s-1.54,3.26-0.763,5.15l-4.46-4.7s-4.63,8.46,1.78,20.6l12.5-2.81-2.1-14z" fill="#ffb41e"/>
<path d="m1300,714s-10.4,58.8-60.1,66.8c-21.2,3.4-35.7-2.87-45.6-8.81-14.2-8.55-18.7-18.8-18.7-18.8s-3.88,3.1-9.78,3.54c-9.43,0.702-22.5-3.28-21.4-21.6,0.755-12.7,11.4-16.6,19.8-16.5,7.97,0.139,13.7,3.98,14.2,5.1,0,0,16-36.7,54.2-34.9,38.2,1.76,67.4,25.1,67.4,25.1z" fill="url(#linearGradient4230)"/>
<path d="m1180,707-6.94-4.25s-1.54,3.26-0.763,5.15l-4.46-4.7s-4.63,8.46,1.78,20.6l12.5-2.81-2.1-14z" fill="none"/>
<path clip-rule="evenodd" d="m1170,723s-4.77-12.7-1.32-20.4c0.425-0.941,3.15-2.05,3.82-1.07,0.665,0.973,2.12,3.39,2.54,3.51,0,0,0.381-4.5,1.37-5,0.992-0.506,1.96-0.447,2.77,0.352,0.812,0.799,4.04,3.84,5.17,3.88l-1.33,3.31s-4.36-2.7-4.77-3.54c0,0-1.38,4.66,0.134,6.84,0,0-5.89-4.04-6.66-6.77,0,0-2.67,8.96,1.83,17.4l-3.56,1.45z" fill-rule="evenodd"/>
<path d="m1170,721c-3.04-3.54-26.8-12.6-35.4,9.51-3.01,7.73,0.051,19.8,10,25.2,5.72,3.09,14.3,4.46,23.6,0.0171l-2.21-4.24s-6.72,4.96-17.1,1.14c-7.99-2.95-13.9-14.5-8.8-23.7,4.41-8.01,19.5-12.4,29.1-2.8l0.792-5.1z"/>
<path d="m1170,736s5.96-38.7,43.6-48.2c19.6-4.68,47.5-0.922,88,24.2,0,0-8.62,28.8-27.2,49.5-11.4,12.7-26.2,22.5-44.3,22.3-20.5-0.266-53-7.84-61.5-38.6l1.32,0.125s5.25,16.4,25.1,26.5c16.6,8.41,53.3,16.9,78.4-16.4,3.24-4.29,12.8-17.1,20.5-40.9,0,0-39.7-29.5-78.2-22.1-17.4,4.02-35.1,15.2-44.1,43.9l-1.58-0.198z"/>
<path d="m1180,728c1.09-0.763,8.4-5.13,15.3-2.07,0,0,2.94-2.86-0.078-3.43-3.02-0.572-10-0.824-16.1,4.26,0,0.002-0.269,2.01,0.824,1.24z"/>
<path d="m1230,705s5.85-4.98,9.05-1.77,4.53,8.7,4.53,8.7,3.54-1.07,3.02-3.07c-0.526-1.99-1.87-8.45-7.93-9.58s-9.4,2.9-9.69,3.7c-0.296,0.797,1.03,2.02,1.03,2.02z"/>
<path d="m1230,715s2.72-1.09,2.12-4.73c-0.604-3.64-3.2-10.7-7.78-11.6-4.58-0.892-10.5,4.63-10.5,12.2,0,0,3.26-0.328,3.44-1.48,0.183-1.15,3.18-8.33,5.62-7.77,2.44,0.555,7.13,8.11,7.15,13.3z"/>
<path d="m1290,692c1.24-2.35,4.97-9.41,9.8-6.39,5.71,3.58,4.91,9.4,3.15,12.7-1.65,3.14-7.52,7.78-12.3,5.37-4.77-2.4-1.89-9.37-0.655-11.7z"/>
<path d="m1300,690c0.166-0.973,1.06-1.65,1.99-1.52,0.934,0.137,1.56,1.04,1.39,2.01-0.166,0.973-1.06,1.65-1.99,1.52-0.936-0.137-1.56-1.04-1.39-2.01z" fill="#FFF"/>
<path d="m1190,725c-17.6,64.5,40.5,43.7,40.5,43.7l1.81-1.65s-42.9-4.26-40.8-42.5l-1.5,0.464z"/>
<path d="m1190,739s5.27,27.4,29.6,29c0,0-26.6,3.62-29-12.3-1.97-13-0.604-16.7-0.604-16.7z" fill="#FFF"/>
<path d="m1170,728s-14.6-4.29-16.7,8.06c-1.73,10.2,9.89,14.6,14.9,10.5,0,0-7.19-10.5,1.83-18.6z" fill="url(#linearGradient4232)"/>
</g>
<g filter="url(#filter5445)" fill="#000" transform="matrix(2.3306314,0,0,2.3306314,127.67405,-260.88357)">
<path d="m493,359-2.84-1.74s-0.632,1.33-0.312,2.11l-1.83-1.92s-1.89,3.46,0.729,8.43l5.1-1.15-0.858-5.73z"/>
<path d="m538,362s-4.24,24.1-24.6,27.3c-8.68,1.39-14.6-1.17-18.6-3.6-5.82-3.5-7.66-7.7-7.66-7.7s-1.59,1.27-4,1.45c-3.86,0.287-9.2-1.34-8.75-8.85,0.309-5.21,4.66-6.79,8.08-6.73,3.26,0.057,5.6,1.63,5.82,2.09,0,0,6.56-15,22.2-14.3,15.6,0.718,27.6,10.3,27.6,10.3z"/>
<path d="m493,359-2.84-1.74s-0.632,1.33-0.312,2.11l-1.83-1.92s-1.89,3.46,0.729,8.43l5.1-1.15-0.858-5.73z"/>
<path d="m488,366s-1.95-5.19-0.538-8.33c0.174-0.385,1.29-0.838,1.56-0.439,0.272,0.398,0.869,1.39,1.04,1.44,0,0,0.156-1.84,0.562-2.05,0.406-0.207,0.801-0.183,1.13,0.144,0.332,0.327,1.65,1.57,2.11,1.59l-0.543,1.35s-1.78-1.1-1.95-1.45c0,0-0.564,1.91,0.055,2.8,0,0-2.41-1.65-2.72-2.77,0,0-1.09,3.66,0.748,7.12l-1.46,0.592z" fill-rule="evenodd" clip-rule="evenodd"/>
<g>
<path d="m489,365c-1.24-1.45-11-5.16-14.5,3.89-1.23,3.16,0.021,8.1,4.1,10.3,2.34,1.26,5.86,1.83,9.64,0.007l-0.904-1.74s-2.75,2.03-6.99,0.466c-3.27-1.21-5.67-5.93-3.6-9.7,1.8-3.28,7.96-5.08,11.9-1.14l0.324-2.09z"/>
<path d="m487,371s2.44-15.8,17.8-19.7c8.04-1.92,19.5-0.377,36,9.9,0,0-3.53,11.8-11.1,20.2-4.66,5.18-10.7,9.22-18.1,9.12-8.4-0.109-21.7-3.21-25.2-15.8l0.541,0.051s2.15,6.71,10.3,10.8c6.79,3.44,21.8,6.91,32.1-6.73,1.32-1.76,5.24-6.99,8.37-16.7,0,0-16.2-12.1-32-9.04-7.1,1.64-14.4,6.22-18.1,17.9l-0.648-0.081z"/>
</g>
<path d="m493,368c0.446-0.312,3.44-2.1,6.27-0.846,0,0,1.2-1.17-0.032-1.4-1.24-0.234-4.11-0.337-6.57,1.74-0.001,0.001-0.11,0.823,0.337,0.508z"/>
<path d="m513,358s2.39-2.04,3.7-0.725c1.31,1.31,1.85,3.56,1.85,3.56s1.45-0.437,1.23-1.25c-0.215-0.816-0.764-3.46-3.24-3.92-2.48-0.462-3.85,1.19-3.97,1.51-0.121,0.326,0.421,0.825,0.421,0.825z"/>
<path d="m510,362s1.11-0.447,0.866-1.94c-0.247-1.49-1.31-4.37-3.18-4.74-1.88-0.365-4.3,1.9-4.31,5,0,0,1.33-0.134,1.41-0.605,0.075-0.472,1.3-3.41,2.3-3.18,0.999,0.227,2.92,3.32,2.92,5.46z"/>
<path d="m538,353c0.506-0.961,2.04-3.85,4.01-2.61,2.34,1.46,2.01,3.84,1.29,5.21-0.676,1.28-3.08,3.18-5.03,2.2-1.95-0.982-0.774-3.83-0.268-4.8z"/>
<path d="m540,352c0.068-0.398,0.434-0.676,0.816-0.62s0.637,0.425,0.568,0.824c-0.068,0.398-0.434,0.677-0.814,0.62-0.383-0.056-0.637-0.425-0.57-0.824z"/>
<path d="m495,366c-7.21,26.4,16.6,17.9,16.6,17.9l0.742-0.675s-17.5-1.74-16.7-17.4l-0.613,0.19z"/>
<path d="m495,372s2.16,11.2,12.1,11.9c0,0-10.9,1.48-11.9-5.04-0.806-5.31-0.247-6.84-0.247-6.84z"/>
<path d="m486,367s-5.97-1.75-6.83,3.3c-0.709,4.18,4.05,5.97,6.08,4.31,0,0-2.94-4.31,0.748-7.61z"/>
</g>
<g transform="matrix(0.91894664,0,0,0.91894664,188.65841,-73.706613)">
<path d="m1180,707-6.94-4.25s-1.54,3.26-0.763,5.15l-4.46-4.7s-4.63,8.46,1.78,20.6l12.5-2.81-2.1-14z" fill="#ffb41e"/>
<path d="m1300,714s-10.4,58.8-60.1,66.8c-21.2,3.4-35.7-2.87-45.6-8.81-14.2-8.55-18.7-18.8-18.7-18.8s-3.88,3.1-9.78,3.54c-9.43,0.702-22.5-3.28-21.4-21.6,0.755-12.7,11.4-16.6,19.8-16.5,7.97,0.139,13.7,3.98,14.2,5.1,0,0,16-36.7,54.2-34.9,38.2,1.76,67.4,25.1,67.4,25.1z" fill="url(#linearGradient4230)"/>
<path d="m1180,707-6.94-4.25s-1.54,3.26-0.763,5.15l-4.46-4.7s-4.63,8.46,1.78,20.6l12.5-2.81-2.1-14z" fill="none"/>
<path clip-rule="evenodd" d="m1170,723s-4.77-12.7-1.32-20.4c0.425-0.941,3.15-2.05,3.82-1.07,0.665,0.973,2.12,3.39,2.54,3.51,0,0,0.381-4.5,1.37-5,0.992-0.506,1.96-0.447,2.77,0.352,0.812,0.799,4.04,3.84,5.17,3.88l-1.33,3.31s-4.36-2.7-4.77-3.54c0,0-1.38,4.66,0.134,6.84,0,0-5.89-4.04-6.66-6.77,0,0-2.67,8.96,1.83,17.4l-3.56,1.45z" fill-rule="evenodd"/>
<path d="m1170,721c-3.04-3.54-26.8-12.6-35.4,9.51-3.01,7.73,0.051,19.8,10,25.2,5.72,3.09,14.3,4.46,23.6,0.0171l-2.21-4.24s-6.72,4.96-17.1,1.14c-7.99-2.95-13.9-14.5-8.8-23.7,4.41-8.01,19.5-12.4,29.1-2.8l0.792-5.1z"/>
<path d="m1170,736s5.96-38.7,43.6-48.2c19.6-4.68,47.5-0.922,88,24.2,0,0-8.62,28.8-27.2,49.5-11.4,12.7-26.2,22.5-44.3,22.3-20.5-0.266-53-7.84-61.5-38.6l1.32,0.125s5.25,16.4,25.1,26.5c16.6,8.41,53.3,16.9,78.4-16.4,3.24-4.29,12.8-17.1,20.5-40.9,0,0-39.7-29.5-78.2-22.1-17.4,4.02-35.1,15.2-44.1,43.9l-1.58-0.198z"/>
<path d="m1180,728c1.09-0.763,8.4-5.13,15.3-2.07,0,0,2.94-2.86-0.078-3.43-3.02-0.572-10-0.824-16.1,4.26,0,0.002-0.269,2.01,0.824,1.24z"/>
<path d="m1230,705s5.85-4.98,9.05-1.77,4.53,8.7,4.53,8.7,3.54-1.07,3.02-3.07c-0.526-1.99-1.87-8.45-7.93-9.58s-9.4,2.9-9.69,3.7c-0.296,0.797,1.03,2.02,1.03,2.02z"/>
<path d="m1230,715s2.72-1.09,2.12-4.73c-0.604-3.64-3.2-10.7-7.78-11.6-4.58-0.892-10.5,4.63-10.5,12.2,0,0,3.26-0.328,3.44-1.48,0.183-1.15,3.18-8.33,5.62-7.77,2.44,0.555,7.13,8.11,7.15,13.3z"/>
<path d="m1290,692c1.24-2.35,4.97-9.41,9.8-6.39,5.71,3.58,4.91,9.4,3.15,12.7-1.65,3.14-7.52,7.78-12.3,5.37-4.77-2.4-1.89-9.37-0.655-11.7z"/>
<path d="m1300,690c0.166-0.973,1.06-1.65,1.99-1.52,0.934,0.137,1.56,1.04,1.39,2.01-0.166,0.973-1.06,1.65-1.99,1.52-0.936-0.137-1.56-1.04-1.39-2.01z" fill="#FFF"/>
<path d="m1190,725c-17.6,64.5,40.5,43.7,40.5,43.7l1.81-1.65s-42.9-4.26-40.8-42.5l-1.5,0.464z"/>
<path d="m1190,739s5.27,27.4,29.6,29c0,0-26.6,3.62-29-12.3-1.97-13-0.604-16.7-0.604-16.7z" fill="#FFF"/>
<path d="m1170,728s-14.6-4.29-16.7,8.06c-1.73,10.2,9.89,14.6,14.9,10.5,0,0-7.19-10.5,1.83-18.6z" fill="url(#linearGradient4232)"/>
</g>
<g filter="url(#filter5919)" fill="#000" transform="matrix(1.0461037,0,0,1.0461037,196.65485,-462.13023)">
<path d="m1240,901s5.31-6.99,7.63-7.64c2.31-0.65,2.15-0.535,3.52,0.857s1.61,5.17,1.81,7.9c0.198,2.73-0.667,8.32-0.667,8.32l-12.3-9.43z"/>
<path d="m1250,906s6.94-9.14,9.97-9.99c3.02-0.85,2.81-0.699,4.6,1.12s2.1,6.75,2.36,10.3c0.259,3.57-0.872,10.9-0.872,10.9l-16.1-12.3z"/>
<path d="m1160,918c21.4-32.8,75.9-48.3,98.6-5.19,27.8-16.3,39,5.82,38.7,17.8-0.351,14.9-19.9,33-40.5,11.7-19.1,43.8-95.3,22.4-96.8-24.4z"/>
<path opacity="0.97318008" d="m-231,181c0,19.1-14.1,34.6-31.4,34.6-17.4,0-31.4-15.5-31.4-34.6s14.1-34.6,31.4-34.6c17.4,0,31.4,15.5,31.4,34.6z" transform="matrix(0.45178134,0,0,0.45193881,1393.9999,847.10754)"/>
<path opacity="0.97318008" d="m-298,196c0,23.9-21.6,43.2-48.2,43.2s-48.2-19.3-48.2-43.2,21.6-43.2,48.2-43.2,48.2,19.3,48.2,43.2z" transform="matrix(0.21617468,0.01735085,-0.04914444,0.51924965,1310.1181,825.45444)"/>
<path opacity="0.97318008" d="m-298,196c0,23.9-21.6,43.2-48.2,43.2s-48.2-19.3-48.2-43.2,21.6-43.2,48.2-43.2,48.2,19.3,48.2,43.2z" transform="matrix(0.16008706,0,0,0.43833113,1257.8235,828.49887)"/>
<path opacity="0.83141761" d="m-586,1100-40.6,25.6-40.2,38.1,3.15,11.8,20.8,40.8,38.6,32.8,26.3,9.6s-34.4-21.1-46.3-35.1c-10.6-12.4-23.3-23.3-28.4-38.7-3.78-11.3,3.03-29.3,3.03-29.3s17.4-16,28.6-24.4c8.42-6.39,24-22.6,24-22.6l11.1-8.59z" transform="matrix(0.42642226,0,0,0.42642226,1445.8634,423.23103)" filter="url(#filter3839-1-7)"/>
<g opacity="0.45593872" transform="matrix(0.39733572,0,0,0.42642226,1111.1934,848.69114)" filter="url(#filter3761-4-6)">
<path d="m244,255c1.43,0,21.2,2.83,31.4,1.07,10.3-1.76,21-7.56,27.1-11.8,9.38-6.56,21.3-23.5,21.3-23.5l-3.92-3.72s-12.5,17.5-20.9,23.4c-6.52,4.62-18.5,8.37-26.1,10.8-7.56,2.39-28.8,3.78-28.8,3.78z"/>
<path d="m303,215c1.79,0,12.2-3.6,17.5-1.07,3.16,1.51,5.08,5.21,6.07,8.57,1.55,5.26-0.714,16.4-0.714,16.4l-3.22-14.7-6.25-6.65-13.4-2.55z"/>
</g>
<g transform="matrix(0.39733572,0,0,0.42642226,1113.8093,848.88581)">
<path d="m244,255c1.43,0,21.2,2.83,31.4,1.07,10.3-1.76,21-7.56,27.1-11.8,9.38-6.56,21.3-23.5,21.3-23.5l-3.92-3.72s-12.5,17.5-20.9,23.4c-6.52,4.62-18.5,8.37-26.1,10.8-7.56,2.39-28.8,3.78-28.8,3.78z"/>
<path d="m303,215c1.79,0,12.2-3.6,17.5-1.07,3.16,1.51,5.08,5.21,6.07,8.57,1.55,5.26-0.714,16.4-0.714,16.4l-3.22-14.7-6.25-6.65-13.4-2.55z"/>
</g>
<path opacity="0.35632187" d="m-120,27.4c0,17.8-20.1,32.1-45,32.1s-45-14.4-45-32.1c0-17.8,20.1-32.1,45-32.1s45,14.4,45,32.1z" transform="matrix(0.15567797,0,0,0.2084731,1208.2508,905.71545)" filter="url(#filter3787-8-2)"/>
<g transform="matrix(0.35240975,-0.01837978,0.01837978,0.35240975,1392.8011,892.64838)">
<path d="m-685,1.3c1.01,5.83,2.56,9.87,4.1,27.4-9.58-0.89-19.4-4.94-27.1-6.46-12-2.38-22.2-9.05-22.2-20.2s9.95-20.2,22.2-20.2c12.3,0,19.7,7.78,23,19.4z"/>
<path d="m-688,1.84c0.905,5.22,2.3,8.84,3.67,24.6-8.58-0.797-17.4-4.42-24.2-5.78-10.8-2.13-19.9-8.1-19.9-18.1,0-9.99,8.91-18.1,19.9-18.1s17.6,6.97,20.6,17.4z"/>
<path opacity="0.4291188" d="m-814-83.8c0,7.11-5.77,12.9-12.9,12.9-7.11,0-12.9-5.77-12.9-12.9,0-7.11,5.77-12.9,12.9-12.9,7.11,0,12.9,5.77,12.9,12.9z" transform="matrix(0.60784314,0,0,0.60784314,-217.76708,51.48229)" filter="url(#filter3882-6-1)"/>
</g>
</g>
<g transform="matrix(0.42642226,0,0,0.42642226,1638.5157,-79.455597)">
<path stroke-linejoin="miter" d="m-475,1120s12.5-16.4,17.9-17.9c5.43-1.52,5.04-1.25,8.26,2.01s3.77,12.1,4.24,18.5c0.465,6.41-1.56,19.5-1.56,19.5l-28.8-22.1z" stroke="url(#linearGradient4072)" stroke-linecap="butt" stroke-miterlimit="4" stroke-dasharray="none" stroke-width="5.73820353" fill="#d76414"/>
<path stroke-linejoin="miter" d="m-461,1130s16.3-21.4,23.4-23.4c7.09-1.99,6.59-1.64,10.8,2.63s4.93,15.8,5.54,24.2c0.608,8.38-2.04,25.5-2.04,25.5l-37.7-28.9z" stroke="url(#linearGradient3970-9)" stroke-linecap="butt" stroke-miterlimit="4" stroke-dasharray="none" stroke-width="7.5" fill="url(#linearGradient3968-6)"/>
<path stroke-linejoin="miter" d="m-671,1160c50.1-76.8,178-113,231-12.2,65.2-38.2,91.4,13.7,90.7,41.8-0.823,35-46.7,77.4-95,27.5-44.9,103-223,52.6-227-57.1z" stroke="url(#linearGradient3965-1)" stroke-linecap="butt" stroke-miterlimit="4" stroke-dasharray="none" stroke-width="7.5" fill="url(#linearGradient3963-1)"/>
<path opacity="0.97318008" stroke-linejoin="round" d="m-231,181c0,19.1-14.1,34.6-31.4,34.6-17.4,0-31.4-15.5-31.4-34.6s14.1-34.6,31.4-34.6c17.4,0,31.4,15.5,31.4,34.6z" transform="matrix(1.0594694,0,0,1.0598387,-121.62481,994.02999)" stroke-dashoffset="0" stroke="url(#linearGradient3979-7)" stroke-linecap="round" stroke-miterlimit="4" stroke-dasharray="none" stroke-width="3.28964877" fill="url(#linearGradient3977-9)"/>
<path opacity="0.97318008" stroke-linejoin="round" d="m-298,196c0,23.9-21.6,43.2-48.2,43.2s-48.2-19.3-48.2-43.2,21.6-43.2,48.2-43.2,48.2,19.3,48.2,43.2z" transform="matrix(0.5069498,0.04068936,-0.1152483,1.2176889,-318.3353,943.25144)" stroke-dashoffset="0" stroke="url(#linearGradient3975-0)" stroke-linecap="round" stroke-miterlimit="4" stroke-dasharray="none" stroke-width="7.55197811" fill="none"/>
<path opacity="0.97318008" stroke-linejoin="round" d="m-298,196c0,23.9-21.6,43.2-48.2,43.2s-48.2-19.3-48.2-43.2,21.6-43.2,48.2-43.2,48.2,19.3,48.2,43.2z" transform="matrix(0.3754191,0,0,1.0279274,-440.97102,950.3909)" stroke-dashoffset="0" stroke="url(#linearGradient3975-0)" stroke-linecap="round" stroke-miterlimit="4" stroke-dasharray="none" stroke-width="8.60715771" fill="none"/>
<path opacity="0.77394637" d="m-443,150c0,12.2-10.2,22.1-22.9,22.1-12.6,0-22.9-9.91-22.9-22.1s10.2-22.1,22.9-22.1c12.6,0,22.9,9.91,22.9,22.1z" transform="matrix(1.3564751,0,0,1.3564751,8.8773099,945.58909)" filter="url(#filter5038-8)" fill="#fff798"/>
<path opacity="0.83141761" d="m-586,1100-40.6,25.6-40.2,38.1,3.15,11.8,20.8,40.8,38.6,32.8,26.3,9.6s-34.4-21.1-46.3-35.1c-10.6-12.4-23.3-23.3-28.4-38.7-3.78-11.3,3.03-29.3,3.03-29.3s17.4-16,28.6-24.4c8.42-6.39,24-22.6,24-22.6l11.1-8.59z" filter="url(#filter3839-1)" fill="#fff0aa"/>
<g opacity="0.45593872" transform="matrix(0.93178936,0,0,1,-784.83227,997.74367)" filter="url(#filter3761-4)" fill="#fff0b9">
<path d="m244,255c1.43,0,21.2,2.83,31.4,1.07,10.3-1.76,21-7.56,27.1-11.8,9.38-6.56,21.3-23.5,21.3-23.5l-3.92-3.72s-12.5,17.5-20.9,23.4c-6.52,4.62-18.5,8.37-26.1,10.8-7.56,2.39-28.8,3.78-28.8,3.78z"/>
<path d="m303,215c1.79,0,12.2-3.6,17.5-1.07,3.16,1.51,5.08,5.21,6.07,8.57,1.55,5.26-0.714,16.4-0.714,16.4l-3.22-14.7-6.25-6.65-13.4-2.55z"/>
</g>
<g transform="matrix(0.93178936,0,0,1,-778.69776,998.20019)" fill="#5f0a03">
<path d="m244,255c1.43,0,21.2,2.83,31.4,1.07,10.3-1.76,21-7.56,27.1-11.8,9.38-6.56,21.3-23.5,21.3-23.5l-3.92-3.72s-12.5,17.5-20.9,23.4c-6.52,4.62-18.5,8.37-26.1,10.8-7.56,2.39-28.8,3.78-28.8,3.78z"/>
<path d="m303,215c1.79,0,12.2-3.6,17.5-1.07,3.16,1.51,5.08,5.21,6.07,8.57,1.55,5.26-0.714,16.4-0.714,16.4l-3.22-14.7-6.25-6.65-13.4-2.55z"/>
</g>
<path opacity="0.35632187" d="m-120,27.4c0,17.8-20.1,32.1-45,32.1s-45-14.4-45-32.1c0-17.8,20.1-32.1,45-32.1s45,14.4,45,32.1z" transform="matrix(0.36507936,0,0,0.48888888,-557.22381,1131.471)" filter="url(#filter3787-8)" fill="#f5f5f5"/>
<g transform="matrix(0.82643375,-0.0431023,0.0431023,0.82643375,-124.43594,1100.8275)">
<path fill="#440701" d="m-685,1.3c1.01,5.83,2.56,9.87,4.1,27.4-9.58-0.89-19.4-4.94-27.1-6.46-12-2.38-22.2-9.05-22.2-20.2s9.95-20.2,22.2-20.2c12.3,0,19.7,7.78,23,19.4z"/>
<path fill="url(#linearGradient3944-8)" d="m-688,1.84c0.905,5.22,2.3,8.84,3.67,24.6-8.58-0.797-17.4-4.42-24.2-5.78-10.8-2.13-19.9-8.1-19.9-18.1,0-9.99,8.91-18.1,19.9-18.1s17.6,6.97,20.6,17.4z"/>
<path opacity="0.4291188" d="m-814-83.8c0,7.11-5.77,12.9-12.9,12.9-7.11,0-12.9-5.77-12.9-12.9,0-7.11,5.77-12.9,12.9-12.9,7.11,0,12.9,5.77,12.9,12.9z" transform="matrix(0.60784314,0,0,0.60784314,-217.76708,51.48229)" filter="url(#filter3882-6)" fill="#eb9b78"/>
</g>
</g>
<path opacity="0.77394637" d="m-443,150c0,12.2-10.2,22.1-22.9,22.1-12.6,0-22.9-9.91-22.9-22.1s10.2-22.1,22.9-22.1c12.6,0,22.9,9.91,22.9,22.1z" transform="matrix(0.62343118,0,0,0.62343118,1148.2208,524.81381)" filter="url(#filter5038-8-6)" fill="#fff798"/>
<path opacity="0.35632187" d="m-120,27.4c0,17.8-20.1,32.1-45,32.1s-45-14.4-45-32.1c0-17.8,20.1-32.1,45-32.1s45,14.4,45,32.1z" transform="matrix(0.16778919,0,0,0.22469161,888.0427,610.24447)" filter="url(#filter3787-8-5)" fill="#f5f5f5"/>
</g>
</svg>
