<!-- Created with Inkscape (http://www.inkscape.org/) -->
<svg xmlns:rdf="http://www.w3.org/1999/02/22-rdf-syntax-ns#" xmlns="http://www.w3.org/2000/svg" height="1200px" width="1600px" version="1.1" xmlns:cc="http://creativecommons.org/ns#" xmlns:xlink="http://www.w3.org/1999/xlink" xmlns:dc="http://purl.org/dc/elements/1.1/">
<defs>
<linearGradient id="linearGradient12401">
<stop stop-color="#FFF" stop-opacity="0.0000000" offset="0"/>
<stop stop-color="#FFF" stop-opacity="0.039215688" offset="0.5"/>
<stop stop-color="#FFF" stop-opacity="0.0000000" offset="1"/>
</linearGradient>
<style type="text/css">.fil0 {fill:#0093DD}
    .fil2 {fill:#FFFFFF}
    .fil1 {fill:#1F1A17}</style>
<style type="text/css">.fil0 {fill:#0093DD}
    .fil2 {fill:#FFFFFF}
    .fil1 {fill:#1F1A17}</style>
<style type="text/css">.fil0 {fill:#0093DD}
    .fil2 {fill:#FFFFFF}
    .fil1 {fill:#1F1A17}</style>
<style type="text/css">.fil0 {fill:#0093DD}
    .fil2 {fill:#FFFFFF}
    .fil1 {fill:#1F1A17}</style>
<linearGradient id="linearGradient2390" y2="592" gradientUnits="userSpaceOnUse" x2="-933" gradientTransform="matrix(-1.441023,0,0,1.081123,1.304039,0.93653)" y1="-9.54" x1="-984">
<stop stop-color="#FFF" stop-opacity="0.90588236" offset="0"/>
<stop stop-color="#FFF" stop-opacity="0.17708333" offset="1"/>
</linearGradient>
<linearGradient id="linearGradient2393" y2="821" gradientUnits="userSpaceOnUse" x2="351" gradientTransform="matrix(1.980036,0,0,0.786817,1.304039,0.93653)" y1="-62.6" x1="319">
<stop stop-color="#FFF" stop-opacity="0.39215687" offset="0"/>
<stop stop-color="#fefeff" stop-opacity="0.054901961" offset="1"/>
</linearGradient>
<linearGradient id="linearGradient2396" y2="265" gradientUnits="userSpaceOnUse" x2="2400" gradientTransform="matrix(0.676053,0,0,2.304442,1.304039,0.93653)" y1="128" x1="1380">
<stop stop-color="#FFF" stop-opacity="0.11764706" offset="0"/>
<stop stop-color="#fefeff" stop-opacity="0.0000000" offset="1"/>
</linearGradient>
<linearGradient id="linearGradient2399" y2="423" gradientUnits="userSpaceOnUse" x2="619" gradientTransform="matrix(1.32937,0,0,1.171927,1.304039,0.93653)" y1="626" x1="1340">
<stop stop-color="#FFF" stop-opacity="0.058823530" offset="0"/>
<stop stop-color="#FFF" stop-opacity="0.0000000" offset="1"/>
</linearGradient>
<linearGradient id="linearGradient2403" y2="550" xlink:href="#linearGradient12401" gradientUnits="userSpaceOnUse" x2="1410" gradientTransform="matrix(-0.951928,0,0,-1.636597,2287.773,1201.65)" y1="365" x1="930"/>
<linearGradient id="linearGradient2406" y2="550" xlink:href="#linearGradient12401" gradientUnits="userSpaceOnUse" x2="1410" gradientTransform="matrix(0.951928,0,0,1.636597,266.6196,0.93653)" y1="365" x1="930"/>
<linearGradient id="linearGradient2409" y2="1110" gradientUnits="userSpaceOnUse" x2="1330" gradientTransform="matrix(1.441023,0,0,1.081123,1.304039,0.93653)" y1="415" x1="227">
<stop stop-color="#FFF" stop-opacity="0.0000000" offset="0"/>
<stop stop-color="#FFF" stop-opacity="0.46354166" offset="0.5"/>
<stop stop-color="#FFF" stop-opacity="0.0000000" offset="1"/>
</linearGradient>
</defs>
<metadata>
<rdf:RDF>
<cc:Work rdf:about="">
<dc:format>image/svg+xml</dc:format>
<dc:type rdf:resource="http://purl.org/dc/dcmitype/StillImage"/>
<dc:title/>
</cc:Work>
</rdf:RDF>
</metadata>
<rect fill-rule="nonzero" height="1200" width="1600" y="0.000527" x="0.0000197" fill="#2073a0"/>
<rect fill-rule="evenodd" height="1200" width="1600" y="0.937" x="1.3" fill="url(#linearGradient2409)"/>
<path d="M1450,0.00029c130,388-290,797-310,1200h330c-140-278-160-593,130-953v-247h-150z" fill-rule="evenodd" fill="url(#linearGradient2406)"/>
<path d="M1040,0.312c250,696,20,1010-314,1200h304c100-426,290-795,310-1200h-300z" fill-rule="evenodd" fill="url(#linearGradient2403)"/>
<path d="M1250,1.09c220,432-30,766-296,1200h-669c530-501,1080-559,1140-1200l-170,0.341z" fill-rule="evenodd" fill="url(#linearGradient2399)"/>
<path d="M1490,0.869l110,0.101c-100,425-200,753,0,1200h-270c-220-296,70-876,160-1200z" fill-rule="evenodd" fill="url(#linearGradient2396)"/>
<path d="M-0.0000828,0.937v636c785-15,797-238,1600-247v-389h-1600z" fill-rule="nonzero" fill="url(#linearGradient2393)"/>
<path d="M1600,0.937h-1600v605c732-289,802,256,1600,0v-605z" fill-rule="evenodd" fill="url(#linearGradient2390)"/>
</svg>
