<svg xmlns:rdf="http://www.w3.org/1999/02/22-rdf-syntax-ns#" xmlns="http://www.w3.org/2000/svg" height="640" width="1280" version="1.1" xmlns:cc="http://creativecommons.org/ns#" xmlns:xlink="http://www.w3.org/1999/xlink" viewBox="0 0 30240 15120" xmlns:dc="http://purl.org/dc/elements/1.1/">
<metadata>
<rdf:RDF>
<cc:Work rdf:about="">
<dc:format>image/svg+xml</dc:format>
<dc:type rdf:resource="http://purl.org/dc/dcmitype/StillImage"/>
<dc:title/>
</cc:Work>
</rdf:RDF>
</metadata>
<defs>
<polygon id="Star7" points="0,-9,1.74,-3.6,7.04,-5.61,3.9,-0.89,8.77,2,3.13,2.49,3.9,8.11,0,4,-3.9,8.11,-3.13,2.49,-8.77,2,-3.9,-0.89,-7.04,-5.61,-1.74,-3.6,0,-9"/>
<polygon id="Star5" points="0,-9,2.35,-3.24,8.56,-2.78,3.8,1.24,5.29,7.28,0,4,-5.29,7.28,-3.8,1.24,-8.56,-2.78,-2.35,-3.24,0,-9"/>
</defs>
<path fill="#00008b" d="M0,0h30200v15100h-30200v-15100z"/>
<use xlink:href="#Star7" fill="#fff" transform="matrix(252,0,0,252,7560,11340)"/>
<use xlink:href="#Star7" fill="#fff" transform="matrix(120,0,0,120,22680,12600)"/>
<use xlink:href="#Star7" fill="#fff" transform="matrix(120,0,0,120,18900,6615)"/>
<use xlink:href="#Star7" fill="#fff" transform="matrix(120,0,0,120,22680,2520)"/>
<use xlink:href="#Star7" fill="#fff" transform="matrix(120,0,0,120,26040,5607)"/>
<use xlink:href="#Star5" fill="#fff" transform="matrix(70,0,0,70,24192,8190)"/>
<path fill="#fff" d="M6300,0h2520v2520h6280v2520h-6280v2520h-2520v-2520h-6300v-2520h6300v-2520z"/>
<path id="White_Diagonal" fill="#fff" d="M0,0h1690l13400,6710v850h-1700l-13400-6720v-845z"/>
<use xlink:href="#White_Diagonal" fill="#fff" transform="matrix(-1,0,0,1,15120,0)"/>
<path fill="red" d="M6800,0h1520v3020h6780v1520h-6780v3020h-1520v-3020h-6800v-1520h6800v-3020z"/>
<path id="Red_Diagonals" fill="red" d="M0,0l5040,2520h-1130l-3910-1960v-563zm15100,0h-1100l-5050,2520h1150l5000-2520z"/>
<use xlink:href="#Red_Diagonals" fill="red" transform="matrix(-1,0,0,-1,15120,7560)"/>
</svg>
