<!-- Created with Inkscape (http://www.inkscape.org/) -->
<svg xmlns:rdf="http://www.w3.org/1999/02/22-rdf-syntax-ns#" xmlns="http://www.w3.org/2000/svg" height="1250" width="2000" version="1.1" xmlns:cc="http://creativecommons.org/ns#" xmlns:xlink="http://www.w3.org/1999/xlink" xmlns:dc="http://purl.org/dc/elements/1.1/">
<defs>
<mask id="mask3833">
<rect style="enable-background:accumulate;color:#000000;" height="1250" width="2000" y="0" x="0" fill="#FFF"/>
</mask>
<radialGradient id="radialGradient3921" gradientUnits="userSpaceOnUse" cy="1570" cx="1860" gradientTransform="matrix(0,-1.6079227,2.4110883,0,-1829.7991,4220.6084)" r="1000">
<stop stop-color="#b9ecff" stop-opacity="0.74509805" offset="0"/>
<stop stop-color="#FFF" stop-opacity="0" offset="1"/>
</radialGradient>
</defs>
<metadata>
<rdf:RDF>
<cc:Work rdf:about="">
<dc:format>image/svg+xml</dc:format>
<dc:type rdf:resource="http://purl.org/dc/dcmitype/StillImage"/>
<dc:title/>
</cc:Work>
</rdf:RDF>
</metadata>
<rect style="enable-background:accumulate;color:#000000;" height="1250" width="2000" y="0" x="0" fill="#1c3d7c"/>
<rect style="enable-background:accumulate;color:#000000;" height="1250" width="2000" y="0" x="0" fill="url(#radialGradient3921)"/>
<g mask="url(#mask3833)" fill="#000">
<path d="m1790,1250c3.28-26.9,16.8-35.4,29.2-51.4,12.2-15.8,21.1-28.4,18.4-37.9-2.02-7.32-15.8-31.7-29.2-37.8-27.9-12.7-61.1-9.71-73.5-12.9-19.4-4.97-80.6-1.84-118-8.84-43.9-8.12-43.9-11.4-51-12.1-12.4-1.33-44.9-0.865-61.6,7.07-16.7,7.93-15.2,3.41-18.2,2.9-3.99-0.664-44,5.26-55.9,7.45-8.97,1.64-15.3-2.65-12.2-8.71,3.21-6.42-5.63-7.48-22.9-8.21-36.1-1.52-39.1-6.85-51-15.9-12.5-9.5-23-34.5-50.9-49.9-8.11-4.49-4.94-17-30.9-24.5-20.5-5.93-91.8-14.6-108-13.3-27.4,2.32-62.3,22.5-89.1,29.5-36.4,9.57-34.5,16.5-67.9,38.1-45.9,29.6-44,33.2-52.5,38.9-12.8,8.54-40.5,15.5-55.6,26.5-2.88,2.11-4.41-3.24-9.34-2.53-5.55,0.802-32.3,0.384-45.5-2.32-10.9-2.23-21.5-9.29-36.7-10.6-17.9-1.48-20.8,3.54-30.7,9.6-9.85,6.06-18.2,6.3-35.1,3.79-12.7-1.88-14.5-2.2-18.3-0.379-1.94,0.922-2.02-1.01-3.03-2.78-0.886-1.55-7.51-2.94-12-6.57-8.67-7.02-8.18-12.5-11.7-13.6-4.73-1.51-14.9,6.57-21.1,5.93-1.95-0.199,3.7-4.92,11.4-11.6,7.45-6.51,10.7-6.66,13.1-6.38,1.2-2.84,0.305-8.65-1.45-13.6-1.61-4.5,1.01-6.94-0.253-11.4-1.15-4.02-10-11.5-10.2-13.9-0.12-1.52,3.54-2.02,10.4,3.79,6.82,5.81,9.39,8.46,9.22,16.9-0.128,6.09,2.9,10.1,3.41,16.1,0.505,6.06-0.735,13.7,4.67,18.5,4.62,4.12,25.7,8.27,43.8,8.81,9.5,0.283,16.5-7.91,26.4-12.5,7.27-3.34,13.2-3,15.3-4.17,2.04-1.12-0.138-6.62,4.04-7.95,2.03-0.646,4.29,3.16,5.18,4.17,2.15-0.758,1.01-3.54,3.03-3.03,2.02,0.505-0.253,4.8,7.83,7.83s16.9,7.45,36.5,8.46c18.2,0.937,33.2,1.52,50.4-4.8,17.2-6.31,33.2-11.1,38.6-16.9,6.57-7.07,12.3-13.2,15.1-15.2,2.9-2.04,1.53-5.08,2.04-7.07,1.87,0.418,2.79,2.35,4.81,1.59,2.02-0.758,42.5-25.2,49.8-33.3,4.86-5.43,24-15.6,35-18.1,11.1-2.56,64.5-23,72.7-25.4,5.18-1.54-8.52-5.19-17.6-5.37-0.837-0.0163-0.841-0.21-0.316-0.442,5.92-2.61,11.7-2.41,19.5-2.02,3.85,0.189,4.01-4,7.13-3.54,6.23,0.937,12.2,2.91,12.6,0,0.149-1.35-1.52-2.79-4.05-4.15,1.61-0.789,6.54-1.4,10.2-0.963,6.31,0.758,15.8,3.03,18.9,2.21,5.27-1.4,6.76-3.22,18.7,0.568,12,3.8,38.6,6.63,60.4,8.46,26.7,2.25,47.8,11.9,60,21.1,17.4,13.1,43.1,36,60.6,53.3,8.43,8.31,22.6,4.9,30.5,5.62,12.7,1.17,36.1,10.9,42.2,11.4,9.85,0.711,49.7-1.03,62.6-4.48,14.1-3.79,40.7-8.02,59.8-5.87,18.5,2.08,36.6,3.6,56.9,10,25.2,7.98,80.5,5.62,97.9,6.38,17.4,0.758,80.2,3.53,112,17.9,23.3,10.5,28.5,19.5,36.9,20.3,6.8,0.665,4.23-2.57,11-1.83,6.72,0.733,9.85,10.6,12.9,10.9,3.98,0.063,10.5,6.25,13.5,12.6,3.03,6.31,12.4,19.3,6.69,37.2-5.55,17.5-31.6,56.3-47,70.5-6.8,6.27-4.74,11.5-4.23,19.6"/>
<path d="m1850,1260c23.2-23.2,60.5-48,71.8-56.6,11.5-8.75,28.3-16.8,28.2-21.9-0.058-3.36-14.9-13.6-22.2-23.3-6.85-9.12-10.1-26.9-5.04-40.6,3.27-8.84,1.81-13.6-5.57-20.4-6.37-5.91-7.99-11.9-10.7-12.6-2.8-0.666-3.28-4.96-2.12-6.36,1.19-1.43,2.6-1.79,4.24-2.74-1.41-5.75-8.73-16-18.1-22.4-8.22-5.57-19-9.63-31.4-10.6-12.4-0.972-27.6-2.87-32.4-4.24-11.3-3.2-22.8-8.3-31.7-10.3-6.44-1.47-14.5-3.71-21.4-1.94-6.97,1.79-18.3,12.5-18.9,14.4-0.796,2.3,0.864,4.52-1.33,8.22-1.6,2.71-2.28,6.2-7.69,5.75-5.28-0.449-14.1-1.59-20.2-0.972-5.95,0.645-9.14,1.61-17.6,0.619-8.22-0.961-31.5-13.1-44.5-17.9-7.51-2.65-16.4-6.35-20.8-4.24-3.9,1.9-18-4.24-21.7-7.51-12.8,5.73-28.1,12.5-40.6,22-4.89,3.71-10.4,2.32-6.36-2.08,3.82-4.17,18.1-12.9,22.3-15.5,4.24-2.56,20.6-12,23.3-13,1.9-1.59-0.354-4.91,0.442-5.79,0.796-0.884,4.68,0.021,5.52-1.9,0.667-1.51-2.78-4.68-10-10.8-7.24-6.09-11.8-13.6-16.3-19.8-2.94-4.01-18.1-3.89-28.2-3.09-10.1,0.796-19.6,3.18-26,8.09-6.16,4.71-13.8,16.8-17.2,19.7-1.96,1.61-4.73,1.43-7.53,1.37-2.12-0.047-4.25-0.027-6.08,0.886-4.24,2.12-3.62,3.89-10.9,6.72-7.25,2.83-42.3,9.9-50.5,11.2-8.13,1.33-9.32,2.96-12.5,2.65-3.06-0.3-3.23-1.94-7.56-5.3s-7.2-2.74-8.49-6.28c-1.7-4.68-5.66-19.6-5.04-32.4,0.619-12.8-10.3-40.7-13.8-45-5.37-6.61-12.2-6.72-15.4-6.81l-0.708-5.48c4.77-1.06,12-0.521,16.6,2.92,5.95,4.43,11.3,16.8,14.2,25.5,2.69,8.06,5.83,17.2,6.45,25.8,0.619,8.57,0.959,24.2,4.68,29.4,2.42,3.39,7.48,6.62,9.99,7.07,3.86,0.698,19.1-3.37,30.5-6.46,11.3-3.09,22.3-4.87,23.7-9.47,1.41-4.6,1.74-8.96,4.63-10.7,2.63-1.59,5.09-0.267,7.01,1.62,1.7,1.67,4.22,0.654,5.71-0.957,3.53-3.81,14.5-11.2,23-18.4,2.67-2.24,13.9-8.32,21.9-9.12,7.95-0.796,28.4-2.9,40.9-0.774,10.1,1.72,14.9,5.53,17.8,10.9,4.37,8.19,13.9,16.6,21.7,23,7.87,6.36,12.7,11.9,22.7,15.7,13.8,5.28,29.2,13.1,37.7,14.7,8.49,1.59,16-1.02,22.8-4.9,6.81-3.89,10.1-3.62,14.4-7,6.78-5.35,16.7-13.7,29.1-17.5,12.5-3.8,26.5-1,32.1,1.79,2.86-0.626,5.23-4.38,5.92-7.25,0.688-2.88,1.5-4.25,3.62-2.81s3.44,1.44,3.94,0,7.75-0.312,11.2,4.12c3.5,4.44,4.81,6.44,14.6,9.44,9.81,3,20,4.94,30.6,6.75s28.2,4.5,40.4,13.4c12.1,8.88,18.8,13.4,24.1,21.1,4.86,6.89,20.7,23.4,25.2,29.7,4.5,6.31,6.56,2.59,13.4,5.56,4.44,1.94,6.29,2.92,9.69,2.62,3.4-0.309,5.76,0.27,8.28,2.21,2.12,1.64,3.62,3.27,3.67,6.05,0.044,2.78-0.044,3.84,1.24,4.64,3.8,2.56,6.1,3.45,10.3,4.6l0.51,140c-1.31,1.83-4.2,5.76-7.44,5.55-1.2-0.079-7.54,5.74-10.9,6.21-2.49,0.353-5.86,1.46-8.69,5.16z"/>
<path d="m1500,1000c4.94-0.188,7.75,0.694,8.75,2,1.18,1.54,0.257,4.27,1.44,7.06,1.19,2.81,2.96,5.74,3.06,8.19,0.106,2.63-6.33,5.02-12.3,6.62-5.26,1.41-5.5,4.62-1.75,3.88,2.53-0.506,7.75-1.81,11.5-1.94,3.97-0.132,7.62,0.125,9.19-0.75,2.13-1.19,5.21-3.24,4.75-5-0.688-2.62-5.52-9.16-6.88-12.7-1.32-3.44-1.17-5.54,0.625-7.19,0.869-0.794,0.438-3.69,0.125-5.69"/>
<path d="m1950,1070c-0.433-9.17,3.97-17.1,5.58-21.2,1.47-3.68,1.81-13.5,1.24-20.8-0.375-4.85,6.07-14.8,6.45-18.8,0.375-4,1.47-8.26-4.28-12.5-5.75-4.25-16.4-9.88-29.9-10.4-9.38-0.355-19.7,3.54-28.8,6.48-9.81,3.14-21.9,5.94-30.4,7.84-2.67,0.595-5.62,4.93-10.4,7.07l34.7,9.93c0.75-2,3.36-4.73,6.25-6.31,5.25-2.87,19-5.47,26.7-5.59,7.75-0.125,13.4,2.06,13.8,3.38,0.185,0.597-1.12,2.62-3.31,4.75-2.3,2.23-1.95,19.4-1.41,23.8,0.449,3.6-4.75,9.94-8.75,15.3"/>
<path d="m1850,1030c-4.77,5.92-12,19-13.7,23.4-1.6,4.19-0.641,9.07-5.36,13.2-4.69,4.12-7.65,8.26-12.4,11.1-4.59,2.79-8.98,5.18-12.8,7.92l9.62,2.97c4.43-3.74,12.7-7.33,16.7-11.5,3.02-3.2,5.79-4.87,9.33-5.38,3.04-0.438,5.29,0.618,6.98,2.37,0.883-1.82-0.084-5.42-1.08-7.46-1.18-2.42-1.99-4.17-1.9-7.27,0.088-3.09,3.67-12.5,5.9-15.2,1.6-1.91,3.01,0.198,4.33-2.54,1.33-2.74,3.66-7.96,5.3-9.94"/>
<path d="m1820,1030c-5.23,5.14-10.2,10.3-14.4,10-4.62-0.293-10.3,6.59-13.7,6.08-2.81-0.425-5.11,0.954-8.07,1.17-5.69,0.415-11.5-1.92-14.5-5.29-3-3.38-2.97-5.52-1.1-7,4.94-3.92,11.8-6.39,13.6-9.1,1.69-2.52-0.294-3.04-1.54-3.54l3.91-1.24c1.5,0.663,3.28,1.42,3.4,4.02,0.176,3.76-3.3,6.28-6.72,9.06-2.32,1.89-2.06,4.31-1.06,4.99,1.17,0.794,2.64,1.01,4.55-0.177,1.64-1.02,4.77-0.972,7.82-2.52,3.71-1.88,12.1-5.97,13.8-9.59"/>
<path d="m1400,862c3.78,0.195,7.59,2.21,9.72,6.64l11.8,1.86s-7.95,1.98-9.64,3.41c-1.69,1.42-0.444,3.44,0.999,5.54,1.62,2.37,2.01,8.26,1.3,13.7-0.698,5.39-5.47,17.4-9.1,24.5-3.62,7.15-6.63,11.1-9.58,15.5-0.027,0.0401-0.046,0.0798-0.072,0.119-0.346,3.71-0.568,6.96-1.06,9.48-0.547,2.78-2.6,5.08-4.35,5.37-2.52,0.405-6.61,0.094-8.56-1.08-2.32-1.4-2.33-3.8-2.29-8.41,0.023-2.65,0.1-5.77,0.223-8.45-0.01-0.0326-0.019-0.0634-0.023-0.096-0.922-7.16-0.825-27-0.227-35,0.532-7.12,2.9-17.1,7.81-20.9,0.758-2.26,2.31-7.16,5.19-9.65,2.05-1.78,4.97-2.74,7.91-2.58z"/>
</g>
<text opacity="0.25" style="letter-spacing:0px;word-spacing:0px;" font-weight="normal" xml:space="preserve" font-size="18px" font-style="normal" font-stretch="normal" line-height="125%" font-variant="normal" y="1241.4258" x="3.7695312" font-family="Khmer OS" fill="#cccccc"><tspan font-weight="bold" font-size="15px" font-style="normal" font-stretch="normal" font-variant="normal" y="1241.4258" x="3.7695312" font-family="Droid Sans Fallback" fill="#cccccc">[ Bird_by_Magnus - vector redux by mattyhex ]</tspan></text>
</svg>
