<!-- Created with Inkscape (http://www.inkscape.org/) -->
<svg xmlns:rdf="http://www.w3.org/1999/02/22-rdf-syntax-ns#" xmlns="http://www.w3.org/2000/svg" xml:space="preserve" height="768" width="1020" version="1.1" xmlns:cc="http://creativecommons.org/ns#" xmlns:dc="http://purl.org/dc/elements/1.1/"><metadata><rdf:RDF><cc:Work rdf:about=""><dc:format>image/svg+xml</dc:format><dc:type rdf:resource="http://purl.org/dc/dcmitype/StillImage"/><dc:title/></cc:Work></rdf:RDF></metadata><defs><clipPath id="clipPath18"><path d="M0,5960,0,0h8420v5960h-8420z"/></clipPath></defs><g transform="matrix(1.2163095,0,0,-1.2879963,0.75927003,769.06378)"><g transform="scale(0.1,0.1)"><g fill-rule="nonzero" clip-path="url(#clipPath18)"><path fill="#d9f3fd" d="M0.0117,0,8420,0v5960h-8420v-5960z"/><path fill="#FFF" d="m5100,2150c0-478-387-865-865-865s-865,387-865,865,387,865,865,865,865-387,865-865"/><path fill="#fddfae" d="m5040,2150c0-446-362-808-808-808s-808,362-808,808,362,808,808,808,808-362,808-808"/><path fill="#fbc268" d="m4990,2150c0-415-337-752-752-752s-752,337-752,752,337,752,752,752,752-337,752-752"/><path fill="#f9a72b" d="m4930,2150c0-384-311-695-695-695s-695,311-695,695,311,695,695,695,695-311,695-695"/><path fill="#586320" d="m8420,270-8420,0s2840,1730,5120,2420,3300-450,3300-450v-1970"/><path fill="#5a3114" d="m6670,3180c64.7,106,149,119,149,119s-81.1,3.03-156-76.1c-17.2-18.2-30.6-34.7-41.1-49.4-0.51,29.6-11,59.5-18.4,90.4-32.3,136,44.6,230,44.6,230s-95.2-81.8-78.8-226c1.38-12.2,2.64-23.5,3.77-34-76.7,124-214,130-214,130s179-81,206-219c26.8-138-96.6-285-96.6-285s27.2-25.7,111-32.4c83.3-6.66,110,32.4,110,32.4s-49.1,49.8-59.5,126c-10.4,75.8-10.8,109,41.5,194"/><path fill="#85ce26" d="m6460,3390c0-61.6-49-112-109-112-60.4,0-109,49.9-109,112,0,61.6,49,112,109,112,60.4,0,109-49.9,109-112"/><path fill="#6ba51e" d="m6370,3310c-60.4,0-109,49.9-109,112,0,14.1,2.59,27.6,7.27,40-15.6-19.3-24.9-44-24.9-70.9,0-61.6,49-112,109-112,46.6,0,86.3,29.7,102,71.6-20-24.8-50.4-40.6-84.4-40.6"/><path fill="#6ba51e" d="m6380,3500c-4.32-8.5-6.46-17.3-6.14-26.3,1.15-32,33.4-59.7,84.1-78.1-1.07,49.4-33.6,90.8-77.9,104"/><path fill="#c2e687" d="m6430,3370c2.73-4.05-2.15-12.1-10.9-18-8.76-5.93-18.1-7.46-20.8-3.42-2.75,4.05,2.14,12.1,10.9,18,8.75,5.93,18.1,7.46,20.8,3.42"/><path fill="#85ce26" d="m6890,3490c0-61-113-110-253-110s-253,49.4-253,110c0,61,113,110,253,110s253-49.4,253-110"/><path fill="#6ba51e" d="m6700,3400c-140,0-253,49.4-253,110,0,33.8,34.8,64.1,89.7,84.4-91.6-16.6-156-56-156-102,0-61,113-110,253-110,62.2,0,119,9.82,163,26.1-29.8-5.42-62.6-8.41-96.9-8.41"/><path fill="#c2e687" d="m6830,3530c-2.56-7.72-20.6-8.67-40.3-2.14-19.7,6.54-33.6,18.1-31,25.8,2.56,7.71,20.6,8.67,40.3,2.13,19.7-6.53,33.6-18.1,31-25.8"/><path fill="#85ce26" d="m6740,3300c0-50.5,67.4-91.4,151-91.4,83.1,0,151,40.9,151,91.4s-67.4,91.4-151,91.4c-83.1,0-151-40.9-151-91.4"/><path fill="#6ba51e" d="m6830,3390c-26-16.4-42-38.7-42-63.3,0-50.5,67.4-91.4,151-91.4,22,0,42.9,2.89,61.7,8.04-27.4-17.3-65.9-28.1-109-28.1-83.1,0-151,40.9-151,91.4,0,37.1,36.5,69.1,88.8,83.4"/><path fill="#c2e687" d="m7010,3330c-3.49-9.65-16.3-13.9-28.7-9.4-12.4,4.47-19.6,15.9-16.1,25.6,3.5,9.66,16.3,13.9,28.7,9.4,12.4-4.46,19.5-15.9,16-25.6"/><path fill="#7a8a2d" d="m0,280,8420,0s-2840,1730-5120,2420-3300-450-3300-450v-1970"/><path fill="#b2cb42" d="M0.00391,0,8420,0v2000s-2840-270-5120,420-3300-450-3300-450v-1970"/><path fill="#78882c" d="m1640,496c0-86.5-233-157-520-157s-520,70.2-520,157c0,86.5,233,157,520,157s520-70.1,520-157"/><path fill="#4c551b" d="m624,446c69.3,62,264,107,493,107s424-44.7,493-107c17.6,15.7,27.2,32.5,27.2,50,0,86.5-233,157-520,157s-520-70.1-520-157c0-17.5,9.66-34.3,27.2-50"/><path fill="#78882c" d="m7620,316c0-70-188-127-420-127s-420,56.7-420,127c0,69.9,188,127,420,127s420-56.7,420-127"/><path fill="#4c551b" d="m6800,276c56,50.1,213,86.2,398,86.2s342-36.1,398-86.2c14.2,12.7,22,26.3,22,40.4,0,69.9-188,127-420,127s-420-56.7-420-127c0-14.1,7.8-27.7,22-40.4"/><path fill="#5a3114" d="m1920,3450c-40.1,82.4-11.8,173-11.8,173s-139-112-3.36-215c136-102,161-146,168-201,6.72-55.4-161-312-161-312s27.5-34.8,104-28.1c76.7,6.67,107,24.8,107,24.8s-77.6,190,97.1,366,69,260,69,260,16.6-68.6-10.1-129c-26.6-60.6-96.5-113-146-114-52.3-0.89-168,84.2-213,176"/><path fill="#6ba51e" d="m2370,3640c9.66,17.4,1.67,35.5-17.7,40.1l-76.3,18c-19.4,4.58-50.7,3.01-69.6-3.51l-67.4-23.3c-18.8-6.52-38.6-27.6-44-46.8l-19.2-69.4c-5.33-19.2,1.47-46.8,15.1-61.4l99.8-107c13.6-14.6,32.7-12.2,42.3,5.27l137,248"/><path fill="#85ce26" d="m2330,3670c17.7,9.23,39.4,2.14,48.2-15.7l45.2-91.6c8.82-17.9,2.57-41.8-13.9-53l-189-129c-16.4-11.3-25.8-4.68-20.9,14.6l52.4,204c4.97,19.3,23.5,42.7,41.2,51.9l36.4,19"/><path fill="#c2e687" d="m2280,3610c-4.7-13.2-16.9-41.4-16.9-41.4s3.76,18.8,11.3,44.2c7.52,25.4,37.6,27.3,37.6,27.3s-27.3-16.9-32-30.1"/><path fill="#6ba51e" d="m2030,3450c15.5-12.6,32.2-7.04,37,12.3l53.8,213c4.89,19.3,6.05,51.2,2.59,70.9l-25.4,144c-3.47,19.6-22.6,36.8-42.5,38.3l-141,9.98c-19.9,1.4-49.8-6.41-66.5-17.4l-190-125c-16.7-11-17.6-30.2-2.16-42.8l373-303"/><path fill="#85ce26" d="m1730,3490c-19.6,3.84-38.9,23-43,42.5l-47.2,224c-4.1,19.5,8.7,33.2,28.5,30.5l423-58.4c19.8-2.72,32-20.8,27.2-40.1l-56.4-227c-4.81-19.4-24.8-32-44.3-28.2l-288,56.5"/><path fill="#c2e687" d="m1700,3730c18.8,41.4,60.2,24.4,60.2,24.4s-67.7,41.4-82.7-5.64,20.7-126,20.7-126-16.9,65.8,1.88,107"/><path fill="#5a3114" d="m1190,2350c-94.9,18.1-104-94.9-104-94.9s185,154,145-163c-18.2-142-331-509-370-854-48.7-424,131-773,131-773s1.04-48.3,128-51.7c127-3.34,128,33.2,130,51.7,3.52,38.3-194,456-194,813s334,750,334,750-127-94.9-158-76.8c-31.6,18.1,181,479,181,479l-120-190s-9.03,81.3-104,99.4"/><path fill="#85ce26" d="m834,2280c0-286-127-518-285-518-157,0-285,232-285,518s127,518,285,518c157,0,285-232,285-518"/><path fill="#6ba51e" d="m607,2800c-12.6,0-25.1-0.57-37.5-1.43,148-18.8,265-243,265-517s-117-498-265-517c12.4-0.87,24.9-1.44,37.5-1.44,294,0,532,232,532,518s-238,518-532,518"/><path fill="#85ce26" d="m1970,2250c30.4-21.8-73.9-220-233-442s-313-385-343-363c-30.4,21.8,73.9,220,233,442s313,385,343,363"/><path fill="#6ba51e" d="m1620,1890c156,217,306,378,341,364-176,115-439,35.1-594-182-156-217-146-492,18.8-621-24.2,28.6,78.9,222,235,440"/><path fill="#85ce26" d="m1990,2500c-29.1-32.5-206,78.8-396,249s-320,334-290,366c29.1,32.5,206-78.8,396-249s320-334,290-366"/><path fill="#6ba51e" d="m1600,2750c-190,170-320,334-290,366-222-248-249-587-59.3-757s523-106,746,142c-29.1-32.5-206,78.8-396,249"/><path fill="#c2e687" d="m452,2590c-22.8-51.3-61.3-84-86.1-73s-26.5,61.5-3.7,113c22.8,51.3,61.3,84,86.1,73s26.5-61.5,3.7-113"/><path fill="#c2e687" d="m1430,2950c-4.04-2.95-28.4,23.4-54.3,58.9-26,35.5-43.7,66.7-39.7,69.6,4.05,2.96,28.4-23.4,54.3-58.9,26-35.5,43.7-66.7,39.7-69.6"/><path fill="#c2e687" d="m1780,2030c-23.9-30-47.5-51-52.6-46.9-5.1,4.07,10.1,31.7,34,61.7s47.5,51,52.6,46.9c5.11-4.07-10.1-31.7-34-61.7"/><path fill="#d4eaf2" d="M0.00391,5300c92.2-60,202-100,320-100,146,0,279,53,382,141,55.2-269,293-471,578-471,240,0,447,144,539,350,162-137,372-220,601-220,213,0,408,71.3,565,191,93.8-202,298-341,535-341,272,0,501,184,569,434,106-41.6,221-64.5,341-64.5,136,0,265,29.2,382,81.6,169-237,445-392,758-392,254,0,483,102,651,266,89-42.4,189-66.1,294-66.1,176,0,336,66.2,457,175,46.1-9.78,93.8-15,143-15,189,0,360,76.5,484,200,120-198,338-330,586-330,82.2,0,161,14.5,234,41v769h-8420v-656"/><path fill="#FFF" d="m0.0117,5960,0-399c73-20,152-40,234-40,248,0,466,132,586,330,124-124,295-200,484-200,49,0,96.7,5.24,143,15,121-109,281-175,457-175,105,0,205,23.8,294,66.1,168-165,398-266,651-266,313,0,590,155,758,392,116-52.4,246-81.6,382-81.6,120,0,235,22.8,341,64.5,68.3-250,297-434,569-434,237,0,441,140,535,341,157-120,352-191,565-191,229,0,439,82.9,601,220,91.9-206,299-350,539-350,285,0,523,202,578,471,103-87.6,236-141,382-141,118,0,228,34.8,320,94.4v286h-8420"/><path fill="#4dc3e0" d="m8420,1230c-765,61.7-3430,291-4530,564-880,220-585,431-314,541-95.2,25.2-190,51.8-283,80.1-42,12.7-83.5,24.7-125,36.2-412-62.4-1110-237-278-644,928-453,4370-659,5530-716v139"/><path fill="#45aec2" d="m3580,2340c-61.9,16.4-11.4,8.36-72.5,26-266-100-497-360,73.3-547,366-120,690-176,1210-247,457-62.6,968-144,1490-193,774-73.2,1540-170,2140-206v62.3c-765,61.7-3430,291-4530,564-880,220-585,431-314,541"/><path fill="#5a3114" d="m7220,1290c-295,238-314,368-314,368s-139-124,214-363,89.6-408,89.6-408,254,207,9.95,403"/><path fill="#5a3114" d="m7580,1360c448,209-24.9,513-24.9,513s344-304-49.8-468c-393-164-299-513-299-513s-74.7,259,373,468"/><path fill="#5a3114" d="m7200,1580s90.6-234-52.3-714-87.1-563-87.1-563,42.4-73,132-58.8c89.9,14.2,112,58.8,112,58.8s-113,138,2.49,530c120,407-107,747-107,747"/><path fill="#6ba51e" d="m7980,2330c-27.3,20.9-59.7,25.2-94,17,45.7-171-101-514-260-527,10.3-19.1,24-36.7,41.3-52.5,217-197,479,434,312,562"/><path fill="#85ce26" d="m7670,1770c-217,197,145,691,312,562,167-128-95.3-760-312-562zm377,733c-130,75.5-356,148-601-165s-91.8-719,161-769c438-87,747,756,440,934"/><path fill="#70ad1f" d="m7510,2250c137,196,366,332,563,238-8.17,6.56-16.9,12.6-26.1,18-130,75.5-356,148-601-165-163-208-150-457-48.7-615-2.82,111-24.4,328,113,524"/><path fill="#c2e687" d="m8150,2130c-5.3-31.2-15.6-55.4-23.1-54.1-7.44,1.26-9.16,27.6-3.85,58.7,5.32,31.2,15.7,55.4,23.1,54.1,7.44-1.27,9.16-27.6,3.83-58.7"/><path fill="#85ce26" d="m6990,1600c-369-124-574,483-268,795,306,311,637-670,268-795zm421,641c-67.6,294-393,495-665,316-546-359-191-1230,287-1130,479,95.7,446,519,378,814"/><path fill="#6ba51e" d="m6960,2400c-71.7,61-156,70.5-238-12.9-306-311-101-919,268-795,41.8,14.1,74.6,39.2,99.4,72.2-222,85.7-315,477-130,735"/><path fill="#70ad1f" d="m7410,2240c-65.7,286-375,484-642,330,167,30.2,500,24.4,554-481,42.9-404-116-579-252-655,440,110,407,519,341,805"/><path fill="#c2e687" d="m7210,2360c18-30.9,20-63.2,4.56-72.2-15.4-8.99-42.6,8.79-60.5,39.7-18,30.9-20,63.2-4.56,72.2,15.4,8.99,42.6-8.78,60.5-39.7"/></g></g></g></svg>
