<svg xmlns:rdf="http://www.w3.org/1999/02/22-rdf-syntax-ns#" xmlns="http://www.w3.org/2000/svg" height="1300" width="1400" version="1.0" preserveAspectRatio="xMaxYMid" xmlns:cc="http://creativecommons.org/ns#" xmlns:dc="http://purl.org/dc/elements/1.1/" viewBox="0 0 1024 950">
<metadata>
<rdf:RDF>
<cc:Work rdf:about="">
<dc:format>image/svg+xml</dc:format>
<dc:type rdf:resource="http://purl.org/dc/dcmitype/StillImage"/>
<cc:license rdf:resource="http://creativecommons.org/licenses/by-nc-sa/3.0/"/>
<dc:title/>
<dc:creator>
<cc:Agent>
<dc:title>Leolisa1997</dc:title>
</cc:Agent>
</dc:creator>
<dc:rights>
<cc:Agent>
<dc:title>CC-BY-SA</dc:title>
</cc:Agent>
</dc:rights>
<dc:source>FutureMTRNetworkAfterMerger.png</dc:source>
<dc:language>English</dc:language>
<dc:contributor>
<cc:Agent>
<dc:title>Leolisa1997</dc:title>
</cc:Agent>
</dc:contributor>
</cc:Work>
<cc:License rdf:about="http://creativecommons.org/licenses/by-nc-sa/3.0/">
<cc:permits rdf:resource="http://creativecommons.org/ns#Reproduction"/>
<cc:permits rdf:resource="http://creativecommons.org/ns#Distribution"/>
<cc:requires rdf:resource="http://creativecommons.org/ns#Notice"/>
<cc:requires rdf:resource="http://creativecommons.org/ns#Attribution"/>
<cc:prohibits rdf:resource="http://creativecommons.org/ns#CommercialUse"/>
<cc:permits rdf:resource="http://creativecommons.org/ns#DerivativeWorks"/>
<cc:requires rdf:resource="http://creativecommons.org/ns#ShareAlike"/>
</cc:License>
</rdf:RDF>
</metadata>
<defs><!--rotating station name font style--><!--Station node template--><!--Interchange node template--><!--depot symbol--></defs>
<path fill="#f4ecc8" d="m0.76697,8.1067,660.39,0-2.9264,9.7547-7.8038,0.97547-7.8038,10.73-7.8038-0.97547-12.681,10.73-8.7792-1.9509-34.142,22.436-2.9264,7.8038-9.7547,3.9019-7.8038-4.8774-10.73-9.7547-21.46,3.9019-9.7547-7.8038-15.608,1.9509-4.8774,9.7547-17.558,4.8774-12.681,32.191-21.46,5.8528-17.558,10.73-7.8038,24.387-16.583,6.8283-10.73-5.8528-29.264-8.7792-15.608-4.8774-11.706-26.338-33.166-22.436-33.166-3.9019,0.97547,9.7547-12.681,6.8283-10.73-4.8774-14.632,5.8528-90.719,0-0.97547,8.7793,3.9019,4.8774-0.97547,3.9019-3.9019,2.9264-2.9264,8.7792,3.9019,5.8528-1.9509,12.681-5.8528,4.8774,2.9264,4.8774,0,7.8038-2.9264,10.73,0.97548,9.7547,1.9509,2.9264-16.583,7.8038-14.632-5.8528-1.951,1.9509,11.706,11.706-7.8038,8.7792-8.7793-7.8038-3.9019,1.9509-2.9264,13.657-24.387-6.8283,0.97547-6.8283,6.8283,0,0.97547-2.9264-18.534-8.7792-0.97547,10.73-3.9019,3.9019-10.73-1.9509-2.9264,5.8528-0.97547,9.7547-11.706,6.8283,1.9509,3.9019-2.9264,5.8528-5.8528-5.8528-5.8528,4.8774,9.7547,9.7547-15.608,6.8283-1.9509-2.9264-3.9019,2.9264"/>
<path fill="#eaebed" d="M356.38,138.61l-12.68,26.33,2.93,6.83-7.8,2.93-5.86,28.29-36.09,23.41,1.95-26.34-36.09-34.14-11.71,31.21-3.9,19.51-18.53,7.81-17.56,18.53-9.76,15.61v16.58l-32.19,12.68-27.31,14.63-3.9,19.51-11.71,2.93-3.9,27.31-19.51,14.64-21.459,5.85-39.019,7.8-29.264,31.22-5.8527,12.68,15.608,8.78,6.828-2.93,4.877,4.88,6.829,8.78-2.927,4.88,6.829,16.58,12.681,8.78,0.975,18.53-10.73,2.93-3.902,13.65,23.412,22.44,11.705,10.73,9.755-12.68,7.804,3.9-7.804,15.61,13.655,6.83,2.93-3.9,23.41,4.87,2.93-6.83-3.91-9.75,10.73-6.83,20.49-14.63,36.09,6.83-11.7-22.44-3.91-8.78,0.98-7.8,8.78-7.8,3.9-20.49,13.66-30.24-10.73,32.19-3.91,19.51-8.77,7.8-0.98,5.86,4.88,8.78,17.56-6.83,15.6,8.78v3.9l11.71,7.8,7.8,25.37,17.56-0.98,4.88,10.73,5.85,0.98,19.51-9.76,19.51,5.85,6.83,15.61,31.21,4.88,24.39-6.83,0.98-3.9,17.55-5.85,4.88,1.95,31.22-16.59,14.63,7.81,13.66,0.97v-3.9l6.82-7.8,10.73,0.97h4.88l2.93-6.83,19.51,5.86h10.73l6.83-1.95h10.73l14.63-11.71,12.68,11.71,8.78,12.68-1.95,10.73,4.87,0.97,5.86,12.68-4.88,5.86,3.9,3.9v10.73h5.86l5.85-1.95,8.78,28.29,12.68-1.95,1.95,3.9-10.73,4.87,5.85,22.44,18.54-6.83,2.92,7.81-30.24,8.78-6.83,9.75,21.46,12.68,10.73,3.9v6.83h2.93l0.98-12.68,6.83-0.98,0.97,6.83-4.88,3.91,7.81-2.93v-5.85l10.73,5.85,8.78-15.61,3.9-0.97v-2.93l-4.88-3.9-8.78,3.9-2.92-2.93,4.87-5.85v-2.93l-4.87-0.97v-1.95l12.68-0.98,22.43,16.58v12.69l11.71,0.97,0.97,28.29-5.85,8.78c-0.49-0.53-4.18-0.01-4.19-0.04-2.13,0.05-1.14-2.66-1.64-3.73-0.23-0.48-0.54-0.26-0.85-0.38l-0.05,18.07,7.52-0.36,3.11-1.86,6.83-0.97,3.9-3.9,9.76-0.98v5.85l-3.9,0.98v0.98l4.87-0.98v2.93l-4.87,0.97,0.97,0.98,3.9-0.98v2.93l-3.9,1.95h0.98l4.87-0.98v1.96l-8.78,2.92,1.96,3.9h3.9l3.9-1.95,1.95,3.9,15.61-0.97,4.88-2.93-0.98-4.87,16.58-9.76v7.8l1.95-0.97v-7.81l3.91,2.93,22.43-10.73,1.95-16.58-4.88-1.95,2.93-3.9-2.93-4.88v-6.83l8.78-17.56,53.66,49.75,4.87-4.88-4.72-4.02,0.57-4.6-3.62-3.77-5.28-0.13-30.81-27.12,1.79-5.6,14.76,14.1-3.35,3.67,1.45,1.48c0.9,0.22,2.58-3.62,4.17-3.39l5.78,5.85,8.53-5.73,17.56,18.53-4.88,5.86,3.91-0.98,2.92-2.93,0.98,4.88,4.87,0.98-1.95,2.92,34.15,39.02,4.87,5.85-1.95,1.96,17.56,7.8,13.66-19.51,20.48-22.44,17.56-0.97,7.8-13.66,1.95-0.97-9.75,17.55,1.95,2.93v1.95l7.8,4.88v12.68h10.73l-0.97,6.83-10.73,16.58,0.97,3.9-4.87,9.76-2.93,9.75h2.93l0.97,8.78h0.98l0.97-4.87,2.93-0.98,0.98,7.8,1.95-1.95,0.97-6.83h3.9l0.98,7.81,1.95,3.9h-4.88v3.9l11.71,19.51,2.92-1.95h4.88l13.66-9.75,11.7,3.9v-164.86l-25.36,2.93-9.75-1.95-1.95-21.46-3.91-4.88v-5.85l-1.95-4.88-1.95-6.83h-5.85l-3.9-12.68,1.95-11.7,6.83-5.86-2.93-6.83-7.8,1.96-4.88-9.76h-6.83v-5.85l-22.43,5.85,9.75-6.83,10.73-4.88-6.83-8.77,3.9-5.86,5.86,3.9-0.98-7.8,0.98-7.8,14.63,3.9,5.85-1.95,0.98,12.68-9.76,4.88-0.97,12.68,2.92,0.97,4.88-3.9h5.85l5.86,8.78,3.9,8.78h4.88v-9.76l2.92,0.98,6.86-10.73-6.86-9.75h-2.92l-1.96-4.88-3.9-3.9-4.87-14.64,9.75-15.6-2.93-17.56,6.83-8.78,16.56-3.9,8.8,15.6v-119.98l-25.36,6.83-4.88,10.73h-10.73l-7.8-10.73,8.78-24.39-6.83-20.48-22.43,7.8-9.76,3.9,2.93-5.85-10.73-3.9,3.9,5.85-23.41,1.95-3.9-10.73-5.86-3.9-11.7,0.98-2.93,3.9,3.9,3.9v4.88l-13.65,10.73-11.71,1.95-7.8,8.78-8.78,18.53-3.9,24.39,0.97,4.88-6.83,4.87-39.02,45.85,15.55,18.59-17.5-15.66-37.12,33.32-13.71-1.37,2.41-1.7,9.96-0.05,33.59-33.13-14.64-14.63,17.56,10.73,40-46.82-9.76-6.83,4.88-34.14-0.98-9.76-20.48-15.61-10.73,1.95,4.88-5.85-24.39-19.51h-21.46l-24.39-14.63-0.97-8.78-10.73-6.83-18.54-0.97-12.68,4.87,10.73-6.82h18.54l9.75,5.85h10.73l1.95-6.83,13.66-0.97,14.63,2.92,14.63-4.88v-11.7l9.76-7.8,9.75,6.82,7.81,2.93,5.85-0.98,7.8,2.93-0.97,5.85-10.73,10.73,16.58,2.93-1.95,4.88,8.78-2.93-1.95-3.9h15.6l6.83,2.93,18.54-11.71,6.83-14.63-4.88-2.93-9.76,2.93-12.68,15.61-9.75,1.95-7.81-4.88v-3.9l2.93-2.93v-1.95l-25.36-8.78-2.93-17.56,13.66-21.46,9.75,7.81v6.82h13.66l2.93,5.86,3.9-14.64,1.95,2.93,13.65-5.85,2.93,4.88-3.9,5.85,8.78,0.97,34.14,37.07-1.95,18.54,7.8-10.73,10.73-1.96,12.68-5.85,7.81-16.58,7.8-5.85,8.78-10.73,17.56-3.91-2.93-6.82,8.78-2.93,25.36-8.78v-7.8l-25.36,9.75-8.78,0.98-5.85-1.95v-2.93l-7.8,0.97v2.93l-10.73,2.93-13.66,12.68v10.73l11.71-2.93,0.97,4.88-5.85,3.9-4.88,4.88-3.9,9.75-10.73-2.92,6.83-1.95-5.86-2.93-8.78,2.93-5.85,9.75-36.09-38.04,1.95-9.76,21.46-30.24-6.83-39.99,6.83,15.61,49.75,17.55-3.9,5.86h9.75l5.86-15.61,24.38-3.9,25.36,13.65v-99.493l-25.36-20.485-12.68,4.877-23.41-0.975,3.9-18.534,7.81-0.976-1.96-12.681-11.7,9.755,3.9-19.509-17.56,2.926,3.9-9.755,9.76-4.877-11.71-8.779-11.7,1.951-16.59-5.853-12.68,0.975-15.6,45.847-12.69,2.927-4.87-4.878-21.46,5.853-8.78,16.583-3.9-5.853-18.54,1.951-1.95-23.411,10.73,4.877,2.93-13.656,21.46-15.608-10.73,2.927,33.16-6.829v-4.877l5.86-4.877,4.87-10.73h-226.31l-3.9,11.706-7.8,0.976-8.78,11.705-8.78-1.951-11.71,10.731-8.77-1.951-32.19,21.46-2.93,7.804-11.71,4.877-8.78-4.877-10.73-9.755-20.48,3.902-9.76-7.804-13.65,0.976-4.88,10.73-17.56,4.877-12.68,32.192-22.44,5.85-14.63,12.68-6.83,23.41-21.46,8.78-11.7-5.85"/>
<path fill="#eaebed" d="M549.96,543.64l2.93,8.78v13.66l6.82,14.63,1.95,8.78,8.78,43.89-7.8,8.78-3.9,0.98v-0.98h1.95v-1.95l-7.8,0.98v4.88l-7.81,0.97-5.85-2.93-20.49,1.96-0.97,3.9h-8.78l-8.78-15.61,4.88-15.61,4.87-3.9-0.97-1.95h-6.83v-5.85l2.93-0.98-0.98-3.9-2.92-2.93-14.64-1.95,1.95-9.75-2.92-1.95v-7.81l-6.83-0.97-2.93-5.86v-7.8l-0.97-2.93,1.95-5.85,14.63-6.83,4.88-2.92h6.83v2.92l19.51,0.98,6.82-4.88"/>
<path fill="#eaebed" d="M582.15,770.93l-11.71,13.65,0.98,9.76,5.85,2.92,0.98,3.91,10.73,4.87,21.46,40,2.92,7.8,11.71,14.63,12.68,1.95h33.17l4.87,2.93,9.76,0.98,17.56,16.58-3.9,7.8,0.97,6.83h4.88v4.88l-2.93,2.92,16.59,11.71,5.85-6.83,1.95-17.56,11.7-19.51,14.64-2.92,5.85,5.85v13.66l5.85,7.8-18.53-0.97-4.88,3.9,10.73,7.8,9.76-3.9,2.92-6.83h4.88l8.78-3.9,7.8,8.78v7.8l-3.9,3.9v4.88l1.95,2.93-2.92,5.85h-6.83l-5.86,1.95,5.86,1.95,17.56,9.76h3.9l0.97,10.73-9.75,2.92-0.98,6.83-2.92,4.88,5.85,5.85,6.83-2.92v-4.88h11.7l3.91-5.85-1.96-3.91,10.73-3.9,1.96-4.88,7.8,12.69-0.98,6.82-5.85,5.86v24.42h30.24l-7.8-10.77-0.98-5.85-2.93-1.95v-5.85l2.93-0.98,1.95-6.83,5.85-1.95-0.97-7.8-12.68-4.88-6.83-6.83,1.95-11.7,8.78-9.76v-4.87h5.85l5.86-9.76,7.8,8.78,6.83-0.98,0.97-8.78-1.95-14.63-5.85-0.97-1.95-7.81,10.73-1.95,10.73,6.83,0.97,11.71,4.88,42.92,3.9,5.85,5.86-1.95,4.87,4.88,0.98,16.58-2.93,0.98,3.9,8.77,11.71,3.91,13.66-3.91,3.9,4.88,4.88-0.97v-2.93h2.92l1.95,1.95h2.93l-1.95,4.88,3.9,0.97,1.95,2.93h2.93l-0.98-7.8,2.93-4.88-7.8-4.88-0.98-3.9h-1.95l-5.85,2.93-2.93-1.95,0.98-1.96,2.92-0.97-1.95-2.93v-18.53l-9.75-24.39,1.95-1.95,6.83,1.95,3.9,0.98h1.95l-1.95-2.93h4.87l4.88-1.95-0.97-4.88-5.86,2.93-6.82-0.98-5.86-3.9,3.9-10.73-6.82-9.75v-9.76h-8.78l-0.98-3.9,0.98-5.85h3.9l6.83-8.78,3.9,1.95,1.95-3.9v-4.88l6.83-15.61-4.88-6.83,1.95-4.87,4.88-1.95-23.41-20.49-1.95,2.93-3.9-3.9-1.96-7.81-3.9-6.83v1.95l2.93,5.86-1.95,1.95,1.95,5.85-4.88,4.88-4.88-8.78,4.88-5.85-5.85-17.56-4.88-1.95v-3.91l-13.66-9.75-14.63-7.8-0.97,0.97,13.65,7.81-20.48,2.92-0.98-7.8-13.65-10.73-11.71-1.95-26.34-12.68-15.6,0.97-19.51,8.78-0.98,6.83-5.85,1.95-13.66-0.98-26.34,5.86-5.85,1.09-27.31-4.02-25.36-6.83-2.93,0.98v1.95h-2.93l-0.97-1.95h-2.93l-2.93-1.95-20.48-0.98-10.73,3.9h-8.78l-12.68,11.71"/>
<path fill="#eaebed" d="M656.29,876.28l-2.93,1.95-4.88,0.97-4.88,2.93v2.93l3.91-0.98,5.85,5.85-7.8,4.88,17.55,1.95,9.76,9.76,11.7,4.87v7.81l6.83,5.85h2.93l-2.93-6.83,0.98-3.9-5.86-3.9v-1.95l3.91-10.73-0.98-5.86-4.88-3.9,1.95-3.9v-4.88l-5.85-1.95-10.73,1.95-6.83-2.92"/>
<path fill="#eaebed" d="M562.64,760.2l-5.85,3.9-0.98,4.88,2.93,3.9,10.73-1.95,0.97-2.93"/>
<path fill="#eaebed" d="M437.78,565.1l-3.9,6.83v2.93l-2.93,2.92,0.98,6.83,9.75,6.83-15.61,10.73-11.7-8.78,1.95-4.88-8.78-4.87,9.75-3.91,0.98-5.85-6.83-3.9,7.81-5.85,5.85-0.98,3.9,3.9"/>
<path fill="#eaebed" d="M387.25,580.51l-2.92,1.95-0.98,11.71-5.85,4.88-0.98,4.87-25.58,16.52-4.39,1.34-3.8-3.96-11.1,4.64-5.85-3.9,3.9,6.82v4.88h-7.8l-0.98-4.88-13.66,11.71-2.92-0.98-8.78,5.86,0.97,4.87-36.09,20.49-14.63,19.51-11.71,0.97-22.43,14.64-5.86,8.77-58.52,25.37-36.1,2.92-11.702,11.71v5.85l-14.632,14.63-12.681-7.8-2.926-17.56-11.706,1.95-9.755-6.83-13.656,6.83-10.73-3.9-13.657,6.83-7.8038-4.88-5.8528,3.9v156.08l9.7547-7.8,11.706,22.43-15.608,8.78-5.8528-1.95v15.61l1.951,13.65,26.338,25.37,13.657,4.87,6.828-12.68h7.804l5.853,10.73,27.313-9.75-0.976-17.56-22.436-8.78,8.78-18.53,6.828,5.85,17.559-2.93,2.926-6.83,45.847-17.55,11.71,7.8,12.68-3.9,1.95-9.76,27.31-14.63,21.46,16.58-10.73,19.51,17.56,20.49-8.78,12.68,18.53,10.73,25.37-16.58,10.73,10.73h9.75l0.98-8.78,18.53-17.56h7.8l12.69-17.56-29.27-14.63-10.73,3.9-30.24-22.44,46.82,66.34-12.68-119.01-23.41-18.54,12.68-13.65,32.19,20.48,19.51-3.9,2.93-36.09-0.98-12.68-11.7-11.71,4.88-9.75v-6.83l7.8,4.88h13.66l-5.86-8.78-0.97-10.73-15.61,6.83-12.68-3.91,0.97-7.8,11.71-0.98-0.98-6.82-9.75-3.91v-3.9l3.9-3.9v-7.8h21.46l9.76-8.78,15.6,13.65,17.56,5.86,13.66-4.88,4.88,1.95,7.8-3.9h-5.85v-15.61l6.83-3.9-7.81-7.8,3.9-0.98,7.81-7.8,3.9,4.87,1.95-4.87-4.88-6.83,6.83-17.56-3.9-2.93,7.8-12.68-1.95-7.8-15.6-20.49"/>
<path fill="#eaebed" d="M121.73,655.82l-23.414,6.83-4.878-8.78-98.522,34.14v18.53l4.8774,11.71-4.8774,5.85v16.59l5.8529,1.95,13.657-5.86,35.117,0.98,39.994,12.68,16.584-12.68-2.93-4.88-0.97-14.63,7.8-2.93-3.9-7.8,3.9-17.56,14.63-25.36"/>
<path opacity="0.2" fill="#000" d="M52.257,719.46c-1.314-0.27-0.336-14.1-0.336-14.1l-6.216,2.32s-4.057,5.99-5.103,5.92c-0.975-0.06-4.973-10.17-4.579-10.76,0.414-0.62,7.548,0.7,7.548,0.7l6.308-2.35s-9.245-10.08-8.519-10.98c0.664-0.83,16.78,8.01,16.78,8.01s5.738-2.23,8.409-3.13c0.731-0.25,4.75-0.26,4.98,0.48,0.179,0.58-2.095,3.4-2.846,3.65-2.251,0.75-8.318,3.1-8.318,3.1s-6.656,17.44-8.108,17.14z"/>
<path fill="#eaebed" d="M576.1,889.54l-5.85,5.85-16.59,4.88-11.7,9.75,10.73,7.81-6.83,3.9,0.97,7.8,2.93,1.95-2.93,7.81-7.8,7.8-6.83,3.9-0.97,8.78h33.16v-11.7l15.61,4.87,2.93,26.34-3.9,6.83,3.9,3.9,0.97,11.69h68.29l3.9-5.83h3.9v-5.86h4.88l7.8,5.86h4.88l10.73-9.76v-7.8l-4.88-7.81-14.63,10.73-2.93-13.65-28.29,16.58-8.78-5.85-12.68,4.87-9.75,10.73-5.85-7.8,1.95-8.78,18.53-10.73,4.88-6.83v-8.78l-5.85-5.85v-4.88l4.87-3.9v-4.88l-4.87-2.92-6.83,3.9v4.88l2.92,2.92v5.86l-7.8,5.85-5.85-0.98-4.88-10.73v-11.7l-14.63-7.81v-9.75l5.85-4.88v-9.75"/>
<path fill="#eaebed" d="M357.79,939.68l-7.8,4.88-2.93-0.98h-6.83l-7.8,4.88-2.93,5.85,3.9,0.98v4.88l-4.87,6.83-3.91-1.96-1.95,3.91,6.83,4.87h6.83l4.88,4.88,0.97,6.83-2.92,3.9-13.66,2.93-4.88,7.84-2.92,0.9-0.98,3h27.31l1.96-3h5.85l1.95-2.89,5.85,5.89h4.88v-3.9l5.85-1.01,1.95-5.86,3.9-1.95v-1.95l-3.9-1.95-2.92-4.88-7.81,3.91-9.75-3.91-6.83-10.73,1.95-7.8,16.58-5.85-2.92-1.95-7.81,0.97v-2.93l9.76-8.77"/>
<path fill="#eaebed" d="M377.3,840.18h-33.17l-8.77,4.88,6.82,10.73,9.76-2.92,6.83,13.65,6.82-0.97,4.88,9.75v8.78l13.66,6.83,6.83-15.61-7.81-10.73,1.95-7.8,0.98-9.76"/>
<path fill="#eaebed" d="M411.44,821.65l-11.7,2.93-1.95,2.92-7.81,3.91-0.97,3.9-1.95,1.95,1.95,4.88,2.92,0.97,1.95,2.93h5.86l3.9-4.88h3.9l4.88-5.85v-2.93l3.9-4.88"/>
<path fill="#eaebed" d="M373.4,742.64l-13.66,9.75,2.93,8.78,2.92,4.88,1.96,2.93-2.93,3.9,7.8,8.78,15.61-4.88,3.9-9.76-2.92-1.95v-5.85h-5.86l-8.78,3.9-1.95-1.95,2.93-4.88,9.75-2.92,2.93-5.86-6.83-4.87"/>
<path d="M358.77,310.99l-5.34,4.65-53.09-0.13-32.28,23.86-34.25,33.24-22.34,32.51-8.82-4.1-1.03,9.14-8,8.53-12.82,1.15-13.17-0.59-7.99,5.28,2.7,4.94,11.67,1.83,0.51,27.57-1.59,18.92-3.31,12.03-7.65,9.22-0.45,7.76,11.36,4.04,1.35,4.04,7.57,1.97-4.17-11.14-0.02-5.27,10.32-5.62-0.02-8.37,12.05,0.59,1.33-30.21,8.25-2.86,0.67-27.69,3.21-6.52-6.83-11.71" stroke="#dbb800" stroke-linecap="round" stroke-width="1.95094287" fill="none"/>
<path d="M202.19,409.97l3.28,1.2-7.22,22.63-5.03,8-0.79,2.89-5.45-0.94-6.75-11.34-5.86-0.87" stroke="#dbb800" stroke-linecap="round" stroke-width="1.95094287" fill="none"/>
<path d="M191.84,444.46l-1.54,8.79,3.12,3.32,7.39,0.06" stroke="#dbb800" stroke-linecap="round" stroke-width="1.95094287" fill="none"/>
<path d="M174.6,452.74l15.7,0.16" stroke="#dbb800" stroke-linecap="round" stroke-width="1.95094287" fill="none"/>
<path d="M173.57,439.29l-2.58-0.18-2.05,8.14,4.97,2.48" stroke="#dbb800" stroke-linecap="round" stroke-width="1.95094287" fill="none"/>
<path d="M199.78,469.98l-5.34-0.18,0.02,6.08,5.32,0.06" stroke="#dbb800" stroke-linecap="round" stroke-width="1.95094287" fill="none"/>
<path d="M199.78,487.23l-0.17,5.34,6.23-2.21" stroke="#dbb800" stroke-linecap="round" stroke-width="1.95094287" fill="none"/>
<path d="M209.09,404.11l-3.62,6.72" stroke="#dbb800" stroke-linecap="round" stroke-width="1.95094287" fill="none"/>
<path d="M277.03,300.3l8.4-8.57-3.68-9.6,3.22-10.98-8.5-8.92,2.88-10.29-11.61-6.5-4.36,10.4-0.92,10.4,3.91,7.99,5.65,12.28,3.23,7.64,3.22,13.16,0.46,23.51" stroke="#dbb800" stroke-linecap="round" stroke-width="1.95094287" fill="none"/>
<path d="M276.68,262.36l-12.23,7.07" stroke="#dbb800" stroke-linecap="round" stroke-width="1.95094287" fill="none"/>
<path d="m564.59,76.39c9.9986,19.022,21.935,53.842,39.994,76.087,9.0031,11.089,24.5,15.845,33.025,27.306,28.452,38.251,16.443,104.56,55.584,131.77,5.6552,3.932,13.992-0.88846,20.644,0.8981,27.741,7.4505,54.974,20.741,76.384,39.891,12.886,11.526,28.559,25.74,28.967,43.024,1.3037,28.107-28.114,32.093-39.76,49.884-9.2378,14.113-13.987,30.909-23.646,44.737-7.9712,11.412-23.284,17.914-27.948,31.03-10.165,28.585,6.6317,60.637,4.5369,90.904-1.0807,15.615-10.47,30.568-8.7792,46.129,2.0528,18.887,21.05,30.908,22.436,52.394" stroke="#46a8d7" stroke-linecap="round" stroke-miterlimit="4" stroke-dasharray="none" stroke-width="2.92672658" fill="none"/>
<path d="m452.41,113.46c15.851,0.84946,19.434,9.2012,25.618,17.486,25.243,33.816,98.161-3.4478,121.57,16.549" stroke="#46a8d7" stroke-linecap="round" stroke-miterlimit="4" stroke-dasharray="none" stroke-width="2.9263165" fill="none"/>
<path d="m811.15,420.1c-11.971,28.586-5.6644,17.171-11.355,23.916-7.351,8.7123-25.537,18.312-27.984,19.657" stroke="#46a8d7" stroke-linecap="round" stroke-width="2.92641449" fill="none"/>
<path d="m906.01,356.35c-14.154,12.827-23.835,5.3997-33.166,12.681-6.2582,4.8835-10.397,12.271-13.657,19.509-3.4327,7.6225-2.3182,16.811-5.8528,24.387-9.2389,19.802-26.88,34.506-39.019,52.675-3.1597,4.7295-5.3566,10.089-8.7792,14.632-4.0146,5.3286-8.2435,10.732-13.657,14.632-10.153,7.3146-22.77,10.384-34.142,15.608-8.4612,3.8865-14.61,1.0908-25.362,11.706" stroke="#bd2a80" stroke-linecap="round" stroke-width="2.92641449" fill="none"/>
<path d="M667.85,638.92c-29.31-17.13-26.76-14.19-37.92-24.21-28.33-25.44-49.03-58.35-71.45-89.13-44.49-61.08-65.59-142.35-124.86-189.24-20.894-16.528-49.316-20.593-75.052-27.477-7.3518-1.9664-14.935-3.0227-22.495-3.9019-18.747-2.1803-39.253-11.008-56.518-3.3847-20.407,9.0102-30.284,33.11-42.05,52.062-10.127,16.312-17.297,34.361-24.105,52.313-6.3833,16.832-11.706,38.775-15.608,51.7" stroke="#bd2a80" stroke-linecap="round" stroke-width="2.92641449" fill="none"/>
<path d="m429.14,338.78c-18.977-22.055-40.719-7.4195-44.931-23.843-7.034-27.426,37.683-44.141,46.605-71.012,8.1195-24.453-6.984-54.174,4.6649-77.156,7.7382-15.267,40.199-15.699,39.506-32.8-0.3705-9.132-20.537-23.081-22.445-15.748" stroke-dashoffset="0.58526329" stroke="#000" stroke-miterlimit="4" stroke-dasharray="none" stroke-width="2.92631674" fill="none"/>
<path d="m731.67,522.81c-4.2479,5.6768-4.8165,10.426-3.162,15.397,9.4319,28.342,52.635,33.299,67.03,59.472,4.6982,8.5424,7.8795,16.214,4.6765,28.871-1.6507,6.5228-1.5838,16.032-6.6642,21.593-6.3002,6.5731-22.306,6.2159-28.617,14.93-4.0527,5.5954,0.0612,14.458-3.3788,20.449-2.134,3.7168-7.1679,4.9025-9.8987,8.2058-4.624,5.5933-6.1711,13.247-10.495,19.075-5.8583,7.8968-10.779,21.32-20.609,21.104-8.7207-0.19222-12.575-12.27-17.441-19.509-15.266-22.714,1.6353-52.147-36.01-73.784" stroke="#bd2a80" stroke-dasharray="none" stroke-miterlimit="4" stroke-width="2.92644572" fill="none"/>
<path d="m120.29,755.39s0.88806-5.4714,17.698-9.0304c17.112-3.6227,21.993-5.5231,42.828-17.592,22.923-13.278,47.484-19.947,84.571-48.959,4.9463-3.8693,18.6-13.24,30.961-21.783,12.63-8.7293,27.501-16.002,41.366-23.802,10.992-6.1846,19.065-10.816,33.155-18.235,14.692-7.7349,39.315-17.572,56.84-23.875,45.061-16.206,88.206-27.503,119.92-34.572,17.797-3.9669,36.856,12.305,46.776,31.892,15.359,30.324,21.981,34.043,69.854,52.175,8.4319,3.1935,21.128,22.276,23.052,27.874,1.9011,5.5314,6.0606,18.72,4.5574,42.353s-35.434,34.261-11.313,52.649" stroke="#eb9800" stroke-linecap="round" stroke-width="2.92641449" fill="none"/>
<path d="m111,665.58c-12.872,3.898-17.656,12.148-15.608,20.485,7.4461,30.303,20.076,79.692,84.783,39.689,12.936-7.2062,34.477-16.135,46.622-23.077,26.048-14.888,59.304-43.617,85.237-57.421,15.068-8.0208,36.389-20.166,51.055-27.812,13.91-7.2516,22.64-12.803,65.538-28.521,36.091-13.224,85.976-28.156,118.17-34.098,14.058-2.5947,37.105,19.327,44.409,35.108,17.648,35.244,27.121,35.908,72.33,54.477,9.0725,3.7263,17.666,18.128,21.048,25.642,3.4224,7.6043,5.1506,17.014,4.5648,41.157-0.58577,24.143-38.384,33.937-8.5315,57.263" stroke="#007881" stroke-linecap="round" stroke-width="2.92641449" fill="none"/>
<path stroke-linejoin="miter" d="m680.96,764.96c2.335,0.28181,11.299,3.4993,17.094,4.6228,7.0728,1.3712,14.266,2.9416,21.461,2.5632,15.204-0.79964,43.789,5.9735,44.534-10.144" stroke-dashoffset="0" stroke="#eb9800" stroke-linecap="butt" stroke-miterlimit="4" stroke-dasharray="none" stroke-width="2.92664862" fill="none"/>
<path d="M340.01,639.44c12.24-11.44,24.87,1.39,21.82,7.66-5.91,12.16-2.47,34.18,27.18,33.11" stroke="#d07ca9" stroke-linecap="round" stroke-width="2.92641449" fill="none"/>
<path d="m573.37,512.43c8.57,0.70202,14.857,0.68199,20.485,4.8774,7.8249,5.8336,14.225,15.611,14.632,25.362,0.25479,6.1038-6.1234,10.71-7.8038,16.583-2.6381,9.2209-7.0258,19.707-3.3723,28.574,5.3036,12.873,19.683,21.04,32.694,25.993,11.243,4.2797,24.063,0.82313,36.034,2.0099,6.864,0.68043,14.315-0.1583,20.485,2.9264,5.3468,2.6734,9.0065,7.966,12.681,12.681,4.424,5.6767,9.0052,11.641,11.075,18.534,1.7181,5.7214,0.66917,11.931,0.80304,17.903,0.13587,6.0615-0.2755,12.132,0,18.189,0.29672,6.5234,1.4579,12.987,1.7785,19.509,0.28351,5.7675,0.4148,11.556,0.12689,17.323,1.2734,19.051,1.9145,44.261-12.798,57.036-4.2381,3.68-6.9237-1.617-16.785,1.3456" stroke="#d80f1f" stroke-linecap="round" stroke-width="2.92641449" fill="none"/>
<path stroke-linejoin="miter" d="m746.23,710.61c-2.9504,27.504-13.058,41.219-26.807,57.146-6.5092,7.5406-10.696,16.733-24.912,16.506" stroke-dashoffset="0" stroke="#46a8d7" stroke-linecap="butt" stroke-miterlimit="4" stroke-dasharray="none" stroke-width="2.92664862" fill="none"/>
<path d="m713.84,686.06c0-4.6335,0.10774-12.242,0-18.362-0.10512-5.9706-0.60322-11.932-0.6306-17.903-0.037-8.0741-3.1044-17.056,0.6306-24.214,3.5498-6.8036,11.349-10.96,18.534-13.657,7.3314-2.7519,15.904,0.27735,23.411-1.9509,4.6024-1.3661,8.0951-5.408,12.681-6.8283,8.7466-2.7089,18.371-4.8964,27.313-2.9264,7.4063,1.6316,14.739,5.8102,19.509,11.706,7.568,9.3523,7.3282,22.935,11.706,34.142,3.2314,8.2723,4.8791,17.706,10.73,24.387,5.7681,6.5864,15.697,8.0676,22.436,13.657,6.7344,5.5852,12.376,12.46,17.558,19.509,4.6877,6.3769,4.7163,17.589,12.105,20.426,13.151,5.0487,21.889,2.6439,40.339-12.598" stroke="#009758" stroke-linecap="round" stroke-miterlimit="4" stroke-dasharray="none" stroke-width="2.92672658" fill="none"/>
<path d="m950.88,697.77c34.792-23.686,30.475,19.982,23.411,41.945" stroke="#763688" stroke-dasharray="none" stroke-miterlimit="4" stroke-width="2.92644572" fill="none"/>
<path d="M110.05,750.7l-20.539-6.35-83.064,106.47" stroke="#adb9c3" stroke-linecap="round" stroke-width="1.95094287" fill="none"/>
<line stroke-width="1.1954" y2="723.01" x2="714.06" stroke="#000" y1="731.6" x1="720.72"/>
<line stroke-width="0.97547" y2="782.63" y1="766.05" stroke="#000" x2="682.62" x1="680.67"/>
<path d="M791.48,441.24l-2.48-0.83-3.72,3.72,1.24,3.32-4.35,4.34,1.66,1.66,4.34-4.35,3.31,1.24,3.73-3.72-0.83-2.49-3.31,3.32-2.28-0.63-0.62-2.27,3.31-3.31" stroke="#000" stroke-width="0.5852828" fill="#FFF"/>
<path d="M744.38,521.05l-2.48-0.82-3.72,3.72,1.24,3.31-4.35,4.35,1.66,1.65,4.34-4.34,3.31,1.24,3.73-3.73-0.83-2.48-3.31,3.31-2.28-0.62-0.62-2.27,3.31-3.32" stroke="#000" stroke-width="0.5852828" fill="#FFF"/>
<path d="M449.78,376.3l-0.83,2.48,3.73,3.73,3.31-1.24,4.34,4.34,1.66-1.65-4.35-4.35,1.24-3.31-3.72-3.73-2.48,0.83,3.31,3.31-0.62,2.28-2.28,0.62-3.31-3.31" stroke="#000" stroke-width="0.5852828" fill="#FFF"/>
<path d="M165.52,489.65l-0.83,2.48,3.73,3.73,3.31-1.24,4.35,4.34,1.65-1.65-4.34-4.35,1.24-3.31-3.73-3.72-2.48,0.82,3.31,3.32-0.62,2.27-2.28,0.62-3.31-3.31" stroke="#000" stroke-width="0.5852828" fill="#FFF"/>
<path d="M575.22,504.28l-0.83,2.49,3.73,3.72,3.31-1.24,4.34,4.35,1.66-1.66-4.35-4.35,1.25-3.31-3.73-3.72-2.48,0.83,3.31,3.31-0.62,2.27-2.28,0.62-3.31-3.31" stroke="#000" stroke-width="0.5852828" fill="#FFF"/>
<path d="M225.47,692.79l-2.49-0.83-3.72,3.73,1.24,3.31-4.35,4.34,1.66,1.66,4.34-4.35,3.32,1.24,3.72-3.72-0.83-2.48-3.31,3.31-2.27-0.62-0.63-2.28,3.32-3.31" stroke="#000" stroke-width="0.5852828" fill="#FFF"/>
<path d="M810.37,637.05l-0.82,2.49,3.72,3.72,3.31-1.24,4.35,4.34,1.65-1.65-4.34-4.35,1.24-3.31-3.73-3.72-2.48,0.83,3.31,3.31-0.62,2.27-2.27,0.62-3.32-3.31" stroke="#000" stroke-width="0.5852828" fill="#FFF"/>
<path d="M960.46,724.64l-0.83,2.48,3.72,3.73,3.31-1.24,4.35,4.34,1.66-1.65-4.35-4.35,1.24-3.31-3.72-3.73-2.49,0.83,3.31,3.31-0.62,2.28-2.27,0.62-3.31-3.31" stroke="#000" stroke-width="0.5852828" fill="#FFF"/>
<path d="M883.03,791.32l-0.83,2.48,3.72,3.73,3.32-1.24,4.34,4.34,1.66-1.65-4.35-4.35,1.24-3.31-3.72-3.72-2.49,0.82,3.32,3.32-0.63,2.27-2.27,0.62-3.31-3.31" stroke="#000" stroke-width="0.5852828" fill="#FFF"/>
<path stroke-linejoin="miter" d="M110.41,751.04l9.55,5.05" stroke="#000" stroke-linecap="butt" stroke-width="0.97547144px" fill="none"/>
<circle stroke-width="1" cx="0" cy="0" transform="matrix(0.9754715,0,0,0.9754715,110.36885,750.90716)" stroke="#000" r="3" fill="#FFF"/>
<circle stroke-width="1" cx="0" cy="0" transform="matrix(0.9754715,0,0,0.9754715,6.5827897,851.27691)" stroke="#000" r="3" fill="#FFF"/>
<circle stroke-width="1" cx="0" cy="0" transform="matrix(0.9754715,0,0,0.9754715,564.59089,76.390435)" stroke="#000" r="3" fill="#FFF"/>
<circle stroke-width="1" cx="0" cy="0" transform="matrix(0.9754715,0,0,0.9754715,604.58522,152.47721)" stroke="#000" r="3" fill="#FFF"/>
<circle stroke-width="1" cx="0" cy="0" transform="matrix(0.9754715,0,0,0.9754715,638.23795,180.76519)" stroke="#000" r="3" fill="#FFF"/>
<circle stroke-width="1" cx="0" cy="0" transform="matrix(0.9754715,0,0,0.9754715,692.86435,311.81549)" stroke="#000" r="3" fill="#FFF"/>
<circle stroke-width="1" cx="0" cy="0" transform="matrix(0.9754715,0,0,0.9754715,713.83803,312.45454)" stroke="#000" r="3" fill="#FFF"/>
<circle stroke-width="1" cx="0" cy="0" transform="matrix(0.9754715,0,0,0.9754715,819.18895,395.36962)" stroke="#000" r="3" fill="#FFF"/>
<circle stroke-width="1" cx="0" cy="0" transform="matrix(0.9754715,0,0,0.9754715,800.51903,443.56498)" stroke="#000" r="3" fill="#FFF"/>
<circle stroke-width="1" cx="0" cy="0" transform="matrix(0.9754715,0,0,0.9754715,778.70111,445.86187)" stroke="#000" r="3" fill="#FFF"/>
<circle stroke-width="1" cx="0" cy="0" transform="matrix(0.9754715,0,0,0.9754715,755.7833,489.99035)" stroke="#000" r="3" fill="#FFF"/>
<rect rx="3.4142" transform="matrix(-0.6427877,0.7660444,-0.7660444,-0.6427877,0,0)" height="9.7547" width="5.8528" stroke="#000" y="-900.01" x="-71.782" stroke-width="0.97547" fill="#FFF"/>
<rect rx="3.4142" transform="matrix(0.995354,-9.6283049e-2,9.6283049e-2,0.995354,0,0)" height="9.7547" width="5.8528" stroke="#000" y="674.72" x="667.12" stroke-width="0.97547" fill="#FFF"/>
<circle stroke-width="1" cx="0" cy="0" transform="matrix(0.9754715,0,0,0.9754715,720.82698,731.70836)" stroke="#000" r="3" fill="#FFF"/>
<circle stroke-width="1" cx="0" cy="0" transform="matrix(0.9754715,0,0,0.9754715,906.00591,356.35076)" stroke="#000" r="3" fill="#FFF"/>
<circle stroke-width="1" cx="0" cy="0" transform="matrix(0.9754715,0,0,0.9754715,872.83988,369.03188)" stroke="#000" r="3" fill="#FFF"/>
<circle stroke-width="1" cx="0" cy="0" transform="matrix(0.9754715,0,0,0.9754715,859.18328,388.54131)" stroke="#000" r="3" fill="#FFF"/>
<circle stroke-width="1" cx="0" cy="0" transform="matrix(0.9754715,0,0,0.9754715,853.33045,412.9281)" stroke="#000" r="3" fill="#FFF"/>
<circle stroke-width="1" cx="0" cy="0" transform="matrix(0.9754715,0,0,0.9754715,814.31159,465.60356)" stroke="#000" r="3" fill="#FFF"/>
<circle stroke-width="1" cx="0" cy="0" transform="matrix(0.9754715,0,0,0.9754715,805.53235,480.23564)" stroke="#000" r="3" fill="#FFF"/>
<circle stroke-width="1" cx="0" cy="0" transform="matrix(0.9754715,0,0,0.9754715,791.87575,494.86771)" stroke="#000" r="3" fill="#FFF"/>
<circle stroke-width="1" cx="0" cy="0" transform="matrix(0.9754715,0,0,0.9754715,757.73425,510.47525)" stroke="#000" r="3" fill="#FFF"/>
<circle stroke-width="1" cx="0" cy="0" transform="matrix(0.9754715,0,0,0.9754715,703.10784,712.39785)" stroke="#000" r="3" fill="#FFF"/>
<rect rx="3.4142" transform="matrix(-0.8660254,-0.5,0.5,-0.8660254,0,0)" height="9.7547" width="5.8528" stroke="#000" y="-226.3" x="-899.84" stroke-width="0.97547" fill="#FFF"/>
<rect rx="3.4142" transform="matrix(-0.2314058,-0.9728573,0.9728573,-0.2314058,0,0)" height="9.7547" width="5.8528" stroke="#000" y="466.11" x="-745.54" stroke-width="0.97547" fill="#FFF"/>
<circle stroke-width="1" cx="0" cy="0" transform="matrix(0.9754715,0,0,0.9754715,558.2182,525.32396)" stroke="#000" r="3" fill="#FFF"/>
<rect rx="3.3958" transform="matrix(0.9852855,0.1709168,-0.1709168,0.9852855,0,0)" height="9.7024" width="5.8214" stroke="#000" y="237.84" x="403.31" stroke-width="0.97024" fill="#FFF"/>
<circle stroke-width="1" cx="0" cy="0" transform="matrix(0.9754715,0,0,0.9754715,337.30603,304.65077)" stroke="#000" r="3" fill="#FFF"/>
<rect rx="3.4061" transform="matrix(-0.6816036,0.7317216,-0.7317216,-0.6816036,0,0)" height="9.7318" width="5.8391" stroke="#000" y="-414.56" x="26.464" stroke-width="0.97318" fill="#FFF"/>
<rect rx="3.4128" transform="matrix(-0.3401361,0.9403762,-0.9403762,-0.3401361,0,0)" height="9.7508" width="5.8505" stroke="#000" y="-340.62" x="306.45" stroke-width="0.97508" fill="#FFF"/>
<rect rx="3.4128" transform="matrix(-0.3401361,0.9403762,-0.9403762,-0.3401361,0,0)" height="9.7508" width="5.8505" stroke="#000" y="-343.53" x="360.37" stroke-width="0.97508" fill="#FFF"/>
<circle stroke-width="1" cx="0" cy="0" transform="matrix(0.9754715,0,0,0.9754715,110.99664,665.57522)" stroke="#000" r="3" fill="#FFF"/>
<circle stroke-width="1" cx="0" cy="0" transform="matrix(0.9754715,0,0,0.9754715,95.389112,686.06012)" stroke="#000" r="3" fill="#FFF"/>
<circle stroke-width="1" cx="0" cy="0" transform="matrix(0.9754715,0,0,0.9754715,119.94855,755.99177)" stroke="#000" r="3" fill="#FFF"/>
<rect rx="3.4141" transform="matrix(0.8660191,-0.500011,0.500011,0.8660191,0,0)" height="9.7545" width="5.8527" stroke="#000" y="716.97" x="-28.601" stroke-width="0.97545" fill="#FFF"/>
<rect rx="3.4135" transform="matrix(0.9961937,-8.716698e-2,8.716698e-2,0.9961937,0,0)" height="9.7528" width="5.8517" stroke="#000" y="597.68" x="494.45" stroke-width="0.97528" fill="#FFF"/>
<circle stroke-width="1" cx="0" cy="0" transform="matrix(0.9754715,0,0,0.9754715,687.5003,669.47711)" stroke="#000" r="3" fill="#FFF"/>
<rect rx="3.4135" transform="matrix(8.7171939e-2,-0.9961933,0.9961933,8.7171939e-2,0,0)" height="9.7528" width="5.8517" stroke="#000" y="744.94" x="-651.45" stroke-width="0.97528" fill="#FFF"/>
<rect rx="3.4142" transform="matrix(0.9396926,0.3420201,-0.3420201,0.9396926,0,0)" height="9.7547" width="5.8528" stroke="#000" y="482.17" x="898.7" stroke-width="0.97547" fill="#FFF"/>
<circle stroke-width="1" cx="0" cy="0" transform="matrix(0.9754715,0,0,0.9754715,389.00602,680.20729)" stroke="#000" r="3" fill="#FFF"/>
<circle stroke-width="1" cx="0" cy="0" transform="matrix(0.9754715,0,0,0.9754715,573.37013,512.4262)" stroke="#000" r="3" fill="#FFF"/>
<circle stroke-width="1" cx="0" cy="0" transform="matrix(0.9754715,0,0,0.9754715,593.85503,517.30355)" stroke="#000" r="3" fill="#FFF"/>
<circle stroke-width="1" cx="0" cy="0" transform="matrix(0.9754715,0,0,0.9754715,608.48711,542.66581)" stroke="#000" r="3" fill="#FFF"/>
<circle stroke-width="1" cx="0" cy="0" transform="matrix(0.9754715,0,0,0.9754715,600.68333,559.24883)" stroke="#000" r="3" fill="#FFF"/>
<rect rx="3.4142" transform="matrix(0.3420201,0.9396926,-0.9396926,0.3420201,0,0)" height="9.7547" width="5.8528" stroke="#000" y="-364.84" x="754.37" stroke-width="0.97547" fill="#FFF"/>
<circle stroke-width="1" cx="0" cy="0" transform="matrix(0.9754715,0,0,0.9754715,666.03992,615.82617)" stroke="#000" r="3" fill="#FFF"/>
<circle stroke-width="1" cx="0" cy="0" transform="matrix(0.9754715,0,0,0.9754715,686.52483,618.75259)" stroke="#000" r="3" fill="#FFF"/>
<circle stroke-width="1" cx="0" cy="0" transform="matrix(0.9754715,0,0,0.9754715,699.20596,631.43372)" stroke="#000" r="3" fill="#FFF"/>
<rect rx="3.4142" transform="matrix(8.7155778e-2,0.9961947,-0.9961947,8.7155778e-2,0,0)" height="9.7547" width="5.8528" stroke="#000" y="-657.41" x="706.61" stroke-width="0.97547" fill="#FFF"/>
<rect rx="3.4142" transform="matrix(8.7155778e-2,0.9961947,-0.9961947,8.7155778e-2,0,0)" height="9.7547" width="5.8528" stroke="#000" y="-656.85" x="724.19" stroke-width="0.97547" fill="#FFF"/>
<path stroke-linejoin="miter" d="m713.81,686.18c1.6763,28.642,26.942,0.39504,38.381,6.5235,8.5734,4.5933,20.006,21.241,20.006,21.241" stroke-dashoffset="0" stroke="#009758" stroke-linecap="butt" stroke-miterlimit="4" stroke-dasharray="none" stroke-width="2.92664862" fill="none"/>
<rect rx="3.4142" transform="matrix(8.7155778e-2,0.9961947,-0.9961947,8.7155778e-2,0,0)" height="9.7547" width="5.8528" stroke="#000" y="-654.49" x="743.19" stroke-width="0.97547" fill="#FFF"/>
<circle stroke-width="1" cx="0" cy="0" transform="matrix(0.9754715,0,0,0.9754715,712.86256,705.56955)" stroke="#000" r="3" fill="#FFF"/>
<circle stroke-width="1" cx="0" cy="0" transform="matrix(0.9754715,0,0,0.9754715,713.41553,722.36605)" stroke="#000" r="3" fill="#FFF"/>
<circle stroke-width="1" cx="0" cy="0" transform="matrix(0.9754715,0,0,0.9754715,713.83803,625.58089)" stroke="#000" r="3" fill="#FFF"/>
<circle stroke-width="1" cx="0" cy="0" transform="matrix(0.9754715,0,0,0.9754715,755.7833,609.97335)" stroke="#000" r="3" fill="#FFF"/>
<circle stroke-width="1" cx="0" cy="0" transform="matrix(0.9754715,0,0,0.9754715,768.46443,603.14504)" stroke="#000" r="3" fill="#FFF"/>
<circle stroke-width="1" cx="0" cy="0" transform="matrix(0.9754715,0,0,0.9754715,815.28706,611.92429)" stroke="#000" r="3" fill="#FFF"/>
<circle stroke-width="1" cx="0" cy="0" transform="matrix(0.9754715,0,0,0.9754715,826.99272,646.06579)" stroke="#000" r="3" fill="#FFF"/>
<circle stroke-width="1" cx="0" cy="0" transform="matrix(0.9754715,0,0,0.9754715,837.72291,670.45258)" stroke="#000" r="3" fill="#FFF"/>
<circle stroke-width="1" cx="0" cy="0" transform="matrix(0.9754715,0,0,0.9754715,860.15875,684.10918)" stroke="#000" r="3" fill="#FFF"/>
<circle stroke-width="1" cx="0" cy="0" transform="matrix(0.9754715,0,0,0.9754715,877.71724,703.61861)" stroke="#000" r="3" fill="#FFF"/>
<path opacity="0.81858407" d="m607.58,774.89s13.855-3.9388,20.7-6.1753c5.7234-1.8702,11.201-4.5019,17.019-6.0536,5.3453-1.4257,11.16-4.9345,16.33-2.9644,9.8518,3.7546,10.64,19.163,19.467,24.928,3.8174,2.4935,8.7092,3.027,13.255,3.3766,9.054,0.69623,18.066-1.8685,27.117-2.6095,7.5476-0.61799,15.161-0.52325,22.667-1.5314,6.9627-0.93524,15.792,0.88892,20.657-4.1785,3.801-3.9586-0.54608-11.764,2.6062-16.256,5.3655-7.6463,15.369-11.664,24.511-13.583,8.045-1.6886,16.835-0.54981,24.556,2.2716,6.093,2.2265,10.684,7.3621,15.969,11.124,4.5093,3.2099,8.6986,6.893,13.429,9.7668,6.0572,3.6797,12.345,7.1236,19.023,9.4968,10.355,3.6799,25.918-1.8441,32.175,7.1905,7.3212,10.571-5.3643,38.202-5.3643,38.202" stroke-dashoffset="0.80019998" stroke="#006cae" stroke-miterlimit="4" stroke-dasharray="none" stroke-width="2.90523434" fill="none"/>
<path d="m944.05,666.55c3.1703,2.9264,11.164,6.1568,12.681,11.706,1.7911,6.549-2.1483,13.82-5.8528,19.509-4.3818,6.7299-11.818,10.929-18.302,15.667-13.641,9.9659-24.109,19.291-42.926,14.061-25.589-7.113-47.805,25.538-74.097,29.292-8.2774,1.1818-20.304-3.8883-24.976-2.3253" stroke="#763688" stroke-linecap="round" stroke-width="2.92641449" fill="none"/>
<rect rx="3.4142" transform="matrix(0.932109,0.362178,-0.362178,0.932109,0,0)" height="9.7547" width="5.8528" stroke="#000" y="350.09" x="1089.8" stroke-width="0.97547" fill="#FFF"/>
<rect rx="3.4142" transform="matrix(0.7660444,-0.6427877,0.6427877,0.7660444,0,0)" height="9.7547" width="5.8528" stroke="#000" y="1139.5" x="252.62" stroke-width="0.97547" fill="#FFF"/>
<circle stroke-width="1" cx="0" cy="0" transform="matrix(0.9754715,0,0,0.9754715,944.0493,666.55069)" stroke="#000" r="3" fill="#FFF"/>
<circle stroke-width="1" cx="0" cy="0" transform="matrix(0.9754715,0,0,0.9754715,956.73043,678.25635)" stroke="#000" r="3" fill="#FFF"/>
<circle stroke-width="1" cx="0" cy="0" transform="matrix(0.9754715,0,0,0.9754715,950.8776,697.76578)" stroke="#000" r="3" fill="#FFF"/>
<circle stroke-width="1" cx="0" cy="0" transform="matrix(0.9754715,0,0,0.9754715,974.28892,739.71105)" stroke="#000" r="3" fill="#FFF"/>
<circle stroke-width="1" cx="0" cy="0" transform="matrix(0.9754715,0,0,0.9754715,609.91197,774.37864)" stroke="#000" r="3" fill="#FFF"/>
<circle stroke-width="1" cx="0" cy="0" transform="matrix(0.9754715,0,0,0.9754715,645.55502,763.12237)" stroke="#000" r="3" fill="#FFF"/>
<circle stroke-width="1" cx="0" cy="0" transform="matrix(0.9754715,0,0,0.9754715,662.13804,760.19596)" stroke="#000" r="3" fill="#FFF"/>
<rect rx="3.4142" transform="matrix(0.9396926,0.3420201,-0.3420201,0.9396926,0,0)" height="9.7547" width="5.8528" stroke="#000" y="497.09" x="906.2" stroke-width="0.97547" fill="#FFF"/>
<circle stroke-width="1" cx="0" cy="0" transform="matrix(0.9754715,0,0,0.9754715,721.6418,785.55822)" stroke="#000" r="3" fill="#FFF"/>
<circle stroke-width="1" cx="0" cy="0" transform="matrix(0.9754715,0,0,0.9754715,745.05312,783.60727)" stroke="#000" r="3" fill="#FFF"/>
<circle stroke-width="1" cx="0" cy="0" transform="matrix(0.9754715,0,0,0.9754715,765.53802,779.70539)" stroke="#000" r="3" fill="#FFF"/>
<rect rx="3.4142" transform="matrix(0.982143,-0.188136,0.188136,0.982143,0,0)" height="9.7547" width="5.8528" stroke="#000" y="882.88" x="632.3" stroke-width="0.97547" fill="#FFF"/>
<rect rx="3.4142" transform="matrix(0.9763945,0.2159948,-0.2159948,0.9763945,0,0)" height="9.7547" width="5.8528" stroke="#000" y="556.3" x="957.21" stroke-width="0.97547" fill="#FFF"/>
<circle stroke-width="1" cx="0" cy="0" transform="matrix(0.9754715,0,0,0.9754715,832.84555,764.09784)" stroke="#000" r="3" fill="#FFF"/>
<circle stroke-width="1" cx="0" cy="0" transform="matrix(0.9754715,0,0,0.9754715,846.50215,772.87709)" stroke="#000" r="3" fill="#FFF"/>
<circle stroke-width="1" cx="0" cy="0" transform="matrix(0.9754715,0,0,0.9754715,865.03611,782.6318)" stroke="#000" r="3" fill="#FFF"/>
<circle stroke-width="1" cx="0" cy="0" transform="matrix(0.9754715,0,0,0.9754715,897.22667,789.4601)" stroke="#000" r="3" fill="#FFF"/>
<circle stroke-width="1" cx="0" cy="0" transform="matrix(0.9754715,0,0,0.9754715,892.34931,827.50349)" stroke="#000" r="3" fill="#FFF"/>
<path d="M784.24,606.63l-0.82,2.49,3.72,3.72,3.31-1.24,4.35,4.34,1.65-1.65-4.34-4.35,1.24-3.31-3.73-3.72-2.48,0.82,3.31,3.32-0.62,2.27-2.27,0.62-3.32-3.31" stroke="#000" stroke-width="0.5852828" fill="#FFF"/>
<flowRoot font-weight="normal" xml:space="preserve" transform="matrix(0.6119073,-0.5180749,0.5180749,0.6119073,-265.44275,551.34785)" font-style="normal" font-size="26.33142853px" font-family="Bitstream Vera Sans" fill="#ffffff"><flowRegion><rect height="10.931" width="71.721" y="780.33" x="762.56" fill="#FFF"/></flowRegion><flowPara>Exhibition</flowPara></flowRoot>
<circle stroke-width="1" cx="0" cy="0" transform="matrix(0.9754715,0,0,0.9754715,728.34044,538.07268)" stroke="#000" r="3" fill="#FFF"/>
<circle stroke-width="1" cx="0" cy="0" transform="matrix(0.9754715,0,0,0.9754715,793.31813,648.13079)" stroke="#000" r="3" fill="#FFF"/>
<circle stroke-width="1" cx="0" cy="0" transform="matrix(0.9754715,0,0,0.9754715,765.11525,663.35566)" stroke="#000" r="3" fill="#FFF"/>
<circle stroke-width="1" cx="0" cy="0" transform="matrix(0.9754715,0,0,0.9754715,762.57841,683.68464)" stroke="#000" r="3" fill="#FFF"/>
<rect rx="3.4141" transform="matrix(0.99962,2.7563712e-2,-2.7563712e-2,0.99962,0,0)" height="9.7547" width="5.8528" stroke="#000" y="745.32" x="737.06" stroke-width="0.97547" fill="#FFF"/>
<rect rx="3.4142" transform="matrix(0.5644903,0.8254397,-0.8254397,0.5644903,0,0)" height="9.7547" width="5.8528" stroke="#000" y="-234.27" x="993.18" stroke-width="0.97547" fill="#FFF"/>
<circle stroke-width="1" cx="0" cy="0" transform="matrix(0.9754715,0,0,0.9754715,771.70755,713.51646)" stroke="#000" r="3" fill="#FFF"/>
<rect rx="3.4142" transform="matrix(0.9928937,0.1190047,-0.1190047,0.9928937,0,0)" height="9.7547" width="5.8528" stroke="#000" y="495.01" x="858.63" stroke-width="0.97547" fill="#FFF"/>
<!--Terrain--><!--Rail track--><!--depots--><!--Station node positioning--><!--Ngong Ping 360--><!--East Rail--><!--Ma On Shan Rail--><!--West Rail--><!--Airport Express--><!--Tung Chung Line--><!--Disneyland Resort Line--><!--Tsuen Wan Line--><!--Kwun Tong Line--><!--Tseung Kwan O Line--><!--Island Line--><!--station name positioning--><!--rotate 30--><!--rotate 330-->
<rect rx="3.3958" transform="matrix(0.6138977,0.7893856,-0.7893856,0.6138977,0,0)" height="9.7024" width="5.8214" stroke="#000" y="-137.6" x="527.53" stroke-width="0.97024" fill="#FFF"/>
<rect rx="3.3958" transform="matrix(0.6138977,0.7893856,-0.7893856,0.6138977,0,0)" height="9.7024" width="5.8214" stroke="#808080" y="-299.98" x="394.89" stroke-width="0.97024" fill="#FFF"/>
<rect rx="3.3958" transform="matrix(0.9999828,-5.861312e-3,5.861312e-3,0.9999828,0,0)" height="9.7024" width="5.8214" stroke="#000" y="114.13" x="448.93" stroke-width="0.97024" fill="#FFF"/>
<text font-size="9.73821259px" y="9.1943302" x="5.1618423" font-family="&apos;DejaVu Sans Condensed, Arial&apos;">
<tspan y="80.283264" x="573.87329">Lo Wu</tspan>
<tspan y="109.49789" x="458.96225">Lok Ma Chau</tspan>
<tspan y="156.24133" x="613.79999">Sheung Shui</tspan>
<tspan y="176.69159" x="643.01465">Fanling</tspan>
<tspan y="296.47156" x="652.75287"/>
</text>
<text font-size="9.73821259px" y="33.937836" x="15.001229" font-family="&apos;DejaVu Sans Condensed, Arial&apos;">
<tspan y="321.21509" x="662.59198">Tai Wo</tspan>
<tspan y="352.37738" x="675.25165"/>
</text>
<text font-size="9.73821259px" y="-12.094166" x="43.747246" font-family="&apos;DejaVu Sans Condensed, Arial&apos;">
<tspan y="306.34537" x="703.99792">Tai Po Market</tspan>
<tspan y="377.4343" x="807.22302"/>
</text>
<text font-size="9.73821259px" y="8.6243849" x="6.3017321" font-family="&apos;DejaVu Sans Condensed, Arial&apos;">
<tspan y="398.15283" x="769.77753">University</tspan>
<tspan y="409.83881" x="778.54187">(CUHK)</tspan>
<tspan y="447.81793" x="806.78217"/>
</text>
<text font-size="9.73821259px" y="-2.4392827" x="-30.397322" font-family="&apos;DejaVu Sans Condensed, Arial&apos;">
<tspan y="436.75427" x="770.08307">Racecourse</tspan>
<tspan y="441.62335" x="709.70667"/>
</text>
<text font-size="9.73821259px" y="7.731473" x="3.6989851" font-family="&apos;DejaVu Sans Condensed, Arial&apos;">
<tspan y="451.7941" x="743.80304">Fo Tan</tspan>
<tspan y="491.72073" x="714.58838">Sha Tin</tspan>
<tspan y="520.93542" x="689.2691">Tai Wai</tspan>
<tspan y="621.23901" x="736.98627">Kowloon Tong</tspan>
<tspan y="664.08716" x="729.19568"/>
</text>
<text font-size="9.73821163px" transform="matrix(0.9868728,0.1614997,-0.1614997,0.9868728,0,0)" y="-111.71252" x="82.269356" font-family="&apos;DejaVu Sans Condensed, Arial&apos;">
<tspan y="592.36029" x="830.1637">Hung Hom</tspan>
<tspan y="622.54865" x="798.02765"/>
</text>
<text font-size="9.73821259px" y="7.9066095" x="2.0474739" font-family="&apos;DejaVu Sans Condensed, Arial&apos;">
<tspan y="742.16797" x="717.80597"/>
</text>
<g font-size="9.73821259px" font-family="&apos;DejaVu Sans Condensed, Arial&apos;" transform="translate(-10.24,0)">
<text y="4.7820539" x="20.205853">
<tspan y="739.0434" x="735.96423">East Tsim</tspan>
<tspan y="746.83392" x="735.96423"/>
</text>
<text y="5.1850662" x="22.019407">
<tspan y="747.23694" x="737.77777">Sha Tsui</tspan>
<tspan y="355.76068" x="931.56885"/>
</text>
</g>
<text font-size="9.73821259px" y="6.9087672" x="2.0280981" font-family="&apos;DejaVu Sans Condensed, Arial&apos;">
<tspan y="357.48438" x="911.5777">Wu Kai Sha</tspan>
<tspan y="375.01312" x="878.4679">Ma On Shan</tspan>
<tspan y="392.54193" x="864.83441">Heng On</tspan>
<tspan y="413.96625" x="858.99146">Tai Shui Hang</tspan>
<tspan y="466.55255" x="820.03857">Shek Mun</tspan>
<tspan y="483.10748" x="811.27332">City One</tspan>
<tspan y="499.66241" x="797.63947">Sha Tin Wai</tspan>
<tspan y="520.11267" x="759.66089">Che Kung Temple</tspan>
<tspan y="651.57849" x="609.6925">Nam Cheong</tspan>
<tspan y="596.07068" x="629.16888">Mei</tspan>
<tspan y="605.8089" x="629.16888">Foo</tspan>
<tspan y="531.79852" x="479.20013">Tsuen Wan West</tspan>
<tspan y="342.87708" x="441.22116">Kam Sheung Road</tspan>
<tspan y="320.47919" x="359.4205"/>
</text>
<text font-size="9.73821259px" y="6.9087672" x="0.47650385" font-family="&apos;DejaVu Sans Condensed, Arial&apos;">
<tspan y="284.44781" x="326.70663">Long</tspan>
<tspan y="294.18597" x="326.70663">Ping</tspan>
<tspan y="299.05511" x="214.71721">Tin Shui Wai</tspan>
<tspan y="406.17548" x="215.69104">Siu Hong</tspan>
<tspan y="467.52631" x="200.10989">Tuen Mun</tspan>
<tspan y="494.79333" x="548.73779">Tsuen</tspan>
<tspan y="504.53156" x="548.73779">Wan</tspan>
<tspan y="518.16498" x="598.40265">Tai Wo Hau</tspan>
<tspan y="543.48431" x="613.00995">Kwai Hing</tspan>
<tspan y="560.03931" x="605.21942">Kwai Fong</tspan>
<tspan y="597.04449" x="553.60693">Lai King</tspan>
<tspan y="585.3587" x="655.85809">Lai</tspan>
<tspan y="595.09686" x="655.85809">Chi</tspan>
<tspan y="604.83508" x="655.85809">Kok</tspan>
<tspan y="591.20154" x="682.15137">Cheung</tspan>
<tspan y="600.93976" x="682.15137">Sha</tspan>
<tspan y="610.67804" x="682.15137">Wan</tspan>
<tspan y="639.89264" x="674.36066">Sham</tspan>
<tspan y="649.63092" x="679.22986">Shui</tspan>
<tspan y="659.36902" x="687.02039">Po</tspan>
<tspan y="649.63092" x="716.23505">Prince Edward</tspan>
<tspan y="673.97638" x="715.26117"/>
</text>
<text font-size="9.73821259px" transform="matrix(0.9467354,-0.3220125,0.3220125,0.9467354,0,0)" y="203.53595" x="-301.14716" font-family="&apos;DejaVu Sans Condensed, Arial&apos;">
<tspan y="870.60352" x="413.63721">Mong Kok</tspan>
<tspan y="883.26324" x="416.55878"/>
<tspan y="883.26324" x="416.55878"/>
</text>
<text font-size="9.73821259px" y="9.1943302" x="5.1618423" font-family="&apos;DejaVu Sans Condensed, Arial&apos;">
<tspan y="702.55518" x="719.94647"/>
</text>
<text font-size="9.73821259px" y="9.1943302" x="5.1618423" font-family="&apos;DejaVu Sans Condensed, Arial&apos;">
<tspan y="702.55518" x="719.94647"/>
</text>
<text font-size="9.73821354px" transform="matrix(0.9814235,-0.1918537,0.1918537,0.9814235,0,0)" y="139.19019" x="-145.69156" font-family="&apos;DejaVu Sans Condensed, Arial&apos;">
<tspan y="832.5506" x="569.09229">Jordan</tspan>
<tspan y="867.60803" x="540.8515"/>
</text>
<text font-size="9.73821259px" y="0.47174686" x="2.3222589" font-family="&apos;DejaVu Sans Condensed, Arial&apos;">
<tspan y="728.89014" x="688.86609">Tsim</tspan>
<tspan y="738.62836" x="688.86609">Sha</tspan>
<tspan y="748.36652" x="688.86609">Tsui</tspan>
<tspan y="624.69128" x="718.08075"/>
</text>
<text font-size="9.73821259px" y="9.1943302" x="5.1618423" font-family="&apos;DejaVu Sans Condensed, Arial&apos;">
<tspan y="633.41388" x="720.92035">Shek Kip Mei</tspan>
<tspan y="593.48718" x="745.26587">Lok</tspan>
<tspan y="603.2254" x="745.26587">Fu</tspan>
<tspan y="578.87988" x="764.74225">Wong</tspan>
<tspan y="588.61816" x="764.74225">Tai</tspan>
<tspan y="598.35632" x="764.74225">Sin</tspan>
<tspan y="593.48718" x="793.95685"/>
</text>
<text font-size="9.73821259px" y="8.0182943" x="6.3378763" font-family="&apos;DejaVu Sans Condensed, Arial&apos;">
<tspan y="592.31116" x="795.13287">Diamond Hill</tspan>
<tspan y="613.73523" x="825.32202"/>
</text>
<text font-size="9.73821259px" y="9.1943302" x="5.1618423" font-family="&apos;DejaVu Sans Condensed, Arial&apos;">
<tspan y="614.91125" x="824.146">Choi Hung</tspan>
<tspan y="648.99506" x="835.83185">Kowloon Bay</tspan>
<tspan y="671.39294" x="846.54395">Ngau Tau Kok</tspan>
<tspan y="686.974" x="868.94177">Kwun Tong</tspan>
<tspan y="706.4505" x="837.77948">Lam Tin</tspan>
<tspan y="741.50806" x="871.86328">Yau Tong</tspan>
<tspan y="726.90076" x="930.29248"/>
</text>
<text font-size="9.73821259px" y="9.1943302" x="5.1618423" font-family="&apos;DejaVu Sans Condensed, Arial&apos;">
<tspan y="726.90076" x="930.29248"/>
</text>
<text font-size="9.73821259px" y="9.1943302" x="5.1618423" font-family="&apos;DejaVu Sans Condensed, Arial&apos;">
<tspan y="726.90076" x="930.29248"/>
</text>
<text font-size="9.73821259px" transform="matrix(0.9999565,-9.3223606e-3,9.3223606e-3,0.9999565,0,0)" y="-4.7890663" x="-47.290695" font-family="&apos;DejaVu Sans Condensed, Arial&apos;">
<tspan y="712.91711" x="877.83917">Tiu King Leng</tspan>
<tspan y="654.48773" x="68.593987"/>
</text>
<text font-size="9.73821258999999980px" y="9.1943302" x="5.1618423" font-family="&apos;DejaVu Sans Condensed, Arial&apos;">
<tspan y="668.47144" x="121.04661">AsiaWorld-Expo</tspan>
<tspan y="688.92169" x="61.643501">Airport</tspan>
<tspan y="765.85358" x="98.648689">Tung Chung</tspan>
<tspan y="632.44" x="285.62238">Sunny Bay</tspan>
<tspan y="692.81696" x="317.75848">Disneyland Resort</tspan>
<tspan y="551.61292" x="519.33936">Tsing Yi</tspan>
<tspan y="672.3667" x="645.9361">Olympic</tspan>
<tspan y="713.26721" x="647.88373">Kowloon</tspan>
<tspan y="770.72266" x="686.83667"/>
</text>
<text font-size="9.73821259px" transform="matrix(0.853469,0.5211436,-0.5211436,0.853469,0,0)" y="-469.22406" x="248.10153" font-family="&apos;DejaVu Sans Condensed, Arial&apos;">
<tspan y="292.30447" x="929.77582">Hong Kong</tspan>
<tspan y="181.28882" x="1166.4153"/>
</text>
<text font-size="9.73821259px" y="10.228726" x="3.09305" font-family="&apos;DejaVu Sans Condensed, Arial&apos;">
<tspan y="660.74146" x="921.40704">Po Lam</tspan>
<tspan y="682.16553" x="928.22369">Hang</tspan>
<tspan y="691.90381" x="928.22369">Hau</tspan>
<tspan y="701.64197" x="957.43842"/>
</text>
<g transform="translate(-3.4817973,4.3404346)">
<g transform="translate(1.8329614,0.2986732)">
<g font-size="9.73821259px" font-family="&apos;DejaVu Sans Condensed, Arial&apos;" transform="translate(-0.4223877,-0.4223877)">
<text y="7.0418205" x="3.7288952">
<tspan y="698.45508" x="958.0741">Tseung</tspan>
<tspan y="708.1933" x="958.0741"/>
</text>
<text y="8.1070757" x="3.4416158">
<tspan y="709.25854" x="957.78687">Kwan O</tspan>
<tspan y="751.13287" x="931.49365"/>
</text>
</g>
</g>
</g>
<text font-size="9.73821259px" y="10.657187" x="5.1618423" font-family="&apos;DejaVu Sans Condensed, Arial&apos;">
<tspan y="753.68292" x="933.21399">LOHAS Park</tspan>
<tspan y="779.97607" x="540.76343">Kennedy Town</tspan>
<tspan y="737.12793" x="781.29724">North</tspan>
<tspan y="746.86621" x="781.29724">Point</tspan>
<tspan y="740.04944" x="810.51166">Quarry</tspan>
<tspan y="749.7876" x="810.51166">Bay</tspan>
<tspan y="778.02838" x="822.19836">Tai</tspan>
<tspan y="787.76648" x="822.19836">Koo</tspan>
<tspan y="774.13312" x="852.38678">Sai Wan Ho</tspan>
<tspan y="796.53113" x="852.38678">Shau</tspan>
<tspan y="806.26917" x="852.38678">Kei</tspan>
<tspan y="816.0072" x="852.38678">Wan</tspan>
<tspan y="793.60962" x="904.97321">Heng Fa Chuen</tspan>
<tspan y="831.58813" x="900.10406">Chai Wan</tspan>
<tspan y="849.11694" x="11.004766"/>
</text>
<text font-size="9.73821259px" y="15.228936" x="6.7620077" font-family="&apos;DejaVu Sans Condensed, Arial&apos;">
<tspan y="853.68878" x="12.604934">Ngong Ping</tspan>
</text>
<g font-size="12.14592075px" font-family="&apos;DejaVu Sans Condensed, Arial&apos;" transform="matrix(0.8017682,0,0,0.8017682,-4.4198762,2.2398013)">
<text y="5.0055723" x="8.5459061">
<tspan y="823.64087" x="913.41656">Mong</tspan>
</text>
<text y="15.354674" x="-0.86236858">
<tspan y="833.98993" x="904.0083">Kok East</tspan>
<tspan y="893.50488" x="931.94391"/>
<tspan y="893.50488" x="931.94391"/>
</text>
</g>
<circle stroke-width="1" cx="0" cy="0" transform="matrix(0.9754715,0,0,0.9754715,723.755,658.83634)" stroke="#000" r="3" fill="#FFF"/>
<text font-size="9.73821259px" y="49.881798" x="62.918156" font-family="&apos;DejaVu Sans Condensed, Arial&apos;">
<tspan y="716.94928" x="777.70166">Whampoa</tspan>
</text>
<text font-size="9.73821259px" y="32.877224" x="42.142223" font-family="&apos;DejaVu Sans Condensed, Arial&apos;">
<tspan y="699.94495" x="756.92615">Ho Man Tin</tspan>
</text>
<text font-size="9.73821259px" y="20.265615" x="52.118118" font-family="&apos;DejaVu Sans Condensed, Arial&apos;">
<tspan y="687.33362" x="766.90186">Ma Tau Wai</tspan>
</text>
<text font-size="9.73821259px" y="6.2854395" x="52.536667" font-family="&apos;DejaVu Sans Condensed, Arial&apos;">
<tspan y="673.3537" x="767.32037">To Kwa Wan</tspan>
</text>
<text font-size="9.73821259px" y="-6.6532927" x="72.689644" font-family="&apos;DejaVu Sans Condensed, Arial&apos;">
<tspan y="660.41522" x="787.47278">Kai Tak</tspan>
</text>
<text font-size="9.73821259px" transform="matrix(0.9241118,-0.3821221,0.3821221,0.9241118,0,0)" y="322.61957" x="-339.83597" font-family="&apos;DejaVu Sans Condensed, Arial&apos;">
<tspan y="989.68652" x="374.94708">Exhibition</tspan>
</text>
<text transform="matrix(0.866019,0.500011,-0.500011,0.866019,0,0)" class="rot" font-size="9.25688934px" y="327.05859" x="1021.6867" font-family="&apos;DejaVu Sans Condensed, Arial&apos;">Wan Chai</text>
<text transform="matrix(0.866019,0.500011,-0.500011,0.866019,0,0)" class="rot" font-size="9.25688934px" y="313.42093" x="1041.6045" font-family="&apos;DejaVu Sans Condensed, Arial&apos;">Causeway Bay</text>
<text transform="matrix(0.866019,0.500011,-0.500011,0.866019,0,0)" class="rot" font-size="9.25688934px" y="295.88062" x="1057.983" font-family="&apos;DejaVu Sans Condensed, Arial&apos;">Tin Hau</text>
<text transform="matrix(0.866019,0.500011,-0.500011,0.866019,0,0)" class="rot" font-size="9.25688934px" y="281.68326" x="1052.1412" font-family="&apos;DejaVu Sans Condensed, Arial&apos;">Fortress Hill</text>
<text transform="matrix(0.866019,0.500011,-0.500011,0.866019,0,0)" class="rot" font-size="9.25688934px" y="352.03287" x="854.38879" font-family="&apos;DejaVu Sans Condensed, Arial&apos;">University (HKU)</text>
<text transform="matrix(0.866019,0.500011,-0.500011,0.866019,0,0)" class="rot" font-size="9.25688934px" y="338.73239" x="880.21991" font-family="&apos;DejaVu Sans Condensed, Arial&apos;">Sai Ying Pun</text>
<text transform="matrix(0.866019,0.500011,-0.500011,0.866019,0,0)" class="rot" font-size="9.25688934px" y="328.48926" x="892.08325" font-family="&apos;DejaVu Sans Condensed, Arial&apos;">Sheung Wan</text>
<text transform="matrix(0.866019,0.500011,-0.500011,0.866019,0,0)" class="rot" font-size="9.25688934px" y="264.93277" x="935.79938" font-family="&apos;DejaVu Sans Condensed, Arial&apos;">Austin</text>
<text transform="matrix(0.9617558,-0.2739085,0.2739085,0.9617558,0,0)" class="rot" font-size="9.25688839px" y="940.40826" x="406.84531" font-family="&apos;DejaVu Sans Condensed, Arial&apos;">Central</text>
<path d="m626.39,773.01c-19.136,2.586,2.6162,46.313,13.822,65.676,4.8684,8.4122,13.031,15.124,21.748,19.422,7.9504,3.9198,18.552,0.34603,26.128,4.9478,7.5221,4.569,5.3983,21.582,16.318,20.757" stroke-dashoffset="0.58110631" stroke="#acf400" stroke-miterlimit="4" stroke-dasharray="none" stroke-width="2.90523434" fill="none"/>
<circle stroke-width="1" cx="0" cy="0" transform="matrix(0.968543,0,0,0.968543,640.89374,839.42756)" stroke="#808080" r="3" fill="#FFF"/>
<rect rx="3.3899" transform="matrix(0.99962,2.756371e-2,-2.756371e-2,0.99962,0,0)" height="9.6854" width="5.8113" stroke="#000" y="748.38" x="646.25" stroke-width="0.96854" fill="#FFF"/>
<path d="m693.34,790.98c25.343-2.586,26.702,56.562,20.427,85.028-0.97879,4.44-4.4877,8.4944-8.4672,10.693-8.322,4.5985-18.876,2.3582-28.356,3.0908-13.488,0.0861-18.552,7.785-20.279-7.1122" stroke-dashoffset="0.5811063" stroke="#ff5151" stroke-miterlimit="4" stroke-dasharray="none" stroke-width="2.90553164" fill="none"/>
<circle stroke-width="1" cx="0" cy="0" transform="matrix(0.968543,0,0,0.968543,663.02003,859.22477)" stroke="#808080" r="3" fill="#FFF"/>
<circle stroke-width="1" cx="0" cy="0" transform="matrix(0.968543,0,0,0.968543,678.15907,890.66745)" stroke="#000" r="3" fill="#FFF"/>
<circle stroke-width="1" cx="0" cy="0" transform="matrix(0.968543,0,0,0.968543,656.63646,883.64567)" stroke="#000" r="3" fill="#FFF"/>
<rect rx="3.3899" transform="matrix(0.99962,2.756371e-2,-2.756371e-2,0.99962,0,0)" height="9.6854" width="5.8113" stroke="#000" y="861.86" x="725.54" stroke-width="0.96854" fill="#FFF"/>
<circle stroke-width="1" cx="0" cy="0" transform="matrix(0.968543,0,0,0.968543,713.35667,874.86673)" stroke="#000" r="3" fill="#FFF"/>
<rect stroke-linejoin="miter" transform="matrix(0.9823588,0.1870058,-0.1870058,0.9823588,0,0)" fill-rule="evenodd" ry="2.8619" height="11.854" width="5.7069" stroke="#000" stroke-linecap="butt" y="637.7" x="826.11" stroke-width="1.0489px" fill="#FFF"/>
<text transform="matrix(0.8741159,-0.4857174,0.4857174,0.8741159,0,0)" class="rot" font-size="9.25688744px" y="1031.9703" x="179.99121" font-family="&apos;DejaVu Sans Condensed, Arial&apos;">Admiralty</text>
<rect rx="3.4142" transform="matrix(9.6621951e-2,-0.9953212,0.9953212,9.6621951e-2,0,0)" height="9.7547" width="5.8528" stroke="#000" y="803.74" x="-638.42" stroke-width="0.97547" fill="#FFF"/>
<text font-size="9.73821259px" y="-42.776352" x="-57.301163" font-family="&apos;DejaVu Sans Condensed, Arial&apos;">
<tspan y="541.51648" x="731.49377">Hin Kung</tspan>
</text>
<text font-size="9.73821259px" y="293.65576" x="-69.952797" font-family="&apos;DejaVu Sans Condensed, Arial&apos;">
<tspan y="877.94867" x="718.84216">Ocean Park</tspan>
</text>
<text font-size="9.73821259px" y="315.59866" x="-87.507111" font-family="&apos;DejaVu Sans Condensed, Arial&apos;">
<tspan y="899.89111" x="701.28821">Wong Chuk Hang</tspan>
</text>
<text font-size="9.73821259px" transform="matrix(0.8683969,0.4958698,-0.4958698,0.8683969,0,0)" y="-135.36734" x="240.41096" font-family="&apos;DejaVu Sans Condensed, Arial&apos;">
<tspan y="448.92572" x="1029.2092">Lei Tung</tspan>
</text>
<text transform="matrix(0.9999821,-5.9871736e-3,5.9871736e-3,0.9999821,0,0)" font-size="9.73821259px" y="297.00781" x="-197.94188" font-family="&apos;DejaVu Sans Condensed, Arial&apos;">
<tspan y="881.30133" x="590.85681">South Horizons</tspan>
</text>
<text font-size="9.73821259px" transform="matrix(0.9999821,-5.9871661e-3,5.9871661e-3,0.9999821,0,0)" y="262.02356" x="-202.55542" font-family="&apos;DejaVu Sans Condensed, Arial&apos;" fill="#808080">
<tspan y="846.31848" x="586.24414" fill="#808080">Cyberport</tspan>
</text>
<text transform="matrix(0.9999821,-5.9871624e-3,5.9871624e-3,0.9999821,0,0)" font-size="9.73821259px" y="282.66959" x="-174.88428" font-family="&apos;DejaVu Sans Condensed, Arial&apos;" fill="#808080">
<tspan y="866.96509" x="613.91583" fill="#808080">Wah Fu</tspan>
</text>
<text font-size="9.73821259px" y="-191.27283" x="-179.339" font-family="&apos;DejaVu Sans Condensed, Arial&apos;" fill="#808080">
<tspan y="127.16656" x="480.91547" fill="#808080">Chau Tau</tspan>
</text>
<circle stroke-width="1" cx="0" cy="0" transform="matrix(0.9754715,0,0,0.9754715,384.42138,314.89129)" stroke="#808080" r="3" fill="#FFF"/>
<text font-size="9.73821259px" y="-4.874918" x="-271.19247" font-family="&apos;DejaVu Sans Condensed, Arial&apos;" fill="#808080">
<tspan y="313.56458" x="389.06198" fill="#808080">Au Tau</tspan>
</text>
<circle stroke-width="1" cx="0" cy="0" transform="matrix(0.9754715,0,0,0.9754715,431.08582,244.1265)" stroke="#808080" r="3" fill="#FFF"/>
<text font-size="9.73821259px" y="-73.371887" x="-223.77243" font-family="&apos;DejaVu Sans Condensed, Arial&apos;" fill="#808080">
<tspan y="245.0675" x="436.48203" fill="#808080">Ngau Tam Mei</tspan>
</text>
<circle stroke-width="1" cx="0" cy="0" transform="matrix(0.9754715,0,0,0.9754715,435.44398,167.55334)" stroke="#808080" r="3" fill="#FFF"/>
<text font-size="9.73821259px" y="-137.44363" x="-216.73952" font-family="&apos;DejaVu Sans Condensed, Arial&apos;" fill="#808080">
<tspan y="180.99576" x="443.51489" fill="#808080">San Tin</tspan>
</text>
<circle stroke-width="1" cx="0" cy="0" transform="matrix(0.9754715,0,0,0.9754715,790.2116,352.98386)" stroke="#808080" r="3" fill="#FFF"/>
<text font-size="9.73821259px" y="34.662708" x="133.97264" font-family="&apos;DejaVu Sans Condensed, Arial&apos;" fill="#808080">
<tspan y="353.10236" x="794.22137" fill="#808080">Pak Shek Kok</tspan>
</text>
<circle stroke-width="1" cx="0" cy="0" transform="matrix(0.968543,0,0,0.968543,687.88859,863.61334)" stroke="#808080" r="3" fill="#FFF"/>
<text font-size="9.73821259px" transform="matrix(0.9999821,-5.9871568e-3,5.9871568e-3,0.9999821,0,0)" y="277.487" x="-124.49004" font-family="&apos;DejaVu Sans Condensed, Arial&apos;" fill="#808080">
<tspan y="861.78363" x="664.31067" fill="#808080">Aberdeen</tspan>
</text>
<circle stroke-width="1" cx="0" cy="0" transform="matrix(0.9754715,0,0,0.9754715,698.11477,769.00746)" stroke="#808080" r="3" fill="#FFF"/>
<text font-size="9.73821259px" transform="matrix(0.9167117,-0.3995493,0.3995493,0.9167117,0,0)" y="316.35092" x="-376.26828" font-family="&apos;DejaVu Sans Condensed, Arial&apos;" fill="#808080">
<tspan y="983.41833" x="338.5155" fill="#808080">Tamar</tspan>
</text>
<text font-size="9.75471497px" y="28.586716" x="-5.084455" font-family="&apos;DejaVu Sans Condensed, Arial&apos;">
<tspan y="948.45575" x="4.6702576"/>
</text>
<circle stroke-width="1" transform="matrix(0.9754715,0,0,0.9754715,236.77776,353.88417)" stroke="#808080" cy="0" cx="0" r="3" fill="#FFF"/>
<text font-size="9.73821259px" y="38.983749" x="-418.3053" font-family="&apos;DejaVu Sans Condensed, Arial&apos;" fill="#808080">
<tspan y="357.42328" x="241.94914" fill="#808080">Hung Shui Kiu</tspan>
</text>
<rect rx="3.4142" transform="matrix(0.1740645,-0.9847343,0.9847343,0.1740645,0,0)" height="9.7547" width="5.8528" stroke="#000" y="882.12" x="-619.99" stroke-width="0.97547" fill="#FFF"/>
<text font-size="9.73821259px" transform="matrix(0.9686146,-0.2485676,0.2485676,0.9686146,0,0)" y="167.686" x="-193.43492" font-family="&apos;DejaVu Sans Condensed, Arial&apos;">
<tspan y="847.4137" x="524.27136">Yau Ma Tei</tspan>
<tspan y="861.04718" x="521.34985"/>
</text>
<text font-weight="normal" xml:space="preserve" transform="matrix(0.73142857,0,0,0.73142857,0,-0.42857143)" font-style="normal" font-size="40px" y="404" x="495" font-family="Bitstream Vera Sans" fill="#000000"><tspan x="495" y="404"/></text>
<text font-size="9.73821259px" y="38.326401" x="-325.84448" font-family="&apos;DejaVu Sans Condensed, Arial&apos;">
<tspan y="325.60367" x="321.74637">Yuen Long</tspan>
</text>
</svg>
