<!-- Created with Inkscape (http://www.inkscape.org/) -->
<svg xmlns:rdf="http://www.w3.org/1999/02/22-rdf-syntax-ns#" xmlns="http://www.w3.org/2000/svg" xml:space="preserve" height="718" width="879" version="1.1" xmlns:cc="http://creativecommons.org/ns#" xmlns:dc="http://purl.org/dc/elements/1.1/"><metadata><rdf:RDF><cc:Work rdf:about=""><dc:format>image/svg+xml</dc:format><dc:type rdf:resource="http://purl.org/dc/dcmitype/StillImage"/><dc:title/></cc:Work></rdf:RDF></metadata><g transform="matrix(1.25,0,0,-1.25,-163.31022,731.57963)"><path d="m809,11,0,36.4c0,1.34,1.1,2.43,2.46,2.43,0.908,0,1.7-0.487,2.13-1.21l18.7-26.7v-10.9h-23.3zm-635,544-10.3,0,0-18.3-33.6-73.9c-0.594-0.807,3.35-0.824,3.96-1.69l41.6-92.6c0.425-0.726,1.22-1.22,2.13-1.22h69.8l33-51.7v0.001c0.199-0.313,0.473-0.585,0.815-0.788,0.866-0.511,1.92-0.433,2.69,0.114h107l11-17.2c0.412-0.77,1.23-1.29,2.17-1.29h4.7l24.1-37.7v-92.4c0-0.869,0.462-1.63,1.16-2.06,3.39-5.25,12.9-19.5,18.1-27.4l2.6-3.89c0.261-0.387,0.515-0.734,0.767-1.04,0.273-0.656,0.828-1.17,1.52-1.39,0.588-0.332,1.15-0.383,1.68-0.117h83.3v0.007c0.813,0.001,1.61,0.4,2.07,1.13,0.631,0.988,1.79,2.59,3.15,4.48,3.52,4.88,8.32,11.5,9.89,15.9h14c1.36,0,2.46,1.09,2.46,2.43v0.175l18.2,28.5,33.1-51.8c0.19-0.31,0.455-0.583,0.787-0.789,1.14-0.713,2.66-0.373,3.38,0.758l7.64,12c0.509,0.767,0.552,1.79,0.024,2.62l-24.4,38.2,10.5,16.4,10.4-16.2c0.19-0.311,0.456-0.583,0.788-0.79,1.14-0.711,2.66-0.373,3.38,0.758l13.3,20.8,43.3-67.7,0.001,0.001c0.134-0.209,0.303-0.403,0.507-0.571,0.81-0.665,1.93-0.726,2.79-0.234h134v0.002c0.162,0.001,0.322,0.017,0.48,0.048v410h-236v-93.5h-19.2v35.3h-0.007c0,0.441-0.122,0.888-0.377,1.29l-46.4,72.5c1.16,1.71,2.53,3.56,3.98,5.53,0.034,0.04,0.067,0.082,0.099,0.125,3.91,5.28,8.4,11.4,11,17h-263l0.119-30.1h-43.9l8.02-12.5h-72.1v12.5zm164-275-63.4-99.2-28.6,0,0-0.004c-0.819-0.001-1.62-0.406-2.08-1.14l-52.6-83.4,0.003-0.002c-0.499-0.793-0.507-1.84,0.064-2.65l58.3-83.1h24.7l42.6,64.9c0.318,0.408,0.507,0.92,0.507,1.48v29.2h22c1.36,0,2.46,1.09,2.46,2.43v81.2c0.269,0.181,0.506,0.419,0.691,0.709l11,17.2h19.3c1.36,0,2.46,1.09,2.46,2.43v18.6h-0.007c0,0.442-0.122,0.888-0.376,1.29l-32.2,50.3c-0.65,1.09-2.06,1.51-3.21,0.929l-0.796-0.399h0.001c-0.385-0.191-0.724-0.486-0.971-0.872m-28.7-12.7c0.207-0.11,0.402-0.25,0.577-0.423,0.084-0.083,0.161-0.171,0.229-0.263,0.127-0.137,0.252-0.286,0.375-0.448,0.195-0.255,0.522-0.705,0.932-1.28,1.72-2.4,4.53-6.49,4.88-7.03,0.529-0.83,0.484-1.86-0.03-2.62l-43.6-68.2-51.7-0.02c-1.36,0-2.46,1.09-2.46,2.43v0.398c0,0.544,0.181,1.04,0.487,1.45l48,75.2c0.466,0.729,1.26,1.13,2.07,1.13v0.007h38.5c0.566,0.143,1.11,0.038,1.64-0.287m46.7,40.6c0.668,1.04,1.18,2.17,2.44,2.17h13.3c0.98,0,1.83-0.568,2.22-1.39l0.406-0.683c0.229-0.384,0.337-0.806,0.337-1.22h0.008v-21.9c0-0.543-0.18-1.04-0.485-1.45l-5.09-7.96c-0.721-1.13-2.23-1.47-3.38-0.758l-0.031,0.02h-6.34c-0.753-0.319-1.65-0.258-2.37,0.237-0.328,0.224-0.582,0.514-0.759,0.838l-9.6,15.1c-0.52,0.816-0.486,1.82,0.005,2.58l-0.005,0.003,9.34,14.5zm13.3-297,0,43.9c-0.373,0.794-0.272,1.69,0.192,2.37l35.7,55.9c0.65,1.02,1.94,1.4,3.03,0.94h57.6c0.943,0,1.76-0.526,2.18-1.3l12.4-19.3h137l5.07,7.92c0.466,0.73,1.26,1.13,2.07,1.13v0.007h107c0.944,0,1.76-0.526,2.18-1.3,12.3-19.4,25.9-40.4,39.4-61.4,6.05-9.41,12.1-18.8,18.5-28.8h-422z" fill-rule="nonzero" fill="#e9e9e9"/><g transform="translate(364.0166,544.6509)"><path stroke-linejoin="miter" d="m0,0,156,0c3.28,0,5.41-1.26,6.89-3.32l11.5-16c1.53-2.14,2.42-4.86,2.42-7.48v-371" stroke="#758ed0" stroke-linecap="butt" stroke-miterlimit="2.61299992" stroke-dasharray="none" stroke-width="3.40199995" fill="none"/></g><g transform="translate(401.7061,544.6509)"><path stroke-linejoin="miter" d="m0,0-14.2-24.3c-2.06-3.52-5.56-4.98-8.34-4.98h-38.5" stroke="#758ed0" stroke-linecap="butt" stroke-miterlimit="2.61299992" stroke-dasharray="none" stroke-width="3.40199995" fill="none"/></g><g transform="translate(541.1006,439.9023)"><path stroke-linejoin="miter" d="M0,0c11.9,0.107,21.5,9.66,21.5,21.4,0,11.8-9.6,21.3-21.5,21.4v-42.8z" stroke="#758ed0" stroke-linecap="butt" stroke-miterlimit="2.61299992" stroke-dasharray="none" stroke-width="3.40199995" fill="none"/></g><g transform="translate(207.2764,399.6582)"><path stroke-linejoin="miter" d="m0,0,0,104c0,11.8,3.59,15.4,9.7,15.4h12.2c6.11,0,9.7-4.1,9.7-15.4v-89c0-5.16,0.823-6.06,2.54-8.45l15.3-21.3c2.5-3.48,4.47-6.46,9.28-6.46h40.1,112c5.66,0,8.4-4.48,8.4-8.3v-45.9c0-6.56,1.34-7.93,4.69-12.7l34.7-49c2.12-3,4.27-6.36,4.27-10.2v-45.5l44.3-60.2h25.5" stroke="#a6157a" stroke-linecap="butt" stroke-miterlimit="2.61299992" stroke-dasharray="none" stroke-width="3.40199995" fill="none"/></g><g transform="translate(277.4238,339.6094)"><path stroke-linejoin="miter" d="m0,0,195,0,24.7-32.1c1.31-1.7,2.54-2.87,2.54-6.62v-161c0-3.58-1.06-7.33-3.06-10.3l-31.5-46.9c-2.1-3.12-6.42-6.47-10.2-6.47h-26.9" stroke="#ee2635" stroke-linecap="butt" stroke-miterlimit="2.61299992" stroke-dasharray="none" stroke-width="3.40199995" fill="none"/></g><g transform="translate(291.6992,200.1787)"><path stroke-linejoin="miter" d="m0,0,81.2,127c1.62,2.54,4.51,5.04,7.55,5.04h23.5c2.4,0,4.85-1.63,6.24-3.56l39.2-54.3c1.85-2.56,3.39-5.68,3.39-8.82v-69.8c0-3.86,0.202-8.23-2.01-11.4l-16.2-23.3c-2.11-3.04-4.67-6.36-4.67-10v-56.8" stroke="#f2531b" stroke-linecap="butt" stroke-miterlimit="2.61299992" stroke-dasharray="none" stroke-width="3.40199995" fill="none"/></g><g transform="translate(423.3516,93.9639)"><path stroke-linejoin="miter" d="m0,0,0,61.6c0,3.68,2.56,7,4.67,10l16.2,23.3c2.21,3.18,2.01,7.56,2.01,11.4v59.4c0,3.14-1.55,6.26-3.39,8.82l-36.6,50.9c-1.39,1.93-3.84,4.36-6.24,4.36h-17.9c-3.04,0-5.92-3.31-7.55-5.84l-28-43.5c-5.94-9.23-19.7-3.1-23.9-10.2l-25.6-37.3c-1.76-2.56-4.01-6.06-7.14-6.02l-7.81,0.124c-3.14,0.048-5.65,4.33-5.65,7.43v25.8c0,3.32,2.39,8.18,5.75,8.18h17" stroke="#2c8081" stroke-linecap="butt" stroke-miterlimit="2.61299992" stroke-dasharray="none" stroke-width="3.40199995" fill="none"/></g><g transform="translate(327.0293,247.0928)"><path stroke-linejoin="miter" d="m0,0,3.29,5.26c3.27,5.6,8.66,2.7,11.8-1.58l20.2-27.4" stroke="#f57ec5" stroke-linecap="butt" stroke-miterlimit="2.61299992" stroke-dasharray="none" stroke-width="3.40199995" fill="none"/></g><g transform="translate(788.3447,502.9443)"><path stroke-linejoin="miter" d="m0,0-162,0c-5.29,0-9.5-5.97-9.5-10.7v-53.6c0-3.17,0.333-6.83-1.57-9.38l-9.12-12.3c-2.69-3.61-6.77-7.49-11.3-7.49h-42.7c-3.26,0-4.61-2.11-4.61-5.34v-10.4" stroke="#873b1b" stroke-linecap="butt" stroke-miterlimit="2.61299992" stroke-dasharray="none" stroke-width="3.40199995" fill="none"/></g><g transform="translate(507.7012,216.4033)"><path stroke-linejoin="miter" d="m0,0,0,84.8c0,5.22,1.12,7.88,4,12.2l18.5,28.2c2.2,3.35,6.86,5.22,10.9,5.22h162l12.6-17.7c2.13-3,2.02-4.83,2.02-8.49v-125c0-5.17,4.02-8.12,9.26-8.12h36.4" stroke="#26813a" stroke-linecap="butt" stroke-miterlimit="2.61299992" stroke-dasharray="none" stroke-width="3.40199995" fill="none"/></g><g transform="translate(814.4229,155.542)"><path stroke-linejoin="miter" d="m0,0,0,42.8c0,7.2-4.43,13.6-12.7,13.6h-13.2" stroke="#4d2783" stroke-linecap="butt" stroke-miterlimit="2.61299992" stroke-dasharray="none" stroke-width="3.40199995" fill="none"/></g><g transform="translate(788.4873,292.3447)"><path stroke-linejoin="miter" d="m0,0,0-103c0-4.4-1.44-7.72-5.9-7.72h-48c-4.31,0-6.39-0.648-8.85-4.14l-64.6-91.8c-2.34-3.33-6.57-6.07-10.7-6.07h-36.9" stroke="#4d2783" stroke-linecap="butt" stroke-miterlimit="2.61299992" stroke-dasharray="none" stroke-width="3.40199995" fill="none"/></g><g transform="translate(395.1147,69.3652)"><path stroke-linejoin="miter" d="m0,0,332,0,37.1-52.2" stroke="#3b4ba7" stroke-linecap="butt" stroke-miterlimit="2.61299992" stroke-dasharray="none" stroke-width="3.40199995" fill="none"/></g><g transform="translate(388.9219,332.3135)"><path fill-rule="evenodd" fill="#231f20" d="m0,0,0,7.4c0,3.36,2.79,6.12,6.2,6.12s6.2-2.75,6.2-6.12v-7.38c0-3.36-2.8-6.12-6.2-6.12-3.41,0-6.2,2.76-6.2,6.12"/></g><g transform="translate(390.3394,332.8545)"><path fill-rule="evenodd" fill="#FFF" d="m0,0,0,6.32c0,2.92,2.15,5.31,4.78,5.31s4.78-2.39,4.78-5.31v-6.29c0-2.92-2.15-5.31-4.78-5.31s-4.78,2.39-4.78,5.31"/></g><g transform="translate(364.0469,538.5234)"><path fill-rule="nonzero" fill="#231f20" d="m0,0c-1.67,0-3.19,0.628-4.4,1.82-1.2,1.19-1.84,2.69-1.84,4.34,0,1.63,0.654,3.17,1.84,4.34,1.24,1.15,2.76,1.76,4.4,1.76s3.15-0.602,4.38-1.74c1.18-1.25,1.79-2.75,1.79-4.44,0-1.72-0.59-3.18-1.77-4.34-1.21-1.19-2.73-1.82-4.4-1.82"/></g><g transform="translate(364.0469,549.3013)"><path fill-rule="nonzero" fill="#FFF" d="m0,0c-1.27,0-2.4-0.45-3.35-1.34-0.887-0.877-1.39-2.05-1.39-3.28,0-1.27,0.47-2.38,1.4-3.3,0.93-0.91,2.06-1.38,3.34-1.38s2.41,0.466,3.34,1.38c0.891,0.88,1.34,1.99,1.34,3.3,0,1.29-0.464,2.43-1.34,3.3-0.94,0.87-2.07,1.32-3.34,1.32"/></g><g transform="translate(340.6816,509.0337)"><path fill-rule="nonzero" fill="#231f20" d="m0,0c-1.67,0-3.19,0.629-4.4,1.82-1.2,1.19-1.84,2.69-1.84,4.34,0,1.63,0.654,3.17,1.84,4.34,1.24,1.16,2.76,1.76,4.4,1.76s3.16-0.601,4.38-1.74c1.18-1.25,1.79-2.75,1.79-4.44,0-1.72-0.59-3.18-1.77-4.34-1.21-1.19-2.73-1.82-4.4-1.82"/></g><g transform="translate(340.6816,519.8115)"><path fill-rule="nonzero" fill="#FFF" d="m0,0c-1.27,0-2.4-0.45-3.35-1.34-0.888-0.878-1.39-2.05-1.39-3.28,0-1.27,0.471-2.38,1.4-3.3,0.94-0.91,2.06-1.38,3.34-1.38s2.41,0.466,3.34,1.38c0.891,0.879,1.34,1.99,1.34,3.3,0,1.29-0.464,2.43-1.34,3.3-0.94,0.87-2.07,1.32-3.34,1.32"/></g><g transform="translate(401.7368,538.5234)"><path fill-rule="nonzero" fill="#231f20" d="m0,0c-1.67,0-3.19,0.628-4.4,1.82-1.2,1.19-1.84,2.69-1.84,4.34,0,1.63,0.654,3.17,1.84,4.34,1.24,1.15,2.76,1.76,4.4,1.76s3.16-0.602,4.38-1.74c1.18-1.25,1.79-2.75,1.79-4.44,0-1.72-0.59-3.18-1.77-4.34-1.21-1.19-2.73-1.82-4.4-1.82"/></g><g transform="translate(401.7368,549.3013)"><path fill-rule="nonzero" fill="#FFF" d="m0,0c-1.27,0-2.4-0.45-3.35-1.34-0.887-0.877-1.39-2.05-1.39-3.28,0-1.27,0.47-2.38,1.4-3.3,0.93-0.91,2.06-1.38,3.34-1.38s2.41,0.466,3.34,1.38c0.89,0.88,1.34,1.99,1.34,3.3,0,1.29-0.464,2.43-1.34,3.3-0.94,0.87-2.07,1.32-3.34,1.32"/></g><g transform="translate(442.8379,538.5234)"><path fill-rule="nonzero" fill="#231f20" d="m0,0c-1.67,0-3.19,0.628-4.4,1.82s-1.84,2.69-1.84,4.34c0,1.63,0.653,3.17,1.84,4.34,1.24,1.15,2.76,1.76,4.4,1.76s3.15-0.602,4.38-1.74c1.18-1.25,1.79-2.75,1.79-4.44,0-1.72-0.59-3.18-1.77-4.34-1.21-1.19-2.73-1.82-4.4-1.82"/></g><g transform="translate(442.8379,549.3013)"><path fill-rule="nonzero" fill="#FFF" d="m0,0c-1.27,0-2.4-0.45-3.35-1.34-0.888-0.877-1.39-2.05-1.39-3.28,0-1.27,0.469-2.38,1.4-3.3,0.93-0.91,2.06-1.38,3.34-1.38s2.41,0.466,3.34,1.38c0.89,0.88,1.34,1.99,1.34,3.3,0,1.29-0.463,2.43-1.34,3.3-0.94,0.87-2.07,1.32-3.34,1.32"/></g><g transform="translate(477.6309,538.5234)"><path fill-rule="nonzero" fill="#231f20" d="m0,0c-1.67,0-3.19,0.628-4.4,1.82-1.2,1.19-1.84,2.69-1.84,4.34,0,1.63,0.653,3.17,1.84,4.34,1.24,1.15,2.76,1.76,4.4,1.76s3.15-0.602,4.38-1.74c1.18-1.25,1.79-2.75,1.79-4.44,0-1.72-0.59-3.18-1.77-4.34-1.21-1.19-2.73-1.82-4.4-1.82"/></g><g transform="translate(477.6309,549.3013)"><path fill-rule="nonzero" fill="#FFF" d="m0,0c-1.27,0-2.4-0.45-3.35-1.34-0.887-0.877-1.39-2.05-1.39-3.28,0-1.27,0.47-2.38,1.4-3.3,0.94-0.91,2.06-1.38,3.34-1.38s2.41,0.466,3.34,1.38c0.89,0.88,1.34,1.99,1.34,3.3,0,1.29-0.464,2.43-1.34,3.3-0.94,0.87-2.07,1.32-3.34,1.32"/></g><g transform="translate(511.7441,538.5234)"><path fill-rule="nonzero" fill="#231f20" d="m0,0c-1.67,0-3.19,0.628-4.4,1.82-1.2,1.19-1.84,2.69-1.84,4.34,0,1.63,0.654,3.17,1.84,4.34,1.24,1.15,2.76,1.76,4.4,1.76s3.15-0.602,4.38-1.74c1.18-1.25,1.79-2.75,1.79-4.44,0-1.72-0.59-3.18-1.77-4.34-1.21-1.19-2.73-1.82-4.4-1.82"/></g><g transform="translate(511.7441,549.3013)"><path fill-rule="nonzero" fill="#FFF" d="m0,0c-1.27,0-2.4-0.45-3.35-1.34-0.887-0.877-1.38-2.05-1.38-3.28,0-1.27,0.469-2.38,1.4-3.3,0.93-0.91,2.05-1.38,3.33-1.38s2.41,0.466,3.34,1.38c0.89,0.88,1.34,1.99,1.34,3.3,0,1.29-0.464,2.43-1.34,3.3-0.94,0.87-2.07,1.32-3.34,1.32"/></g><g transform="translate(541.4893,499.6475)"><path fill-rule="nonzero" fill="#231f20" d="m0,0c-1.67,0-3.19,0.628-4.4,1.82-1.2,1.19-1.84,2.69-1.84,4.34,0,1.63,0.653,3.17,1.84,4.34,1.24,1.15,2.76,1.76,4.4,1.76s3.16-0.602,4.38-1.74c1.18-1.25,1.79-2.75,1.79-4.44,0-1.72-0.59-3.18-1.77-4.34-1.21-1.19-2.73-1.82-4.4-1.82"/></g><g transform="translate(541.4893,510.4253)"><path fill-rule="nonzero" fill="#FFF" d="m0,0c-1.27,0-2.4-0.451-3.35-1.34-0.887-0.877-1.39-2.05-1.39-3.28,0-1.27,0.469-2.38,1.4-3.3,0.932-0.917,2.05-1.38,3.34-1.38,1.28,0,2.41,0.467,3.34,1.38,0.89,0.88,1.34,1.99,1.34,3.3,0,1.29-0.464,2.43-1.34,3.3-0.94,0.869-2.07,1.32-3.34,1.32"/></g><g transform="translate(540.9297,455.5752)"><path fill-rule="nonzero" fill="#231f20" d="m0,0c-1.67,0-3.19,0.628-4.4,1.82-1.2,1.19-1.84,2.69-1.84,4.34,0,1.63,0.654,3.17,1.84,4.34,1.24,1.16,2.76,1.76,4.4,1.76s3.15-0.601,4.38-1.74c1.18-1.25,1.79-2.75,1.79-4.44,0-1.72-0.59-3.18-1.77-4.34-1.21-1.19-2.73-1.82-4.4-1.82"/></g><g transform="translate(540.9297,466.3525)"><path fill-rule="nonzero" fill="#FFF" d="m0,0c-1.27,0-2.4-0.45-3.35-1.34-0.887-0.877-1.39-2.05-1.39-3.28,0-1.27,0.47-2.38,1.4-3.3,0.932-0.917,2.05-1.38,3.34-1.38,1.28,0,2.41,0.467,3.34,1.38,0.891,0.88,1.34,1.99,1.34,3.3,0,1.29-0.464,2.43-1.34,3.3-0.94,0.87-2.07,1.32-3.34,1.32"/></g><g transform="translate(562.8125,455.5752)"><path fill-rule="nonzero" fill="#231f20" d="m0,0c-1.67,0-3.19,0.628-4.4,1.82-1.2,1.19-1.84,2.69-1.84,4.34,0,1.63,0.653,3.17,1.84,4.34,1.24,1.16,2.76,1.76,4.4,1.76s3.16-0.601,4.38-1.74c1.18-1.25,1.79-2.75,1.79-4.44,0-1.72-0.59-3.18-1.77-4.34-1.21-1.19-2.73-1.82-4.4-1.82"/></g><g transform="translate(562.8125,466.3525)"><path fill-rule="nonzero" fill="#FFF" d="m0,0c-1.27,0-2.4-0.45-3.35-1.34-0.887-0.877-1.39-2.05-1.39-3.28,0-1.27,0.47-2.38,1.4-3.3,0.931-0.917,2.05-1.38,3.34-1.38,1.28,0,2.41,0.467,3.34,1.38,0.89,0.88,1.34,1.99,1.34,3.3,0,1.29-0.463,2.43-1.34,3.3-0.94,0.87-2.07,1.32-3.34,1.32"/></g><g transform="translate(616.3799,479.9746)"><path fill-rule="nonzero" fill="#231f20" d="m0,0c-1.67,0-3.19,0.628-4.4,1.82-1.2,1.19-1.84,2.69-1.84,4.34,0,1.63,0.654,3.17,1.84,4.34,1.24,1.15,2.76,1.76,4.4,1.76s3.15-0.602,4.38-1.74c1.18-1.25,1.79-2.75,1.79-4.44,0-1.72-0.59-3.18-1.77-4.34-1.21-1.19-2.73-1.82-4.4-1.82"/></g><g transform="translate(616.3799,490.752)"><path fill-rule="nonzero" fill="#FFF" d="m0,0c-1.27,0-2.4-0.45-3.35-1.34-0.887-0.877-1.39-2.05-1.39-3.28,0-1.27,0.47-2.38,1.4-3.3,0.94-0.91,2.06-1.38,3.34-1.38s2.41,0.466,3.34,1.38c0.891,0.879,1.34,1.99,1.34,3.3,0,1.29-0.464,2.43-1.34,3.3-0.94,0.87-2.07,1.32-3.34,1.32"/></g><g transform="translate(655.1904,496.8164)"><path fill-rule="nonzero" fill="#231f20" d="m0,0c-1.67,0-3.19,0.628-4.4,1.82s-1.84,2.69-1.84,4.34c0,1.63,0.653,3.17,1.84,4.34,1.24,1.16,2.76,1.76,4.4,1.76s3.16-0.601,4.38-1.74c1.18-1.25,1.8-2.75,1.8-4.44,0-1.72-0.6-3.18-1.78-4.34-1.21-1.19-2.73-1.82-4.4-1.82"/></g><g transform="translate(655.1904,507.5938)"><path fill-rule="nonzero" fill="#FFF" d="m0,0c-1.27,0-2.4-0.45-3.35-1.34-0.887-0.877-1.39-2.05-1.39-3.28,0-1.27,0.469-2.38,1.4-3.3,0.94-0.91,2.06-1.38,3.34-1.38s2.41,0.467,3.34,1.38c0.89,0.879,1.34,1.99,1.34,3.3,0,1.29-0.463,2.43-1.34,3.3-0.94,0.87-2.07,1.32-3.34,1.32"/></g><g transform="translate(698.208,496.8164)"><path fill-rule="nonzero" fill="#231f20" d="m0,0c-1.67,0-3.19,0.628-4.4,1.82-1.2,1.19-1.84,2.69-1.84,4.34,0,1.63,0.653,3.17,1.84,4.34,1.24,1.16,2.76,1.76,4.4,1.76s3.16-0.601,4.38-1.74c1.18-1.25,1.79-2.75,1.79-4.44,0-1.72-0.59-3.18-1.77-4.34-1.21-1.19-2.73-1.82-4.4-1.82"/></g><g transform="translate(698.208,507.5938)"><path fill-rule="nonzero" fill="#FFF" d="m0,0c-1.27,0-2.4-0.45-3.35-1.34-0.887-0.877-1.38-2.05-1.38-3.28,0-1.27,0.469-2.38,1.4-3.3,0.93-0.91,2.05-1.38,3.33-1.38s2.41,0.467,3.34,1.38c0.891,0.879,1.34,1.99,1.34,3.3,0,1.29-0.464,2.43-1.34,3.3-0.94,0.87-2.07,1.32-3.34,1.32"/></g><g transform="translate(743.0947,496.8164)"><path fill-rule="nonzero" fill="#231f20" d="m0,0c-1.67,0-3.19,0.628-4.4,1.82-1.2,1.19-1.84,2.69-1.84,4.34,0,1.63,0.654,3.17,1.84,4.34,1.24,1.16,2.76,1.76,4.4,1.76s3.15-0.601,4.38-1.74c1.18-1.25,1.79-2.75,1.79-4.44,0-1.72-0.59-3.18-1.77-4.34-1.21-1.19-2.73-1.82-4.4-1.82"/></g><g transform="translate(743.0947,507.5938)"><path fill-rule="nonzero" fill="#FFF" d="m0,0c-1.27,0-2.4-0.45-3.35-1.34-0.887-0.877-1.39-2.05-1.39-3.28,0-1.27,0.47-2.38,1.4-3.3,0.93-0.91,2.06-1.38,3.34-1.38s2.41,0.467,3.34,1.38c0.89,0.879,1.34,1.99,1.34,3.3,0,1.29-0.464,2.43-1.34,3.3-0.94,0.87-2.07,1.32-3.34,1.32"/></g><g transform="translate(788.377,496.8164)"><path fill-rule="nonzero" fill="#231f20" d="m0,0c-1.67,0-3.19,0.628-4.4,1.82-1.2,1.19-1.84,2.69-1.84,4.34,0,1.63,0.654,3.17,1.84,4.34,1.24,1.16,2.76,1.76,4.4,1.76s3.16-0.601,4.38-1.74c1.18-1.25,1.79-2.75,1.79-4.44,0-1.72-0.59-3.18-1.77-4.34-1.21-1.19-2.73-1.82-4.4-1.82"/></g><g transform="translate(788.377,507.5938)"><path fill-rule="nonzero" fill="#FFF" d="m0,0c-1.27,0-2.4-0.45-3.35-1.34-0.887-0.877-1.39-2.05-1.39-3.28,0-1.27,0.47-2.38,1.4-3.3,0.94-0.91,2.06-1.38,3.34-1.38s2.41,0.467,3.34,1.38c0.891,0.879,1.34,1.99,1.34,3.3,0,1.29-0.463,2.43-1.34,3.3-0.94,0.87-2.07,1.32-3.34,1.32"/></g><g transform="translate(616.4023,444.5923)"><path fill-rule="nonzero" fill="#231f20" d="m0,0c-1.67,0-3.19,0.628-4.4,1.82-1.2,1.19-1.84,2.69-1.84,4.34,0,1.63,0.653,3.17,1.84,4.34,1.24,1.16,2.76,1.76,4.4,1.76s3.15-0.601,4.38-1.74c1.18-1.25,1.79-2.75,1.79-4.44,0-1.72-0.59-3.18-1.77-4.34-1.21-1.19-2.73-1.82-4.4-1.82"/></g><g transform="translate(616.4023,455.3696)"><path fill-rule="nonzero" fill="#FFF" d="m0,0c-1.27,0-2.4-0.45-3.35-1.34-0.887-0.877-1.39-2.05-1.39-3.28,0-1.27,0.47-2.38,1.4-3.3,0.94-0.91,2.06-1.38,3.34-1.38s2.41,0.466,3.34,1.38c0.891,0.879,1.34,1.99,1.34,3.3,0,1.29-0.464,2.43-1.34,3.3-0.94,0.87-2.07,1.32-3.34,1.32"/></g><g transform="translate(540.9297,418.0972)"><path fill-rule="nonzero" fill="#231f20" d="m0,0c-1.67,0-3.19,0.628-4.4,1.82-1.2,1.19-1.84,2.69-1.84,4.34,0,1.63,0.654,3.17,1.84,4.34,1.24,1.16,2.76,1.76,4.4,1.76s3.15-0.601,4.38-1.74c1.18-1.25,1.79-2.75,1.79-4.44,0-1.72-0.59-3.18-1.77-4.34-1.21-1.19-2.73-1.82-4.4-1.82"/></g><g transform="translate(540.9297,428.875)"><path fill-rule="nonzero" fill="#FFF" d="m0,0c-1.27,0-2.4-0.451-3.35-1.34-0.887-0.878-1.39-2.05-1.39-3.28,0-1.27,0.47-2.38,1.4-3.3,0.931-0.917,2.05-1.38,3.34-1.38,1.28,0,2.41,0.467,3.34,1.38,0.891,0.879,1.34,1.99,1.34,3.3,0,1.29-0.464,2.43-1.34,3.3-0.94,0.869-2.07,1.32-3.34,1.32"/></g><g transform="translate(575.0439,403.5513)"><path fill-rule="nonzero" fill="#231f20" d="m0,0c-1.67,0-3.19,0.628-4.4,1.82-1.2,1.19-1.84,2.69-1.84,4.34,0,1.63,0.653,3.17,1.84,4.34,1.24,1.16,2.76,1.76,4.4,1.76s3.15-0.601,4.38-1.74c1.18-1.25,1.79-2.75,1.79-4.44,0-1.72-0.59-3.18-1.77-4.34-1.21-1.19-2.73-1.82-4.4-1.82"/></g><g transform="translate(575.0439,414.3296)"><path fill-rule="nonzero" fill="#FFF" d="m0,0c-1.27,0-2.4-0.451-3.35-1.34-0.887-0.877-1.39-2.05-1.39-3.28,0-1.27,0.47-2.38,1.4-3.3,0.931-0.917,2.05-1.38,3.34-1.38,1.28,0,2.41,0.467,3.34,1.38,0.891,0.879,1.34,1.99,1.34,3.3,0,1.29-0.464,2.43-1.34,3.3-0.94,0.869-2.07,1.32-3.34,1.32"/></g><g transform="translate(605.7178,410.8394)"><path fill-rule="nonzero" fill="#231f20" d="m0,0c-1.67,0-3.19,0.628-4.4,1.82-1.2,1.19-1.84,2.69-1.84,4.34,0,1.63,0.654,3.17,1.84,4.34,1.24,1.16,2.76,1.76,4.4,1.76s3.15-0.601,4.38-1.74c1.18-1.25,1.79-2.75,1.79-4.44,0-1.72-0.59-3.18-1.77-4.34-1.21-1.19-2.73-1.82-4.4-1.82"/></g><g transform="translate(605.7178,421.6177)"><path fill-rule="nonzero" fill="#FFF" d="m0,0c-1.27,0-2.4-0.451-3.35-1.34-0.887-0.877-1.39-2.05-1.39-3.28,0-1.27,0.47-2.38,1.4-3.3,0.932-0.917,2.05-1.38,3.34-1.38,1.28,0,2.41,0.467,3.34,1.38,0.891,0.879,1.34,1.99,1.34,3.3,0,1.29-0.464,2.43-1.34,3.3-0.94,0.869-2.07,1.32-3.34,1.32"/></g><g transform="translate(207.3062,393.5313)"><path fill-rule="nonzero" fill="#231f20" d="m0,0c-1.67,0-3.19,0.628-4.4,1.82s-1.84,2.69-1.84,4.34c0,1.63,0.653,3.17,1.84,4.34,1.24,1.16,2.76,1.76,4.4,1.76s3.16-0.601,4.38-1.74c1.18-1.25,1.79-2.75,1.79-4.44,0-1.72-0.59-3.18-1.77-4.34-1.21-1.19-2.73-1.82-4.4-1.82"/></g><g transform="translate(207.3062,404.3091)"><path fill-rule="nonzero" fill="#FFF" d="m0,0c-1.27,0-2.4-0.45-3.35-1.34-0.888-0.876-1.39-2.05-1.39-3.28,0-1.27,0.469-2.38,1.4-3.3,0.93-0.91,2.06-1.38,3.34-1.38,1.29,0,2.41,0.466,3.34,1.38,0.89,0.878,1.34,1.99,1.34,3.3,0,1.29-0.464,2.43-1.34,3.3-0.94,0.87-2.07,1.32-3.34,1.32"/></g><g transform="translate(207.3062,437.2695)"><path fill-rule="nonzero" fill="#231f20" d="m0,0c-1.67,0-3.19,0.628-4.4,1.82s-1.84,2.69-1.84,4.34c0,1.63,0.653,3.17,1.84,4.34,1.24,1.16,2.76,1.76,4.4,1.76s3.16-0.601,4.38-1.74c1.18-1.25,1.79-2.75,1.79-4.44,0-1.72-0.59-3.18-1.77-4.34-1.21-1.19-2.73-1.82-4.4-1.82"/></g><g transform="translate(207.3062,448.0474)"><path fill-rule="nonzero" fill="#FFF" d="m0,0c-1.27,0-2.4-0.45-3.35-1.34-0.888-0.877-1.39-2.05-1.39-3.28,0-1.27,0.469-2.38,1.4-3.3,0.93-0.91,2.06-1.38,3.34-1.38,1.29,0,2.41,0.466,3.34,1.38,0.89,0.879,1.34,1.99,1.34,3.3,0,1.29-0.464,2.43-1.34,3.3-0.94,0.87-2.07,1.32-3.34,1.32"/></g><g transform="translate(207.3062,481.7715)"><path fill-rule="nonzero" fill="#231f20" d="m0,0c-1.67,0-3.19,0.629-4.4,1.82s-1.84,2.69-1.84,4.34c0,1.63,0.653,3.17,1.84,4.34,1.24,1.16,2.76,1.76,4.4,1.76s3.16-0.601,4.38-1.74c1.18-1.25,1.79-2.75,1.79-4.44,0-1.72-0.59-3.18-1.77-4.34-1.21-1.19-2.73-1.82-4.4-1.82"/></g><g transform="translate(207.3062,492.5493)"><path fill-rule="nonzero" fill="#FFF" d="m0,0c-1.27,0-2.4-0.45-3.35-1.34-0.888-0.877-1.39-2.05-1.39-3.28,0-1.27,0.469-2.38,1.4-3.3,0.93-0.91,2.06-1.38,3.34-1.38,1.29,0,2.41,0.466,3.34,1.38,0.89,0.878,1.34,1.99,1.34,3.3,0,1.29-0.464,2.43-1.34,3.3-0.94,0.87-2.07,1.32-3.34,1.32"/></g><g transform="translate(239.9722,485.1333)"><path fill-rule="nonzero" fill="#231f20" d="m0,0c-1.67,0-3.19,0.628-4.4,1.82-1.2,1.19-1.84,2.69-1.84,4.34,0,1.63,0.654,3.17,1.84,4.34,1.24,1.16,2.76,1.76,4.4,1.76s3.15-0.601,4.38-1.74c1.18-1.25,1.79-2.75,1.79-4.44,0-1.72-0.59-3.18-1.77-4.34-1.21-1.19-2.73-1.82-4.4-1.82"/></g><g transform="translate(239.9722,495.9111)"><path fill-rule="nonzero" fill="#FFF" d="m0,0c-1.27,0-2.4-0.451-3.35-1.34-0.887-0.877-1.39-2.05-1.39-3.28,0-1.27,0.47-2.38,1.4-3.3,0.931-0.917,2.05-1.38,3.34-1.38,1.28,0,2.41,0.467,3.34,1.38,0.891,0.879,1.34,1.99,1.34,3.3,0,1.29-0.463,2.43-1.34,3.3-0.94,0.869-2.07,1.32-3.34,1.32"/></g><g transform="translate(239.9722,455.5083)"><path fill-rule="nonzero" fill="#231f20" d="m0,0c-1.67,0-3.19,0.628-4.4,1.82-1.2,1.19-1.84,2.69-1.84,4.34,0,1.63,0.654,3.17,1.84,4.34,1.24,1.16,2.76,1.76,4.4,1.76s3.15-0.601,4.38-1.74c1.18-1.25,1.79-2.75,1.79-4.44,0-1.72-0.59-3.18-1.77-4.34-1.21-1.19-2.73-1.82-4.4-1.82"/></g><g transform="translate(239.9722,466.2856)"><path fill-rule="nonzero" fill="#FFF" d="m0,0c-1.27,0-2.4-0.45-3.35-1.34-0.887-0.876-1.39-2.05-1.39-3.28,0-1.27,0.47-2.38,1.4-3.3,0.93-0.91,2.06-1.38,3.34-1.38s2.41,0.466,3.34,1.38c0.891,0.879,1.34,1.99,1.34,3.3,0,1.29-0.463,2.43-1.34,3.3-0.94,0.87-2.07,1.32-3.34,1.32"/></g><g transform="translate(239.9722,424.7876)"><path fill-rule="nonzero" fill="#231f20" d="m0,0c-1.67,0-3.19,0.628-4.4,1.82-1.2,1.19-1.84,2.69-1.84,4.34,0,1.63,0.654,3.17,1.84,4.34,1.24,1.16,2.76,1.76,4.4,1.76s3.15-0.601,4.38-1.74c1.18-1.25,1.79-2.75,1.79-4.44,0-1.72-0.59-3.18-1.77-4.34-1.21-1.19-2.73-1.82-4.4-1.82"/></g><g transform="translate(239.9722,435.5649)"><path fill-rule="nonzero" fill="#FFF" d="m0,0c-1.27,0-2.4-0.45-3.35-1.34-0.887-0.877-1.39-2.05-1.39-3.28,0-1.27,0.47-2.38,1.4-3.3,0.93-0.91,2.06-1.38,3.34-1.38s2.41,0.467,3.34,1.38c0.891,0.879,1.34,1.99,1.34,3.3,0,1.29-0.463,2.43-1.34,3.3-0.94,0.87-2.07,1.32-3.34,1.32"/></g><g transform="translate(250.6514,388.7041)"><path fill-rule="nonzero" fill="#231f20" d="m0,0c-1.67,0-3.19,0.628-4.4,1.82-1.2,1.19-1.84,2.69-1.84,4.34,0,1.63,0.654,3.17,1.84,4.34,1.24,1.16,2.76,1.76,4.4,1.76s3.16-0.601,4.38-1.74c1.18-1.25,1.79-2.75,1.79-4.44,0-1.72-0.59-3.18-1.77-4.34-1.21-1.19-2.73-1.82-4.4-1.82"/></g><g transform="translate(250.6514,399.4819)"><path fill-rule="nonzero" fill="#FFF" d="m0,0c-1.27,0-2.4-0.451-3.35-1.34-0.888-0.877-1.39-2.05-1.39-3.28,0-1.27,0.469-2.38,1.4-3.3,0.932-0.918,2.05-1.38,3.34-1.38,1.28,0,2.41,0.467,3.34,1.38,0.891,0.878,1.34,1.99,1.34,3.3,0,1.29-0.464,2.43-1.34,3.3-0.94,0.869-2.07,1.32-3.34,1.32"/></g><g transform="translate(277.4536,333.4824)"><path fill-rule="nonzero" fill="#231f20" d="m0,0c-1.67,0-3.19,0.628-4.4,1.82-1.2,1.19-1.84,2.69-1.84,4.34,0,1.63,0.654,3.17,1.84,4.34,1.24,1.15,2.76,1.76,4.4,1.76s3.16-0.602,4.38-1.74c1.18-1.25,1.79-2.75,1.79-4.44,0-1.72-0.59-3.18-1.77-4.34-1.21-1.19-2.73-1.82-4.4-1.82"/></g><g transform="translate(277.4536,344.2598)"><path fill-rule="nonzero" fill="#FFF" d="m0,0c-1.27,0-2.4-0.45-3.35-1.34-0.888-0.877-1.39-2.05-1.39-3.28,0-1.27,0.47-2.38,1.4-3.3,0.93-0.91,2.06-1.38,3.34-1.38s2.41,0.467,3.34,1.38c0.891,0.88,1.34,1.99,1.34,3.3,0,1.29-0.464,2.43-1.34,3.3-0.94,0.87-2.07,1.32-3.34,1.32"/></g><g transform="translate(304.0898,333.4824)"><path fill-rule="nonzero" fill="#231f20" d="m0,0c-1.67,0-3.19,0.628-4.4,1.82-1.2,1.19-1.84,2.69-1.84,4.34,0,1.63,0.653,3.17,1.84,4.34,1.24,1.15,2.76,1.76,4.4,1.76s3.16-0.602,4.38-1.74c1.18-1.25,1.79-2.75,1.79-4.44,0-1.72-0.59-3.18-1.77-4.34-1.21-1.19-2.73-1.82-4.4-1.82"/></g><g transform="translate(304.0898,344.2598)"><path fill-rule="nonzero" fill="#FFF" d="m0,0c-1.27,0-2.4-0.45-3.35-1.34-0.887-0.877-1.39-2.05-1.39-3.28,0-1.27,0.471-2.38,1.4-3.3,0.93-0.91,2.06-1.38,3.34-1.38s2.41,0.467,3.34,1.38c0.89,0.88,1.34,1.99,1.34,3.3,0,1.29-0.463,2.43-1.34,3.3-0.94,0.87-2.07,1.32-3.34,1.32"/></g><g transform="translate(330.5088,333.4824)"><path fill-rule="nonzero" fill="#231f20" d="m0,0c-1.67,0-3.19,0.628-4.4,1.82-1.2,1.19-1.84,2.69-1.84,4.34,0,1.63,0.654,3.17,1.84,4.34,1.24,1.15,2.76,1.76,4.4,1.76s3.16-0.602,4.38-1.74c1.18-1.25,1.79-2.75,1.79-4.44,0-1.72-0.59-3.18-1.77-4.34-1.21-1.19-2.73-1.82-4.4-1.82"/></g><g transform="translate(330.5088,344.2598)"><path fill-rule="nonzero" fill="#FFF" d="m0,0c-1.27,0-2.4-0.45-3.35-1.34-0.887-0.877-1.39-2.05-1.39-3.28,0-1.27,0.47-2.38,1.4-3.3,0.93-0.91,2.06-1.38,3.34-1.38s2.41,0.467,3.34,1.38c0.891,0.88,1.34,1.99,1.34,3.3,0,1.29-0.464,2.43-1.34,3.3-0.94,0.87-2.07,1.32-3.34,1.32"/></g><g transform="translate(356.2695,333.4824)"><path fill-rule="nonzero" fill="#231f20" d="m0,0c-1.67,0-3.19,0.628-4.4,1.82-1.2,1.19-1.84,2.69-1.84,4.34,0,1.63,0.654,3.17,1.84,4.34,1.24,1.15,2.76,1.76,4.4,1.76s3.16-0.602,4.38-1.74c1.18-1.25,1.79-2.75,1.79-4.44,0-1.72-0.59-3.18-1.77-4.34-1.21-1.19-2.73-1.82-4.4-1.82"/></g><g transform="translate(356.2695,344.2598)"><path fill-rule="nonzero" fill="#FFF" d="m0,0c-1.27,0-2.4-0.45-3.35-1.34-0.887-0.877-1.39-2.05-1.39-3.28,0-1.27,0.47-2.38,1.4-3.3,0.94-0.91,2.06-1.38,3.34-1.38s2.41,0.467,3.34,1.38c0.891,0.88,1.34,1.99,1.34,3.3,0,1.29-0.464,2.43-1.34,3.3-0.94,0.87-2.07,1.32-3.34,1.32"/></g><g transform="translate(449.8018,333.4824)"><path fill-rule="nonzero" fill="#231f20" d="m0,0c-1.67,0-3.19,0.628-4.4,1.82-1.2,1.19-1.84,2.69-1.84,4.34,0,1.63,0.654,3.17,1.84,4.34,1.24,1.15,2.76,1.76,4.4,1.76s3.15-0.602,4.38-1.74c1.18-1.25,1.79-2.75,1.79-4.44,0-1.72-0.59-3.18-1.77-4.34-1.21-1.19-2.73-1.82-4.4-1.82"/></g><g transform="translate(449.8018,344.2598)"><path fill-rule="nonzero" fill="#FFF" d="m0,0c-1.27,0-2.4-0.45-3.35-1.34-0.887-0.877-1.39-2.05-1.39-3.28,0-1.27,0.47-2.38,1.4-3.3,0.94-0.91,2.06-1.38,3.34-1.38s2.41,0.467,3.34,1.38c0.891,0.88,1.34,1.99,1.34,3.3,0,1.29-0.464,2.43-1.34,3.3-0.94,0.87-2.07,1.32-3.34,1.32"/></g><g transform="translate(471.9746,333.4824)"><path fill-rule="nonzero" fill="#231f20" d="m0,0c-1.67,0-3.19,0.628-4.4,1.82s-1.84,2.69-1.84,4.34c0,1.63,0.653,3.17,1.84,4.34,1.24,1.15,2.76,1.76,4.4,1.76s3.16-0.602,4.38-1.74c1.18-1.25,1.79-2.75,1.79-4.44,0-1.72-0.59-3.18-1.77-4.34-1.21-1.19-2.73-1.82-4.4-1.82"/></g><g transform="translate(471.9746,344.2598)"><path fill-rule="nonzero" fill="#FFF" d="m0,0c-1.27,0-2.4-0.45-3.35-1.34-0.888-0.877-1.39-2.05-1.39-3.28,0-1.27,0.469-2.38,1.4-3.3,0.94-0.91,2.06-1.38,3.34-1.38s2.41,0.467,3.34,1.38c0.891,0.88,1.34,1.99,1.34,3.3,0,1.29-0.463,2.43-1.34,3.3-0.94,0.87-2.07,1.32-3.34,1.32"/></g><g transform="translate(582.5449,339.8408)"><path fill-rule="nonzero" fill="#231f20" d="m0,0c-1.67,0-3.19,0.628-4.4,1.82-1.2,1.19-1.84,2.69-1.84,4.34,0,1.63,0.654,3.17,1.84,4.34,1.24,1.16,2.76,1.76,4.4,1.76s3.15-0.601,4.38-1.74c1.18-1.25,1.79-2.75,1.79-4.44,0-1.72-0.59-3.18-1.77-4.34-1.21-1.19-2.73-1.82-4.4-1.82"/></g><g transform="translate(582.5449,350.6182)"><path fill-rule="nonzero" fill="#FFF" d="m0,0c-1.27,0-2.4-0.45-3.35-1.34-0.887-0.877-1.39-2.05-1.39-3.28,0-1.27,0.469-2.38,1.4-3.3,0.93-0.91,2.06-1.38,3.34-1.38s2.41,0.467,3.34,1.38c0.89,0.879,1.34,1.99,1.34,3.3,0,1.29-0.465,2.43-1.34,3.3-0.94,0.87-2.07,1.32-3.34,1.32"/></g><g transform="translate(623.9961,339.8408)"><path fill-rule="nonzero" fill="#231f20" d="m0,0c-1.67,0-3.19,0.628-4.4,1.82s-1.84,2.69-1.84,4.34c0,1.63,0.653,3.17,1.84,4.34,1.24,1.16,2.76,1.76,4.4,1.76s3.16-0.601,4.38-1.74c1.18-1.25,1.79-2.75,1.79-4.44,0-1.72-0.59-3.18-1.77-4.34-1.21-1.19-2.73-1.82-4.4-1.82"/></g><g transform="translate(623.9961,350.6182)"><path fill-rule="nonzero" fill="#FFF" d="m0,0c-1.27,0-2.4-0.45-3.35-1.34-0.886-0.877-1.38-2.05-1.38-3.28,0-1.27,0.469-2.38,1.4-3.3,0.93-0.91,2.05-1.38,3.33-1.38s2.41,0.467,3.34,1.38c0.89,0.879,1.34,1.99,1.34,3.3,0,1.29-0.463,2.43-1.34,3.3-0.94,0.87-2.07,1.32-3.34,1.32"/></g><g transform="translate(662.2012,339.8408)"><path fill-rule="nonzero" fill="#231f20" d="m0,0c-1.67,0-3.19,0.628-4.4,1.82-1.2,1.19-1.84,2.69-1.84,4.34,0,1.63,0.654,3.17,1.84,4.34,1.24,1.16,2.76,1.76,4.4,1.76s3.15-0.601,4.38-1.74c1.18-1.25,1.79-2.75,1.79-4.44,0-1.72-0.59-3.18-1.77-4.34-1.21-1.19-2.73-1.82-4.4-1.82"/></g><g transform="translate(662.2012,350.6182)"><path fill-rule="nonzero" fill="#FFF" d="m0,0c-1.27,0-2.4-0.45-3.35-1.34-0.887-0.877-1.39-2.05-1.39-3.28,0-1.27,0.47-2.38,1.4-3.3,0.94-0.91,2.06-1.38,3.34-1.38s2.41,0.467,3.34,1.38c0.891,0.879,1.34,1.99,1.34,3.3,0,1.29-0.464,2.43-1.34,3.3-0.94,0.87-2.07,1.32-3.34,1.32"/></g><g transform="translate(703.416,339.8408)"><path fill-rule="nonzero" fill="#231f20" d="m0,0c-1.67,0-3.19,0.628-4.4,1.82s-1.84,2.69-1.84,4.34c0,1.63,0.653,3.17,1.84,4.34,1.24,1.16,2.76,1.76,4.4,1.76s3.15-0.601,4.38-1.74c1.18-1.25,1.79-2.75,1.79-4.44,0-1.72-0.59-3.18-1.77-4.34-1.21-1.19-2.73-1.82-4.4-1.82"/></g><g transform="translate(703.416,350.6182)"><path fill-rule="nonzero" fill="#FFF" d="m0,0c-1.27,0-2.4-0.45-3.35-1.34-0.887-0.877-1.38-2.05-1.38-3.28,0-1.27,0.469-2.38,1.4-3.3,0.93-0.91,2.05-1.38,3.33-1.38s2.41,0.467,3.34,1.38c0.89,0.879,1.34,1.99,1.34,3.3,0,1.29-0.463,2.43-1.34,3.3-0.94,0.87-2.07,1.32-3.34,1.32"/></g><g transform="translate(718.0459,302.2939)"><path fill-rule="nonzero" fill="#231f20" d="m0,0c-1.67,0-3.19,0.628-4.4,1.82s-1.84,2.69-1.84,4.34c0,1.63,0.654,3.17,1.84,4.34,1.24,1.16,2.76,1.76,4.4,1.76s3.15-0.601,4.38-1.74c1.18-1.25,1.79-2.75,1.79-4.44,0-1.72-0.59-3.18-1.77-4.34-1.21-1.19-2.73-1.82-4.4-1.82"/></g><g transform="translate(718.0459,313.0723)"><path fill-rule="nonzero" fill="#FFF" d="m0,0c-1.27,0-2.4-0.451-3.35-1.34-0.888-0.877-1.39-2.05-1.39-3.28,0-1.27,0.469-2.38,1.4-3.3,0.931-0.917,2.05-1.38,3.34-1.38,1.28,0,2.41,0.467,3.34,1.38,0.89,0.879,1.34,1.99,1.34,3.3,0,1.29-0.464,2.43-1.34,3.3-0.94,0.869-2.07,1.32-3.34,1.32"/></g><g transform="translate(718.0459,269.6426)"><path fill-rule="nonzero" fill="#231f20" d="m0,0c-1.67,0-3.19,0.629-4.4,1.82s-1.84,2.69-1.84,4.34c0,1.63,0.654,3.17,1.84,4.34,1.24,1.15,2.76,1.76,4.4,1.76s3.15-0.603,4.38-1.74c1.18-1.25,1.79-2.75,1.79-4.44,0-1.72-0.59-3.18-1.77-4.34-1.21-1.19-2.73-1.82-4.4-1.82"/></g><g transform="translate(718.0459,280.4199)"><path fill-rule="nonzero" fill="#FFF" d="m0,0c-1.27,0-2.4-0.45-3.35-1.34-0.888-0.877-1.39-2.05-1.39-3.28,0-1.27,0.469-2.38,1.4-3.3,0.93-0.91,2.06-1.38,3.34-1.38s2.41,0.466,3.34,1.38c0.89,0.879,1.34,1.99,1.34,3.3,0,1.29-0.464,2.43-1.34,3.3-0.94,0.87-2.07,1.32-3.34,1.32"/></g><g transform="translate(718.0459,234.2568)"><path fill-rule="nonzero" fill="#231f20" d="m0,0c-1.67,0-3.19,0.629-4.4,1.82s-1.84,2.69-1.84,4.34c0,1.63,0.654,3.17,1.84,4.34,1.24,1.16,2.76,1.76,4.4,1.76s3.15-0.601,4.38-1.74c1.18-1.25,1.79-2.75,1.79-4.44,0-1.72-0.59-3.18-1.77-4.34-1.21-1.19-2.73-1.82-4.4-1.82"/></g><g transform="translate(718.0459,245.0352)"><path fill-rule="nonzero" fill="#FFF" d="m0,0c-1.27,0-2.4-0.451-3.35-1.34-0.888-0.876-1.39-2.05-1.39-3.28,0-1.27,0.469-2.38,1.4-3.3,0.931-0.917,2.05-1.38,3.34-1.38,1.28,0,2.41,0.467,3.34,1.38,0.89,0.88,1.34,1.99,1.34,3.3,0,1.29-0.464,2.43-1.34,3.3-0.94,0.869-2.07,1.32-3.34,1.32"/></g><g transform="translate(718.0459,198.2754)"><path fill-rule="nonzero" fill="#231f20" d="m0,0c-1.67,0-3.19,0.629-4.4,1.82s-1.84,2.69-1.84,4.34c0,1.63,0.654,3.17,1.84,4.34,1.24,1.15,2.76,1.76,4.4,1.76s3.15-0.602,4.38-1.74c1.18-1.25,1.79-2.75,1.79-4.44,0-1.72-0.59-3.18-1.77-4.34-1.21-1.19-2.73-1.82-4.4-1.82"/></g><g transform="translate(718.0459,209.0527)"><path fill-rule="nonzero" fill="#FFF" d="m0,0c-1.27,0-2.4-0.45-3.35-1.34-0.888-0.877-1.39-2.05-1.39-3.28,0-1.27,0.469-2.38,1.4-3.3,0.93-0.91,2.06-1.38,3.34-1.38s2.41,0.466,3.34,1.38c0.89,0.88,1.34,1.99,1.34,3.3,0,1.29-0.464,2.43-1.34,3.3-0.94,0.87-2.07,1.32-3.34,1.32"/></g><g transform="translate(788.5166,206.4316)"><path fill-rule="nonzero" fill="#231f20" d="m0,0c-1.67,0-3.19,0.628-4.4,1.82-1.2,1.19-1.84,2.69-1.84,4.34,0,1.63,0.654,3.17,1.84,4.34,1.24,1.15,2.76,1.76,4.4,1.76s3.16-0.602,4.38-1.74c1.18-1.25,1.79-2.75,1.79-4.44,0-1.72-0.59-3.18-1.77-4.34-1.21-1.19-2.73-1.82-4.4-1.82"/></g><g transform="translate(788.5166,217.209)"><path fill-rule="nonzero" fill="#FFF" d="m0,0c-1.27,0-2.4-0.45-3.35-1.34-0.887-0.877-1.39-2.05-1.39-3.28,0-1.27,0.469-2.38,1.4-3.3,0.932-0.918,2.05-1.38,3.34-1.38,1.28,0,2.41,0.467,3.34,1.38,0.89,0.879,1.34,1.99,1.34,3.3,0,1.29-0.464,2.43-1.34,3.3-0.94,0.87-2.07,1.32-3.34,1.32"/></g><g transform="translate(788.5166,246.8076)"><path fill-rule="nonzero" fill="#231f20" d="m0,0c-1.67,0-3.19,0.628-4.4,1.82-1.2,1.19-1.84,2.69-1.84,4.34,0,1.63,0.654,3.17,1.84,4.34,1.24,1.15,2.76,1.76,4.4,1.76s3.16-0.602,4.38-1.74c1.18-1.25,1.79-2.75,1.79-4.44,0-1.72-0.59-3.18-1.77-4.34-1.21-1.19-2.73-1.82-4.4-1.82"/></g><g transform="translate(788.5166,257.585)"><path fill-rule="nonzero" fill="#FFF" d="m0,0c-1.27,0-2.4-0.45-3.35-1.34-0.887-0.877-1.39-2.05-1.39-3.28,0-1.27,0.469-2.38,1.4-3.3,0.932-0.918,2.05-1.39,3.34-1.39,1.28,0,2.41,0.468,3.34,1.39,0.89,0.879,1.34,1.99,1.34,3.3,0,1.29-0.464,2.43-1.34,3.3-0.94,0.87-2.07,1.32-3.34,1.32"/></g><g transform="translate(788.5166,286.2168)"><path fill-rule="nonzero" fill="#231f20" d="m0,0c-1.67,0-3.19,0.629-4.4,1.82-1.2,1.19-1.84,2.69-1.84,4.34,0,1.63,0.654,3.17,1.84,4.34,1.24,1.16,2.76,1.76,4.4,1.76s3.16-0.601,4.38-1.74c1.18-1.25,1.79-2.75,1.79-4.44,0-1.72-0.59-3.18-1.77-4.34-1.21-1.19-2.73-1.82-4.4-1.82"/></g><g transform="translate(788.5166,296.9941)"><path fill-rule="nonzero" fill="#FFF" d="m0,0c-1.27,0-2.4-0.45-3.35-1.34-0.887-0.876-1.39-2.05-1.39-3.28,0-1.27,0.469-2.38,1.4-3.3,0.94-0.91,2.06-1.38,3.34-1.38s2.41,0.467,3.34,1.38c0.89,0.88,1.34,1.99,1.34,3.3,0,1.29-0.464,2.43-1.34,3.3-0.94,0.87-2.07,1.32-3.34,1.32"/></g><g transform="translate(814.4551,149.4141)"><path fill-rule="nonzero" fill="#231f20" d="m0,0c-1.67,0-3.19,0.629-4.4,1.82-1.2,1.19-1.84,2.69-1.84,4.34,0,1.63,0.653,3.17,1.84,4.34,1.24,1.15,2.76,1.76,4.4,1.76s3.15-0.602,4.38-1.74c1.18-1.25,1.79-2.75,1.79-4.44,0-1.72-0.59-3.18-1.77-4.34-1.21-1.19-2.73-1.82-4.4-1.82"/></g><g transform="translate(814.4551,160.1914)"><path fill-rule="nonzero" fill="#FFF" d="m0,0c-1.27,0-2.4-0.45-3.35-1.34-0.887-0.877-1.39-2.05-1.39-3.28,0-1.27,0.47-2.38,1.4-3.3,0.932-0.918,2.05-1.38,3.34-1.38,1.28,0,2.41,0.467,3.34,1.38,0.89,0.879,1.34,1.99,1.34,3.3,0,1.29-0.464,2.43-1.34,3.3-0.94,0.87-2.07,1.32-3.34,1.32"/></g><g transform="translate(764.6133,11.0107)"><path fill-rule="nonzero" fill="#231f20" d="m0,0c-1.67,0-3.19,0.629-4.4,1.82-1.2,1.19-1.84,2.69-1.84,4.34,0,1.63,0.653,3.17,1.84,4.34,1.24,1.15,2.76,1.76,4.4,1.76s3.15-0.602,4.38-1.74c1.18-1.25,1.79-2.75,1.79-4.44,0-1.72-0.59-3.18-1.77-4.34-1.21-1.19-2.73-1.82-4.4-1.82"/></g><g transform="translate(764.6133,21.7891)"><path fill-rule="nonzero" fill="#FFF" d="m0,0c-1.27,0-2.4-0.45-3.35-1.34-0.887-0.877-1.39-2.05-1.39-3.28,0-1.27,0.47-2.38,1.4-3.3,0.932-0.917,2.05-1.38,3.34-1.38,1.28,0,2.41,0.467,3.34,1.38,0.891,0.88,1.34,1.99,1.34,3.3,0,1.29-0.464,2.43-1.34,3.3-0.94,0.87-2.07,1.32-3.34,1.32"/></g><g transform="translate(746.1787,36.6738)"><path fill-rule="nonzero" fill="#231f20" d="m0,0c-1.67,0-3.19,0.628-4.4,1.82-1.2,1.19-1.84,2.69-1.84,4.34,0,1.63,0.654,3.17,1.84,4.34,1.24,1.15,2.76,1.76,4.4,1.76s3.15-0.602,4.38-1.74c1.18-1.25,1.79-2.75,1.79-4.44,0-1.72-0.59-3.18-1.77-4.34-1.21-1.19-2.73-1.82-4.4-1.82"/></g><g transform="translate(746.1787,47.4521)"><path fill-rule="nonzero" fill="#FFF" d="m0,0c-1.27,0-2.4-0.451-3.35-1.34-0.887-0.877-1.39-2.05-1.39-3.28,0-1.27,0.47-2.38,1.4-3.3,0.932-0.918,2.05-1.38,3.34-1.38,1.28,0,2.41,0.466,3.34,1.38,0.891,0.879,1.34,1.99,1.34,3.3,0,1.29-0.463,2.43-1.34,3.3-0.94,0.869-2.07,1.32-3.34,1.32"/></g><g transform="translate(727.4863,61.4375)"><path fill-rule="nonzero" fill="#231f20" d="m0,0c-1.67,0-3.19,0.629-4.4,1.82s-1.84,2.69-1.84,4.34c0,1.63,0.653,3.17,1.84,4.34,1.24,1.15,2.76,1.76,4.4,1.76s3.16-0.601,4.38-1.74c1.18-1.25,1.79-2.75,1.79-4.44,0-1.72-0.59-3.18-1.77-4.34-1.21-1.19-2.73-1.82-4.4-1.82"/></g><g transform="translate(727.4863,72.2158)"><path fill-rule="nonzero" fill="#FFF" d="m0,0c-1.27,0-2.4-0.45-3.35-1.34-0.887-0.877-1.39-2.05-1.39-3.28,0-1.27,0.469-2.38,1.4-3.3,0.931-0.917,2.05-1.38,3.34-1.38,1.28,0,2.41,0.467,3.34,1.38,0.89,0.88,1.34,1.99,1.34,3.3,0,1.29-0.464,2.43-1.34,3.3-0.94,0.87-2.07,1.32-3.34,1.32"/></g><g transform="translate(698.9785,63.4014)"><path fill-rule="nonzero" fill="#231f20" d="m0,0c-1.67,0-3.19,0.629-4.4,1.82-1.2,1.19-1.84,2.69-1.84,4.34,0,1.63,0.654,3.17,1.84,4.34,1.24,1.15,2.76,1.76,4.4,1.76s3.15-0.603,4.38-1.74c1.18-1.25,1.79-2.75,1.79-4.44,0-1.72-0.59-3.18-1.77-4.34-1.21-1.19-2.73-1.82-4.4-1.82"/></g><g transform="translate(698.9785,74.1787)"><path fill-rule="nonzero" fill="#FFF" d="m0,0c-1.27,0-2.4-0.45-3.35-1.34-0.887-0.877-1.39-2.05-1.39-3.28,0-1.27,0.47-2.38,1.4-3.3,0.93-0.91,2.06-1.38,3.34-1.38s2.41,0.466,3.34,1.38c0.891,0.879,1.34,1.99,1.34,3.3,0,1.29-0.464,2.43-1.34,3.3-0.94,0.87-2.07,1.32-3.34,1.32"/></g><g transform="translate(670.2832,63.4014)"><path fill-rule="nonzero" fill="#231f20" d="m0,0c-1.67,0-3.19,0.629-4.4,1.82-1.2,1.19-1.84,2.69-1.84,4.34,0,1.63,0.653,3.17,1.84,4.34,1.24,1.15,2.76,1.76,4.4,1.76s3.16-0.603,4.38-1.74c1.18-1.25,1.8-2.75,1.8-4.44,0-1.72-0.6-3.18-1.78-4.34-1.21-1.19-2.73-1.82-4.4-1.82"/></g><g transform="translate(670.2832,74.1787)"><path fill-rule="nonzero" fill="#FFF" d="m0,0c-1.27,0-2.4-0.45-3.35-1.34-0.887-0.877-1.39-2.05-1.39-3.28,0-1.27,0.47-2.38,1.4-3.3,0.94-0.91,2.06-1.38,3.34-1.38,1.29,0,2.41,0.466,3.34,1.38,0.891,0.879,1.34,1.99,1.34,3.3,0,1.29-0.464,2.43-1.34,3.3-0.94,0.87-2.07,1.32-3.34,1.32"/></g><g transform="translate(583.4326,63.4014)"><path fill-rule="nonzero" fill="#231f20" d="m0,0c-1.67,0-3.19,0.629-4.4,1.82-1.2,1.19-1.84,2.69-1.84,4.34,0,1.63,0.653,3.17,1.84,4.34,1.24,1.15,2.76,1.76,4.4,1.76s3.16-0.603,4.38-1.74c1.18-1.25,1.79-2.75,1.79-4.44,0-1.72-0.59-3.18-1.77-4.34-1.21-1.19-2.73-1.82-4.4-1.82"/></g><g transform="translate(583.4326,74.1787)"><path fill-rule="nonzero" fill="#FFF" d="m0,0c-1.27,0-2.4-0.45-3.35-1.34-0.887-0.877-1.38-2.05-1.38-3.28,0-1.27,0.469-2.38,1.4-3.3,0.93-0.91,2.05-1.38,3.33-1.38s2.41,0.466,3.34,1.38c0.89,0.879,1.34,1.99,1.34,3.3,0,1.29-0.464,2.43-1.34,3.3-0.94,0.87-2.07,1.32-3.34,1.32"/></g><g transform="translate(555.2754,63.4014)"><path fill-rule="nonzero" fill="#231f20" d="m0,0c-1.67,0-3.19,0.629-4.4,1.82-1.2,1.19-1.84,2.69-1.84,4.34,0,1.63,0.654,3.17,1.84,4.34,1.24,1.15,2.76,1.76,4.4,1.76s3.16-0.603,4.38-1.74c1.18-1.25,1.79-2.75,1.79-4.44,0-1.72-0.59-3.18-1.77-4.34-1.21-1.19-2.73-1.82-4.4-1.82"/></g><g transform="translate(555.2754,74.1787)"><path fill-rule="nonzero" fill="#FFF" d="m0,0c-1.27,0-2.4-0.45-3.35-1.34-0.887-0.877-1.39-2.05-1.39-3.28,0-1.27,0.47-2.38,1.4-3.3,0.94-0.91,2.06-1.38,3.34-1.38s2.41,0.466,3.34,1.38c0.891,0.879,1.34,1.99,1.34,3.3,0,1.29-0.464,2.43-1.34,3.3-0.94,0.87-2.07,1.32-3.34,1.32"/></g><g transform="translate(523.5918,63.4014)"><path fill-rule="nonzero" fill="#231f20" d="m0,0c-1.67,0-3.19,0.629-4.4,1.82s-1.84,2.69-1.84,4.34c0,1.63,0.654,3.17,1.84,4.34,1.24,1.15,2.76,1.76,4.4,1.76s3.15-0.603,4.38-1.74c1.18-1.25,1.79-2.75,1.79-4.44,0-1.72-0.59-3.18-1.77-4.34-1.21-1.19-2.73-1.82-4.4-1.82"/></g><g transform="translate(523.5918,74.1787)"><path fill-rule="nonzero" fill="#FFF" d="m0,0c-1.27,0-2.4-0.45-3.35-1.34-0.886-0.877-1.38-2.05-1.38-3.28,0-1.27,0.469-2.38,1.4-3.3,0.92-0.91,2.05-1.38,3.33-1.38s2.41,0.466,3.34,1.38c0.891,0.879,1.34,1.99,1.34,3.3,0,1.29-0.464,2.43-1.34,3.3-0.94,0.87-2.07,1.32-3.34,1.32"/></g><g transform="translate(491.7188,63.4014)"><path fill-rule="nonzero" fill="#231f20" d="m0,0c-1.67,0-3.19,0.629-4.4,1.82-1.2,1.19-1.84,2.69-1.84,4.34,0,1.63,0.653,3.17,1.84,4.34,1.24,1.15,2.76,1.76,4.4,1.76s3.16-0.603,4.38-1.74c1.18-1.25,1.79-2.75,1.79-4.44,0-1.72-0.59-3.18-1.77-4.34-1.21-1.19-2.73-1.82-4.4-1.82"/></g><g transform="translate(491.7188,74.1787)"><path fill-rule="nonzero" fill="#FFF" d="m0,0c-1.27,0-2.4-0.45-3.35-1.34-0.886-0.877-1.38-2.05-1.38-3.28,0-1.27,0.469-2.38,1.4-3.3,0.93-0.91,2.05-1.38,3.33-1.38s2.41,0.466,3.34,1.38c0.89,0.879,1.34,1.99,1.34,3.3,0,1.29-0.464,2.43-1.34,3.3-0.94,0.87-2.07,1.32-3.34,1.32"/></g><g transform="translate(500.0381,141.0908)"><path fill-rule="nonzero" fill="#231f20" d="m0,0c-1.67,0-3.19,0.629-4.4,1.82s-1.84,2.69-1.84,4.34c0,1.63,0.653,3.17,1.84,4.34,1.24,1.15,2.76,1.76,4.4,1.76s3.15-0.602,4.38-1.74c1.18-1.25,1.79-2.75,1.79-4.44,0-1.72-0.59-3.18-1.77-4.34-1.21-1.19-2.73-1.82-4.4-1.82"/></g><g transform="translate(500.0381,151.8691)"><path fill-rule="nonzero" fill="#FFF" d="m0,0c-1.27,0-2.4-0.45-3.35-1.34-0.887-0.877-1.39-2.05-1.39-3.28,0-1.27,0.469-2.38,1.4-3.3,0.932-0.917,2.05-1.38,3.34-1.38,1.28,0,2.41,0.467,3.34,1.38,0.89,0.88,1.34,1.99,1.34,3.3,0,1.29-0.464,2.43-1.34,3.3-0.94,0.87-2.07,1.32-3.34,1.32"/></g><g transform="translate(500.2256,178.1729)"><path fill-rule="nonzero" fill="#231f20" d="m0,0c-1.67,0-3.19,0.628-4.4,1.82-1.2,1.19-1.84,2.69-1.84,4.34,0,1.63,0.653,3.17,1.84,4.34,1.24,1.15,2.76,1.76,4.4,1.76s3.15-0.602,4.38-1.74c1.18-1.25,1.79-2.75,1.79-4.44,0-1.72-0.59-3.18-1.77-4.34-1.21-1.19-2.73-1.82-4.4-1.82"/></g><g transform="translate(500.2256,188.9502)"><path fill-rule="nonzero" fill="#FFF" d="m0,0c-1.27,0-2.4-0.45-3.35-1.34-0.886-0.877-1.38-2.05-1.38-3.28,0-1.27,0.469-2.38,1.4-3.3,0.932-0.918,2.05-1.38,3.34-1.38,1.28,0,2.41,0.467,3.34,1.38,0.89,0.879,1.34,1.99,1.34,3.3,0,1.29-0.464,2.43-1.34,3.3-0.95,0.87-2.08,1.32-3.35,1.32"/></g><g transform="translate(469.6152,201.3057)"><path fill-rule="nonzero" fill="#231f20" d="m0,0c-1.67,0-3.19,0.629-4.4,1.82-1.2,1.19-1.84,2.69-1.84,4.34,0,1.63,0.654,3.17,1.84,4.34,1.24,1.15,2.76,1.76,4.4,1.76s3.16-0.601,4.38-1.74c1.18-1.25,1.79-2.75,1.79-4.44,0-1.72-0.59-3.18-1.77-4.34-1.21-1.19-2.73-1.82-4.4-1.82"/></g><g transform="translate(469.6152,212.084)"><path fill-rule="nonzero" fill="#FFF" d="m0,0c-1.27,0-2.4-0.45-3.35-1.34-0.887-0.877-1.38-2.05-1.38-3.28,0-1.27,0.469-2.38,1.4-3.3,0.932-0.918,2.05-1.38,3.34-1.38,1.28,0,2.41,0.466,3.34,1.38,0.89,0.879,1.34,1.99,1.34,3.3,0,1.29-0.463,2.43-1.34,3.3-0.95,0.87-2.08,1.32-3.35,1.32"/></g><g transform="translate(454.0996,228.4014)"><path fill-rule="nonzero" fill="#231f20" d="m0,0c-1.67,0-3.19,0.628-4.4,1.82-1.2,1.19-1.84,2.69-1.84,4.34,0,1.63,0.654,3.17,1.84,4.34,1.24,1.15,2.76,1.76,4.4,1.76s3.16-0.602,4.38-1.74c1.18-1.25,1.79-2.75,1.79-4.44,0-1.72-0.59-3.18-1.77-4.34-1.21-1.19-2.73-1.82-4.4-1.82"/></g><g transform="translate(454.0996,239.1787)"><path fill-rule="nonzero" fill="#FFF" d="m0,0c-1.27,0-2.4-0.45-3.35-1.34-0.887-0.877-1.39-2.05-1.39-3.28,0-1.27,0.47-2.38,1.4-3.3,0.932-0.918,2.05-1.38,3.34-1.38,1.28,0,2.41,0.467,3.34,1.38,0.891,0.879,1.34,1.99,1.34,3.3,0,1.29-0.464,2.43-1.34,3.3-0.94,0.87-2.07,1.32-3.34,1.32"/></g><g transform="translate(487.748,315.2437)"><path fill-rule="nonzero" fill="#231f20" d="m0,0c-1.67,0-3.19,0.629-4.4,1.82-1.2,1.19-1.84,2.69-1.84,4.34,0,1.63,0.653,3.17,1.84,4.34,1.24,1.16,2.76,1.76,4.4,1.76s3.15-0.601,4.38-1.74c1.18-1.25,1.79-2.75,1.79-4.44,0-1.72-0.59-3.18-1.77-4.34-1.21-1.19-2.73-1.82-4.4-1.82"/></g><g transform="translate(487.748,326.0215)"><path fill-rule="nonzero" fill="#FFF" d="m0,0c-1.27,0-2.4-0.45-3.35-1.34-0.887-0.877-1.38-2.05-1.38-3.28,0-1.27,0.47-2.38,1.4-3.3,0.931-0.918,2.05-1.38,3.34-1.38,1.28,0,2.41,0.467,3.34,1.38,0.89,0.879,1.34,1.99,1.34,3.3,0,1.29-0.464,2.43-1.34,3.3-0.95,0.87-2.08,1.32-3.35,1.32"/></g><g transform="translate(519.6885,319.103)"><path fill-rule="nonzero" fill="#231f20" d="m0,0c-1.67,0-3.19,0.628-4.4,1.82-1.2,1.19-1.84,2.69-1.84,4.34,0,1.63,0.654,3.17,1.84,4.34,1.24,1.16,2.76,1.76,4.4,1.76s3.16-0.601,4.38-1.74c1.18-1.25,1.79-2.75,1.79-4.44,0-1.72-0.59-3.18-1.77-4.34-1.21-1.19-2.73-1.82-4.4-1.82"/></g><g transform="translate(519.6885,329.8809)"><path fill-rule="nonzero" fill="#FFF" d="m0,0c-1.27,0-2.4-0.45-3.35-1.34-0.887-0.877-1.39-2.05-1.39-3.28,0-1.27,0.47-2.38,1.4-3.3,0.932-0.917,2.05-1.38,3.34-1.38,1.28,0,2.41,0.467,3.34,1.38,0.891,0.88,1.34,1.99,1.34,3.3,0,1.29-0.464,2.43-1.34,3.3-0.94,0.87-2.07,1.32-3.34,1.32"/></g><g transform="translate(541.0703,264.4688)"><path fill-rule="nonzero" fill="#231f20" d="m0,0c-1.67,0-3.19,0.629-4.4,1.82-1.2,1.19-1.84,2.69-1.84,4.34,0,1.63,0.653,3.17,1.84,4.34,1.24,1.15,2.76,1.76,4.4,1.76s3.16-0.602,4.38-1.74c1.18-1.25,1.79-2.75,1.79-4.44,0-1.72-0.59-3.18-1.77-4.34-1.21-1.19-2.73-1.82-4.4-1.82"/></g><g transform="translate(541.0703,275.2461)"><path fill-rule="nonzero" fill="#FFF" d="m0,0c-1.27,0-2.4-0.45-3.35-1.34-0.887-0.877-1.38-2.05-1.38-3.28,0-1.27,0.469-2.38,1.4-3.3,0.93-0.91,2.05-1.38,3.33-1.38s2.41,0.467,3.34,1.38c0.89,0.879,1.34,1.99,1.34,3.3,0,1.29-0.463,2.43-1.34,3.3-0.94,0.87-2.07,1.32-3.34,1.32"/></g><g transform="translate(362.3887,217.2822)"><path fill-rule="nonzero" fill="#231f20" d="m0,0c-1.67,0-3.19,0.628-4.4,1.82-1.2,1.19-1.84,2.69-1.84,4.34,0,1.63,0.654,3.17,1.84,4.34,1.24,1.15,2.76,1.76,4.4,1.76s3.16-0.602,4.38-1.74c1.18-1.25,1.79-2.75,1.79-4.44,0-1.72-0.59-3.18-1.77-4.34-1.21-1.19-2.73-1.82-4.4-1.82"/></g><g transform="translate(362.3887,228.0596)"><path fill-rule="nonzero" fill="#FFF" d="m0,0c-1.27,0-2.4-0.45-3.35-1.34-0.887-0.877-1.39-2.05-1.39-3.28,0-1.27,0.47-2.38,1.4-3.3,0.932-0.918,2.05-1.38,3.34-1.38,1.28,0,2.41,0.467,3.34,1.38,0.891,0.879,1.34,1.99,1.34,3.3,0,1.29-0.464,2.43-1.34,3.3-0.94,0.87-2.07,1.32-3.34,1.32"/></g><g transform="translate(301.1763,254.4619)"><path fill-rule="nonzero" fill="#231f20" d="m0,0c-1.67,0-3.19,0.628-4.4,1.82s-1.84,2.69-1.84,4.34c0,1.63,0.654,3.17,1.84,4.34,1.24,1.15,2.76,1.76,4.4,1.76s3.16-0.602,4.38-1.74c1.18-1.25,1.79-2.75,1.79-4.44,0-1.72-0.59-3.18-1.77-4.34-1.21-1.19-2.73-1.82-4.4-1.82"/></g><g transform="translate(301.1763,265.2393)"><path fill-rule="nonzero" fill="#FFF" d="m0,0c-1.27,0-2.4-0.45-3.35-1.34-0.887-0.877-1.39-2.05-1.39-3.28,0-1.27,0.469-2.38,1.4-3.3,0.94-0.91,2.06-1.38,3.34-1.38s2.41,0.466,3.34,1.38c0.89,0.879,1.34,1.99,1.34,3.3,0,1.29-0.464,2.43-1.34,3.3-0.94,0.87-2.07,1.32-3.34,1.32"/></g><g transform="translate(276.9858,237.2549)"><path fill-rule="nonzero" fill="#231f20" d="m0,0c-1.67,0-3.19,0.628-4.4,1.82-1.2,1.19-1.84,2.69-1.84,4.34,0,1.63,0.653,3.17,1.84,4.34,1.24,1.15,2.76,1.76,4.4,1.76s3.16-0.602,4.38-1.74c1.18-1.25,1.79-2.75,1.79-4.44,0-1.72-0.59-3.18-1.77-4.34-1.21-1.19-2.73-1.82-4.4-1.82"/></g><g transform="translate(276.9858,248.0322)"><path fill-rule="nonzero" fill="#FFF" d="m0,0c-1.27,0-2.4-0.45-3.35-1.34-0.887-0.877-1.39-2.05-1.39-3.28,0-1.27,0.47-2.38,1.4-3.3,0.94-0.91,2.06-1.38,3.34-1.38s2.41,0.466,3.34,1.38c0.891,0.879,1.34,1.99,1.34,3.3,0,1.29-0.463,2.43-1.34,3.3-0.94,0.87-2.07,1.32-3.34,1.32"/></g><g transform="translate(291.7305,194.0508)"><path fill-rule="nonzero" fill="#231f20" d="m0,0c-1.67,0-3.19,0.628-4.4,1.82-1.2,1.19-1.84,2.69-1.84,4.34,0,1.63,0.653,3.17,1.84,4.34,1.24,1.15,2.76,1.76,4.4,1.76s3.16-0.602,4.38-1.74c1.18-1.25,1.79-2.75,1.79-4.44,0-1.72-0.59-3.18-1.77-4.34-1.21-1.19-2.73-1.82-4.4-1.82"/></g><g transform="translate(291.7305,204.8281)"><path fill-rule="nonzero" fill="#FFF" d="m0,0c-1.27,0-2.4-0.45-3.35-1.34-0.888-0.877-1.39-2.05-1.39-3.28,0-1.27,0.47-2.38,1.4-3.3,0.931-0.918,2.05-1.38,3.34-1.38,1.28,0,2.41,0.467,3.34,1.38,0.891,0.879,1.34,1.99,1.34,3.3,0,1.29-0.463,2.43-1.34,3.3-0.94,0.87-2.07,1.32-3.34,1.32"/></g><g transform="translate(418.2759,69.4297)"><path fill-rule="evenodd" fill="#231f20" d="m0,0,0,7.4c0,3.36,2.79,6.12,6.2,6.12s6.2-2.75,6.2-6.12v-7.38c0-3.36-2.8-6.12-6.2-6.12-3.41,0-6.2,2.76-6.2,6.12"/></g><g transform="translate(419.6934,69.9707)"><path fill-rule="evenodd" fill="#FFF" d="m0,0,0,6.32c0,2.92,2.15,5.31,4.78,5.31s4.78-2.39,4.78-5.31v-6.29c0-2.92-2.15-5.31-4.78-5.31s-4.78,2.39-4.78,5.31"/></g><g transform="translate(606.998,71.2207)"><path fill-rule="evenodd" fill="#231f20" d="m0,0,0,7.4c0,3.37,2.79,6.12,6.2,6.12s6.2-2.75,6.2-6.12v-7.4c0-3.36-2.79-6.12-6.2-6.12-3.41,0.02-6.2,2.78-6.2,6.14"/></g><g transform="translate(608.416,71.7617)"><path fill-rule="evenodd" fill="#FFF" d="m0,0,0,6.32c0,2.92,2.15,5.31,4.78,5.31s4.78-2.39,4.78-5.31v-6.29c0-2.92-2.16-5.31-4.78-5.31-2.63,0-4.78,2.39-4.78,5.31"/></g><g transform="translate(515.5615,141.0908)"><path fill-rule="nonzero" fill="#231f20" d="m0,0c-1.67,0-3.19,0.629-4.4,1.82s-1.84,2.69-1.84,4.34c0,1.63,0.653,3.17,1.84,4.34,1.24,1.15,2.76,1.76,4.4,1.76s3.15-0.602,4.38-1.74c1.18-1.25,1.79-2.75,1.79-4.44,0-1.72-0.59-3.18-1.77-4.34-1.21-1.19-2.73-1.82-4.4-1.82"/></g><g transform="translate(515.5615,151.8691)"><path fill-rule="nonzero" fill="#FFF" d="m0,0c-1.27,0-2.4-0.45-3.35-1.34-0.887-0.877-1.39-2.05-1.39-3.28,0-1.27,0.469-2.38,1.4-3.3,0.932-0.917,2.05-1.38,3.34-1.38,1.28,0,2.41,0.467,3.34,1.38,0.89,0.88,1.34,1.99,1.34,3.3,0,1.29-0.463,2.43-1.34,3.3-0.94,0.87-2.07,1.32-3.34,1.32"/></g><g transform="translate(635.3193,71.2207)"><path fill-rule="evenodd" fill="#231f20" d="m0,0,0,7.4c0,3.37,2.79,6.12,6.19,6.12,3.41,0,6.2-2.75,6.2-6.12v-7.38c0-3.36-2.8-6.12-6.21-6.12-3.4,0-6.19,2.76-6.19,6.12"/></g><g transform="translate(636.7363,71.7617)"><path fill-rule="evenodd" fill="#FFF" d="m0,0,0,6.32c0,2.92,2.15,5.31,4.78,5.31s4.78-2.39,4.78-5.31v-6.29c0-2.92-2.15-5.31-4.78-5.31s-4.78,2.39-4.78,5.31"/></g><g transform="translate(451.167,69.4297)"><path fill-rule="evenodd" fill="#231f20" d="m0,0,0,7.4c0,3.36,2.79,6.12,6.2,6.12s6.2-2.75,6.2-6.12v-7.4c0-3.36-2.79-6.12-6.2-6.12-3.41,0.02-6.2,2.78-6.2,6.14"/></g><g transform="translate(452.585,69.9707)"><path fill-rule="evenodd" fill="#FFF" d="m0,0,0,6.32c0,2.92,2.15,5.31,4.78,5.31s4.78-2.39,4.78-5.31v-6.29c0-2.92-2.15-5.31-4.78-5.31s-4.78,2.39-4.78,5.31"/></g><g transform="translate(395.1475,63.2373)"><path fill-rule="nonzero" fill="#231f20" d="m0,0c-1.67,0-3.19,0.628-4.4,1.82s-1.84,2.69-1.84,4.34c0,1.63,0.654,3.17,1.84,4.34,1.24,1.15,2.76,1.76,4.4,1.76s3.15-0.602,4.38-1.74c1.18-1.25,1.79-2.75,1.79-4.44,0-1.72-0.59-3.18-1.77-4.34-1.21-1.19-2.73-1.82-4.4-1.82"/></g><g transform="translate(395.1475,74.0146)"><path fill-rule="nonzero" fill="#FFF" d="m0,0c-1.27,0-2.4-0.45-3.35-1.34-0.887-0.877-1.39-2.05-1.39-3.28,0-1.27,0.47-2.38,1.4-3.3,0.93-0.91,2.06-1.38,3.34-1.38s2.41,0.466,3.34,1.38c0.891,0.879,1.34,1.99,1.34,3.3,0,1.29-0.463,2.43-1.34,3.3-0.94,0.87-2.07,1.32-3.34,1.32"/></g><g transform="translate(732.2188,180.7969)"><path fill-rule="evenodd" fill="#231f20" d="m0,0,0,7.4c0,3.37,2.79,6.12,6.2,6.12s6.2-2.75,6.2-6.12v-7.4c0-3.36-2.79-6.12-6.2-6.12-3.41,0.02-6.2,2.78-6.2,6.14"/></g><g transform="translate(733.6367,181.3379)"><path fill-rule="evenodd" fill="#FFF" d="m0,0,0,6.32c0,2.92,2.15,5.31,4.78,5.31s4.78-2.39,4.78-5.31v-6.29c0-2.92-2.16-5.31-4.78-5.31-2.63,0-4.78,2.39-4.78,5.31"/></g><g transform="translate(759.416,180.7969)"><path fill-rule="evenodd" fill="#231f20" d="m0,0,0,7.4c0,3.37,2.79,6.12,6.2,6.12s6.2-2.75,6.2-6.12v-7.38c0-3.36-2.8-6.12-6.2-6.12-3.41,0-6.2,2.76-6.2,6.12"/></g><g transform="translate(760.833,181.3379)"><path fill-rule="evenodd" fill="#FFF" d="m0,0,0,6.32c0,2.92,2.15,5.31,4.78,5.31s4.78-2.39,4.78-5.31v-6.29c0-2.92-2.16-5.31-4.78-5.31-2.63,0-4.78,2.39-4.78,5.31"/></g><g transform="translate(499.2021,292.8262)"><path fill-rule="evenodd" fill="#231f20" d="m0,0,7.5,0c3.41,0,6.2-2.75,6.2-6.12,0-3.36-2.79-6.12-6.2-6.12h-7.5c-3.41,0-6.2,2.75-6.2,6.12,0,3.33,2.79,6.08,6.2,6.08"/></g><g transform="translate(499.749,291.4258)"><path fill-rule="evenodd" fill="#FFF" d="m0,0,6.4,0c2.96,0,5.38-2.12,5.38-4.72s-2.42-4.72-5.38-4.72h-6.4c-2.96,0-5.38,2.12-5.38,4.72-0.02,2.6,2.4,4.72,5.36,4.72"/></g><g transform="translate(499.2021,264.9697)"><path fill-rule="evenodd" fill="#231f20" d="m0,0,7.5,0c3.41,0,6.2-2.75,6.2-6.12,0-3.36-2.79-6.12-6.2-6.12h-7.5c-3.41,0-6.2,2.75-6.2,6.12,0,3.33,2.79,6.08,6.2,6.08"/></g><g transform="translate(499.749,263.5693)"><path fill-rule="evenodd" fill="#FFF" d="m0,0,6.4,0c2.96,0,5.38-2.12,5.38-4.72s-2.42-4.72-5.38-4.72h-6.4c-2.96,0-5.38,2.12-5.38,4.72-0.02,2.6,2.4,4.72,5.36,4.72"/></g><g transform="translate(499.2021,220.709)"><path fill-rule="evenodd" fill="#231f20" d="m0,0,7.5,0c3.41,0,6.2-2.75,6.2-6.12,0-3.36-2.79-6.12-6.2-6.12h-7.5c-3.41,0-6.2,2.75-6.2,6.12,0,3.33,2.79,6.08,6.2,6.08"/></g><g transform="translate(499.749,219.3086)"><path fill-rule="evenodd" fill="#FFF" d="m0,0,6.4,0c2.96,0,5.38-2.12,5.38-4.72,0-2.59-2.42-4.72-5.38-4.72h-6.4c-2.96,0-5.38,2.12-5.38,4.72-0.02,2.6,2.4,4.72,5.36,4.72"/></g><g transform="translate(539.7207,398.0889)"><path fill-rule="evenodd" fill="#231f20" d="m0,0,7.5,0c3.41,0,6.2-2.75,6.2-6.12,0-3.36-2.79-6.12-6.2-6.12h-7.5c-3.41,0-6.2,2.75-6.2,6.12,0,3.33,2.79,6.08,6.2,6.08"/></g><g transform="translate(540.2676,396.689)"><path fill-rule="evenodd" fill="#FFF" d="m0,0,6.4,0c2.96,0,5.38-2.12,5.38-4.72s-2.42-4.72-5.38-4.72h-6.4c-2.96,0-5.38,2.12-5.38,4.72-0.02,2.6,2.4,4.72,5.36,4.72"/></g><g transform="translate(547.75,349.5703)"><path fill-rule="evenodd" fill="#231f20" d="m0,0,0-7.4c0-3.37-2.79-6.12-6.2-6.12s-6.2,2.75-6.2,6.12v7.4c0,3.36,2.79,6.12,6.2,6.12,3.41-0.02,6.2-2.78,6.2-6.14"/></g><g transform="translate(546.332,349.0298)"><path fill-rule="evenodd" fill="#FFF" d="m0,0,0-6.32c0-2.92-2.15-5.31-4.78-5.31s-4.78,2.39-4.78,5.31v6.32c0,2.92,2.15,5.31,4.78,5.31,2.63-0.03,4.78-2.42,4.78-5.34"/></g><g transform="translate(318.3315,248.5957)"><path fill-rule="evenodd" fill="#231f20" d="m0,0,3.81,6.38c1.73,2.9,5.55,3.87,8.48,2.16,2.94-1.71,3.92-5.48,2.19-8.38l-3.8-6.38c-1.76-2.89-5.58-3.88-8.51-2.16-2.94,1.71-3.92,5.48-2.19,8.38"/></g><g transform="translate(319.8306,248.3506)"><path fill-rule="evenodd" fill="#FFF" d="M0,0,3.25,5.45c1.51,2.51,4.59,3.49,6.85,2.17,2.3-1.31,2.9-4.45,1.4-6.97l-3.27-5.44c-1.5-2.52-4.58-3.5-6.85-2.18-2.26,1.32-2.88,4.45-1.38,6.97"/></g><g transform="translate(358.7197,292.3848)"><path fill-rule="evenodd" fill="#231f20" d="m0,0-6.49,3.7c-2.95,1.68-3.97,5.44-2.27,8.36,1.7,2.91,5.51,3.92,8.46,2.24l6.5-3.7c2.95-1.69,4-5.45,2.26-8.36-1.7-2.92-5.51-3.92-8.46-2.24"/></g><g transform="translate(358.9546,293.8672)"><path fill-rule="evenodd" fill="#FFF" d="m0,0-5.54,3.16c-2.56,1.46-3.58,4.5-2.27,6.74,1.31,2.25,4.48,2.89,7.05,1.43l5.54-3.13c2.56-1.46,3.58-4.49,2.27-6.74-1.32-2.25-4.49-2.89-7.05-1.43"/></g><g transform="translate(422.3516,344.5308)"><path fill-rule="evenodd" fill="#231f20" d="m0,0,7.5,0c3.41,0,6.2-2.75,6.2-6.12,0-3.36-2.79-6.12-6.2-6.12h-7.5c-3.41,0-6.2,2.75-6.2,6.12,0,3.33,2.79,6.08,6.2,6.08"/></g><g transform="translate(422.8984,343.1309)"><path fill-rule="evenodd" fill="#FFF" d="m0,0,6.4,0c2.96,0,5.38-2.12,5.38-4.72s-2.42-4.72-5.38-4.72h-6.4c-2.96,0-5.38,2.12-5.38,4.72-0.02,2.6,2.4,4.72,5.36,4.72"/></g><text transform="matrix(1,0,0,-0.98755257,375.9087,77.0645)"><tspan style="writing-mode:lr-tb;" font-weight="normal" fill-rule="nonzero" font-size="7.06169987px" font-stretch="normal" font-variant="normal" y="0" x="0 4.0181074 7.8314252 11.50351 15.323889 19.151331 22.618626 24.38405 29.969854 33.705494" font-family="Franklin Gothic Book" fill="#231f20">Sheung Wan</tspan></text>
<text font-size="8.34589958px" font-weight="normal" fill-rule="nonzero" transform="matrix(1,0,0,-0.98755077,410.4619,56.4668)" font-stretch="normal" font-variant="normal" font-family="Franklin Gothic Book" fill="#ed1c24"><tspan style="writing-mode:lr-tb;" y="0" x="0 4.8322759 9.1721439 13.695621 16.266159 19.020306 23.435287">Central</tspan><tspan style="writing-mode:lr-tb;" y="-0.1168426" x="33.316833 37.706776 42.205215 48.998779 50.909988 53.664139 58.079117 59.998676 62.569214">Admiralty</tspan></text>
<text font-size="7.06169987px" font-weight="normal" fill-rule="nonzero" transform="matrix(1,0,0,-0.98755257,481.0713,55.1084)" font-stretch="normal" font-variant="normal" font-family="Franklin Gothic Book" fill="#231f20"><tspan style="writing-mode:lr-tb;" y="0" x="0 5.5928664 9.3285055 13.155947 14.921372 19.010096 22.823414 26.559053">Wan Chai</tspan><tspan style="writing-mode:lr-tb;" y="-23.557831" x="21.76416 25.852884 29.588524 33.408901 36.685532 40.237568 44.848858 48.429138 51.359745 53.125168 57.390434 60.970718">Causeway Bay</tspan><tspan style="writing-mode:lr-tb;" y="-0.098863803" x="63.286957 66.711884 68.32901 72.156448 73.921875 78.462547 82.198189">Tin Hau</tspan><tspan style="writing-mode:lr-tb;" y="-23.656694" x="84.514427 87.967598 91.639679 94.203079 96.378082 98.701378 102.37347 105.65009 108.92672 110.69215 115.23282 116.84995 118.47414">Fortress Hill</tspan></text>
<text font-size="8.34589958px" font-weight="normal" fill-rule="nonzero" transform="matrix(1,0,0,-0.98755077,593.4189,54.5801)" font-stretch="normal" font-variant="normal" font-family="Franklin Gothic Book" fill="#ed1c24"><tspan style="writing-mode:lr-tb;" y="0" x="0 5.4832563 9.8231239 12.852686 15.423223 19.93001 22.016483 26.565001 30.904867 32.816078 37.339558">North Point</tspan><tspan style="writing-mode:lr-tb;" y="-34.894207" x="30.153736 35.419998 39.935131 44.350113 47.104259 50.100437 53.563988 55.650463 60.691383 64.922752">Quarry Bay</tspan></text>
<text font-size="7.06169987px" font-weight="normal" fill-rule="nonzero" transform="matrix(1,0,0,-0.98755257,659.6865,55.2031)" font-stretch="normal" font-variant="normal" font-family="Franklin Gothic Book" fill="#231f20"><tspan style="writing-mode:lr-tb;" y="0" x="0 2.9588523 6.6944914 8.3116207 10.077045 14.335251 18.007336">Tai Koo</tspan><tspan style="writing-mode:lr-tb;" y="-23.458967" x="22.194923 26.21303 29.948669 31.5658 33.331223 38.924091 42.659729 46.487171 48.252598 52.79327">Sai Wan Ho</tspan><tspan style="writing-mode:lr-tb;" y="-11.658867" x="78.038849 82.056953 85.87027 89.605911 93.426292 95.191719 99.442856 103.11494 104.73207 106.4975 112.08331 115.81894">Shau Kei Wan</tspan><tspan style="writing-mode:lr-tb;" y="14.059845" x="95.347076 99.887749 103.56689 107.39433 110.86163 112.62705 116.07317 119.8088 121.57423 125.66295 129.47627 133.29665 136.96873">Heng Fa Chuen</tspan><tspan style="writing-mode:lr-tb;" y="38.966461" x="113.63688 117.7256 121.53892 125.27456 126.89169 128.65712 134.24292 137.97856">Chai Wan</tspan></text>
<text font-size="8.34589958px" font-weight="normal" fill-rule="nonzero" transform="matrix(1,0,0,-0.98755077,513.1582,214.7451)" font-stretch="normal" font-variant="normal" font-family="Franklin Gothic Book" fill="#ed1c24"><tspan style="writing-mode:lr-tb;" y="0" x="0 3.7556551 8.1706362 12.694114">Yau </tspan><tspan style="writing-mode:lr-tb;" y="8.3458996" x="0 6.760179 11.17516 13.261635 16.766912 21.106781">Ma Tei</tspan><tspan style="writing-mode:lr-tb;" y="-44.92598" x="0.1418803 6.9020591 11.233582 15.757059 19.854897">Mong </tspan><tspan style="writing-mode:lr-tb;" y="-36.580078" x="0.1418803 5.174458 9.5143261">Kok</tspan><tspan style="writing-mode:lr-tb;" y="-73.811142" x="0.1418803 4.8072386 7.5613856 9.4725962 13.996075 17.885263 22.225132">Prince </tspan><tspan style="writing-mode:lr-tb;" y="-65.46524" x="0.1418803 4.7154336 9.2138739 14.663746 19.078728 21.690994">Edward</tspan></text>
<text font-size="7.06169987px" font-weight="normal" fill-rule="nonzero" transform="matrix(1,0,0,-0.98755257,518.5059,312.6025)" font-stretch="normal" font-variant="normal" font-family="Franklin Gothic Book" fill="#231f20"><tspan style="writing-mode:lr-tb;" y="0" x="0 4.0181074 7.8314252 11.50351 15.041421">Shek </tspan><tspan style="writing-mode:lr-tb;" y="7.0616999" x="-2.9023588 1.5323889 3.1495183 6.9204659 8.6858912 14.405868 18.077951">Kip Mei</tspan></text>
<text transform="matrix(1,0,0,-0.98755077,517.4248,356.8931)"><tspan style="writing-mode:lr-tb;" font-weight="normal" fill-rule="nonzero" font-size="8.34589958px" font-stretch="normal" font-variant="normal" y="0" x="0 5.0409236 9.2639494 14.805627 16.725183 21.065052 25.396574 29.920052 32.006527 35.520149 39.86002 44.383495" font-family="Franklin Gothic Book" fill="#ed1c24">Kowloon Tong</tspan></text>
<text font-size="7.06169987px" font-weight="normal" fill-rule="nonzero" transform="matrix(1,0,0,-0.98755257,572.8281,330.5244)" font-stretch="normal" font-variant="normal" font-family="Franklin Gothic Book" fill="#231f20"><tspan style="writing-mode:lr-tb;" y="0" x="0 3.460233 7.1252551 10.663167 12.428592 15.775838">Lok Fu</tspan><tspan style="writing-mode:lr-tb;" y="-25.987057" x="32.886337 38.493328 42.158348 45.98579 49.453087 51.21851 54.177361 57.913002 59.530132 61.295555 65.31366 66.930794">Wong Tai Sin</tspan><tspan style="writing-mode:lr-tb;" y="-1.2146124" x="70.737045 75.305969 76.923096 80.658737 86.40696 90.079048 93.906487 97.705681 99.471107 104.01178 105.62891 107.2531">Diamond Hill</tspan><tspan style="writing-mode:lr-tb;" y="-13.939796" x="141.17751 145.26624 149.07954 152.74457 154.36169 157.89255 162.43323 166.2536 170.08104">Choi Hung</tspan><tspan style="writing-mode:lr-tb;" y="25.407997" x="98.602516 102.86073 106.43394 111.12291 112.7471 116.41212 120.08421 123.91165 125.67708 129.94234 133.52263">Kowloon Bay</tspan><tspan style="writing-mode:lr-tb;" y="58.435566" x="95.396507 100.03604 103.50333 107.23898 111.05936 112.82478 115.78363 119.51927 123.34671 125.11214 129.37035 133.04243">Ngau Tau Kok</tspan><tspan style="writing-mode:lr-tb;" y="94.266632" x="103.92704 108.36179 113.05076 116.87113 120.69858 122.464 125.43697 129.10201 132.92944">Kwun Tong</tspan><tspan style="writing-mode:lr-tb;" y="130.17538" x="113.43209 116.89232 120.62796 126.37618 128.1416 131.56653 133.18365">Lam Tin</tspan><tspan style="writing-mode:lr-tb;" y="190.45406" x="-121.60954 -118.57301 -115.29638 -113.67924 -107.93102 -106.1656 -102.14749 -98.334175 -94.598534 -92.833107 -89.796577 -86.519951 -82.69957">Tsim Sha Tsui</tspan><tspan style="writing-mode:lr-tb;" y="152.47623" x="-62.962116 -60.328102 -56.656017 -54.445705 -50.646511 -46.910873">Jordan</tspan><tspan style="writing-mode:lr-tb;" y="10.536056" x="-109.90124 -105.88313 -102.06981 -98.334175 -92.585945">Sham </tspan><tspan style="writing-mode:lr-tb;" y="17.597755" x="-113.38265 -109.36455 -105.55123 -101.73085 -100.11372 -98.348297 -94.499672">Shui Po</tspan><tspan style="writing-mode:lr-tb;" y="-9.5474186" x="-92.797798 -88.709076 -84.89576 -81.223671 -77.403297 -73.575851">Cheung</tspan><tspan style="writing-mode:lr-tb;" y="-2.4857185" x="-92.797798 -88.779694 -84.966377 -81.230736 -79.465309 -73.872444 -70.136803">Sha Wan</tspan><tspan style="writing-mode:lr-tb;" y="-23.826176" x="-128.07098 -124.61076 -120.87512 -119.25799">Lai </tspan><tspan style="writing-mode:lr-tb;" y="-16.764477" x="-134.15817 -130.06946 -126.25613 -124.63901 -122.87358 -118.61537 -114.94329">Chi Kok</tspan></text>
<text transform="matrix(1,0,0,-0.98755077,428.5791,323.6934)"><tspan style="writing-mode:lr-tb;" font-weight="normal" fill-rule="nonzero" font-size="8.34589958px" font-stretch="normal" font-variant="normal" y="0" x="0 6.760179 11.100047 13.011258 15.097733 19.178879 23.510401" font-family="Franklin Gothic Book" fill="#ed1c24">Mei Foo</tspan></text>
<text font-size="7.06169987px" font-weight="normal" fill-rule="nonzero" transform="matrix(1,0,0,-0.98755257,341.1191,347.9175)" font-stretch="normal" font-variant="normal" font-family="Franklin Gothic Book" fill="#231f20"><tspan style="writing-mode:lr-tb;" y="0" x="0 4.4347477 9.0460377 12.781677 14.398807 16.16423 19.617403 23.289486 27.116928">Kwai Fong</tspan><tspan style="writing-mode:lr-tb;" y="22.505638" x="-25.280886 -20.846138 -16.234848 -12.499209 -10.88208 -9.1166544 -4.5759816 -2.9588523 0.8685891">Kwai Hing</tspan><tspan style="writing-mode:lr-tb;" y="0.6143679" x="-52.941566 -49.982712 -46.247074 -44.629944 -42.864517 -37.25753 -33.592506 -31.827082 -27.29347 -23.557831">Tai Wo Hau</tspan><tspan style="writing-mode:lr-tb;" y="22.505638" x="-79.246399 -76.209869 -72.933235 -69.112862 -65.433716 -61.60627 -59.840847 -54.247978 -50.512341">Tsuen Wan</tspan></text>
<text font-size="8.34589958px" font-weight="normal" fill-rule="nonzero" transform="matrix(1,0,0,-0.98755077,732.4922,166.4551)" font-stretch="normal" font-variant="normal" font-family="Franklin Gothic Book" fill="#ed1c24"><tspan style="writing-mode:lr-tb;" y="0" x="0 3.7556551 8.1706362">Yau</tspan><tspan style="writing-mode:lr-tb;" y="8.3458996" x="-1.8945193 1.6191046 5.9506269 10.474105">Tong</tspan><tspan style="writing-mode:lr-tb;" y="0" x="18.26083 22.30859 24.219801 28.74328 30.829754 35.862331 40.202202 44.725677">Tiu Keng</tspan><tspan style="writing-mode:lr-tb;" y="8.3458996" x="25.021008 29.110498 33.450367 37.973846">Leng</tspan></text>
<text font-size="7.06169987px" font-weight="normal" fill-rule="nonzero" transform="matrix(1,0,0,-0.98755257,796.6689,221.8145)" font-stretch="normal" font-variant="normal" font-family="Franklin Gothic Book" fill="#231f20"><tspan style="writing-mode:lr-tb;" y="0" x="0 3.036531 6.3131599 9.9852438 13.805623 17.633064">Tseung</tspan><tspan style="writing-mode:lr-tb;" y="7.0616999" x="0 4.4347477 9.0460377 12.781677 16.609118 18.374544">Kwan O</tspan><tspan style="writing-mode:lr-tb;" y="-28.20443" x="1.3346612 5.8753343 9.6109734 13.438416 16.90571 18.671135 23.211807 26.947447">Hang Hau</tspan><tspan style="writing-mode:lr-tb;" y="-68.378441" x="1.3346612 5.1832876 8.8553715 10.620797 14.08103 17.816669">Po Lam</tspan><tspan style="writing-mode:lr-tb;" y="82.438286" x="1.129872 4.4276857 8.8836184 13.424292 17.209362 21.22747 22.992895 26.905077 30.640717 32.935768">LOHAS Park</tspan><tspan style="writing-mode:lr-tb;" y="-20.881447" x="-355.11877 -350.66284 -349.03864 -346.10803 -340.42337 -336.65244 -335.03531">Olympic</tspan></text>
<text transform="matrix(1,0,0,-0.98755077,381.0884,347.6128)"><tspan style="writing-mode:lr-tb;" font-weight="normal" fill-rule="nonzero" font-size="8.34589958px" font-stretch="normal" font-variant="normal" y="0" x="0 4.0894909 8.5044718 10.415683 12.502158 17.743383 19.654594 24.178072" font-family="Franklin Gothic Book" fill="#ed1c24">Lai King</tspan></text>
<text transform="matrix(1,0,0,-0.98755257,274.709,184.2842)"><tspan style="writing-mode:lr-tb;" font-weight="normal" fill-rule="nonzero" font-size="7.06169987px" font-stretch="normal" font-variant="normal" y="0" x="0 2.9306054 6.7509851 10.578426 14.045721 15.811147 19.89987 23.713188 27.533567 31.36101" font-family="Franklin Gothic Book" fill="#231f20">Tung Chung</tspan></text>
<text transform="matrix(1,0,0,-0.98755077,553.5469,144.0049)"><tspan style="writing-mode:lr-tb;" font-weight="normal" fill-rule="nonzero" font-size="8.34589958px" font-stretch="normal" font-variant="normal" y="0" x="0 5.3664136 9.8898916 14.413369 18.511206 20.597681 25.964094 30.295616" font-family="Franklin Gothic Book" fill="#ed1c24">Hung Hom</tspan></text>
<text font-size="7.06169987px" font-weight="normal" fill-rule="nonzero" transform="matrix(1,0,0,-0.98755257,550.0469,266.2812)" font-stretch="normal" font-variant="normal" font-family="Franklin Gothic Book" fill="#231f20"><tspan style="writing-mode:lr-tb;" y="0" x="0 5.7199769 9.3920612 13.219502 16.686796 18.452223 22.710426 26.37545 29.913361 31.678785 35.548599 39.284237 42.560867">Mong Kok East</tspan><tspan style="writing-mode:lr-tb;" y="-156.97453" x="-39.658508 -35.6404 -31.827082 -28.091442 -26.326017 -22.901093 -21.283964">Sha Tin</tspan><tspan style="writing-mode:lr-tb;" y="-195.83505" x="-37.363453 -33.910282 -30.238199 -28.472775 -25.506861 -21.771221">Fo Tan</tspan><tspan style="writing-mode:lr-tb;" y="-240.09074" x="-45.858681 -41.614597 -37.787155 -36.170029 -33.098186 -29.426104 -27.060434 -23.783806 -22.166676 -19.991673">University</tspan><tspan style="writing-mode:lr-tb;" y="-266.3179" x="-47.793587 -44.834732 -41.099094 -39.481964 -37.716541 -33.867912 -30.195829">Tai Po </tspan><tspan style="writing-mode:lr-tb;" y="-259.2562" x="-48.584496 -42.864517 -39.12888 -36.833828 -33.451271 -29.814497">Market</tspan><tspan style="writing-mode:lr-tb;" y="-289.45203" x="-81.033005 -78.074158 -74.338516 -72.72139 -70.955963 -65.348969">Tai Wo</tspan><tspan style="writing-mode:lr-tb;" y="-266.3179" x="-116.88526 -113.43915 -109.70351 -105.87607 -104.25188 -102.63475 -98.807304">Fanling</tspan><tspan style="writing-mode:lr-tb;" y="-291.53522" x="-165.15198 -161.13387 -157.32056 -153.64847 -149.82809 -146.00064 -142.53336 -140.76793 -136.74982 -132.93651 -129.11612">Sheung Shui</tspan><tspan style="writing-mode:lr-tb;" y="-278.27335" x="-215.17706 -211.71683 -208.0518 -206.28638 -200.71471">Lo Wu</tspan></text>
<text transform="matrix(1,0,0,-0.98755077,505.6592,388.3223)"><tspan style="writing-mode:lr-tb;" font-weight="normal" fill-rule="nonzero" font-size="8.34589958px" font-stretch="normal" font-variant="normal" y="0" x="0 3.496932 7.9119134 9.8231239 11.909599 18.511206 22.926188" font-family="Franklin Gothic Book" fill="#ed1c24">Tai Wai</tspan></text>
<text font-size="7.06169987px" font-weight="normal" fill-rule="nonzero" transform="matrix(1,0,0,-0.98755257,562.0811,424.6499)" font-stretch="normal" font-variant="normal" font-family="Franklin Gothic Book" fill="#231f20"><tspan style="writing-mode:lr-tb;" y="0" x="0 4.0887241 7.9020424 11.574126 13.339551 17.548325 21.375767 25.203207">Che Kung</tspan><tspan style="writing-mode:lr-tb;" y="7.0616999" x="3.6367755 6.6026893 10.274774 15.959442 19.730391 21.35458">Temple</tspan><tspan style="writing-mode:lr-tb;" y="12.011952" x="56.754883 60.772991 64.586311 68.321945 70.087372 73.512299 75.129425 78.956871 80.72229 86.315163 90.050797">Sha Tin Wai</tspan><tspan style="writing-mode:lr-tb;" y="-22.696304" x="65.850349 69.939079 71.556206 73.724152 76.654755 78.420181 82.876114 86.703552">City One</tspan><tspan style="writing-mode:lr-tb;" y="-57.920063" x="66.069267 70.087372 73.900688 77.572777 81.110687 82.876114 88.596085 92.416466">Shek Mun</tspan><tspan style="writing-mode:lr-tb;" y="-87.515648" x="73.088593 76.047447 79.783089 81.400215 83.165642 87.183746 90.997063 94.817444 96.434578 98.199997 102.74068 106.47631 110.30376 122.39339 126.93406 130.6132 134.44064 137.90794 139.67337 144.1293 162.72981 168.4498 172.18542 173.95085 178.40678 182.23424 183.99965 188.01776 191.83109 195.56673 210.80586 216.38461 220.21205 221.97748 226.36279 230.09843 231.71556 233.48099 237.4991 241.31241">Tai Shui HangHeng OnMa On ShanWu Kai Sha</tspan></text>
<text font-size="8.34589958px" font-weight="normal" fill-rule="nonzero" transform="matrix(1,0,0,-0.98755077,433.7861,99.5098)" font-stretch="normal" font-variant="normal" font-family="Franklin Gothic Book" fill="#ed1c24"><tspan style="writing-mode:lr-tb;" y="0" x="0 5.3664136 9.7062817 14.229759 18.327597 20.414072 25.454994 29.786516 34.309994">Hong Kong</tspan><tspan style="writing-mode:lr-tb;" y="-94.650848" x="-24.20311 -19.170532 -14.947507 -9.4058294 -7.4862723 -3.1547501 1.1767719">Kowloon</tspan><tspan style="writing-mode:lr-tb;" y="-205.69305" x="-111.4428 -107.85406 -103.98157 -102.07036 -97.546883 -93.449043 -91.362564 -87.106155">Tsing Yi</tspan></text>
<text font-size="7.06169987px" font-weight="normal" fill-rule="nonzero" transform="matrix(1,0,0,-0.98755257,249.5244,239.3437)" font-stretch="normal" font-variant="normal" font-family="Franklin Gothic Book" fill="#231f20"><tspan style="writing-mode:lr-tb;" y="0" x="0 3.7850711 5.4022007 7.6972532 11.468201 15.140285 17.703682">Airport</tspan><tspan style="writing-mode:lr-tb;" y="-30.767826" x="29.482597 33.26767 36.544296 38.161427 41.897064 47.504055 51.17614 53.5065 55.130692 58.936947 60.702374 64.572182 67.566345 71.337296 75.002319">AsiaWorld-Expo </tspan></text>
<g transform="translate(537.3516,153.3379)"><path fill-rule="evenodd" fill="#231f20" d="m0,0,7.5,0c3.41,0,6.2-2.75,6.2-6.12,0-3.36-2.79-6.12-6.2-6.12h-7.5c-3.41,0-6.2,2.75-6.2,6.12,0,3.33,2.79,6.08,6.2,6.08"/></g><g transform="translate(537.8994,151.9375)"><path fill-rule="evenodd" fill="#FFF" d="m0,0,6.4,0c2.96,0,5.38-2.12,5.38-4.72s-2.42-4.72-5.38-4.72h-6.4c-2.96,0-5.38,2.12-5.38,4.72-0.02,2.6,2.4,4.72,5.36,4.72"/></g><g transform="translate(446.2822,203.0654)"><path fill-rule="evenodd" fill="#231f20" d="m0,0,7.5,0c3.41,0,6.2-2.75,6.2-6.12,0-3.36-2.79-6.12-6.2-6.12h-7.5c-3.41,0-6.2,2.75-6.2,6.12,0,3.33,2.79,6.08,6.2,6.08"/></g><g transform="translate(446.8291,201.666)"><path fill-rule="evenodd" fill="#FFF" d="m0,0,6.4,0c2.96,0,5.38-2.12,5.38-4.72,0-2.59-2.42-4.72-5.38-4.72h-6.4c-2.96,0-5.38,2.12-5.38,4.72-0.02,2.6,2.4,4.72,5.36,4.72"/></g><text transform="matrix(1,0,0,-0.98755077,316.2759,227.6377)"><tspan style="writing-mode:lr-tb;" font-weight="normal" fill-rule="nonzero" font-size="8.34589958px" font-stretch="normal" font-variant="normal" y="0" x="0 4.748817 9.2639494 13.787427 18.143986 21.607534 23.69401 28.734934 32.966305" font-family="Franklin Gothic Book" fill="#ed1c24">Sunny Bay</tspan></text>
<text transform="matrix(1,0,0,-0.98755257,335.5303,208.7412)"><tspan style="writing-mode:lr-tb;" font-weight="normal" fill-rule="nonzero" font-size="7.06169987px" font-stretch="normal" font-variant="normal" y="0" x="0 4.5689201 6.186049 9.462678 13.290119 16.849216 19.779821 21.404013 25.139652 28.967093 32.77335 34.538776 38.747547 42.419632 45.696262 49.368343 51.931744" font-family="Franklin Gothic Book" fill="#231f20">Disneyland Resort</tspan></text>
<text font-size="8.34589958px" font-weight="normal" fill-rule="nonzero" transform="matrix(1,0,0,-0.98755077,446.124,298.7231)" font-stretch="normal" font-variant="normal" font-family="Franklin Gothic Book" fill="#ed1c24"><tspan style="writing-mode:lr-tb;" y="0" x="0 5.4832563 9.8982372">Nam</tspan><tspan style="writing-mode:lr-tb;" y="5.8421302" x="0 4.8322759 9.3390617 13.67893 18.010452 22.53393">Cheong</tspan></text>
<g transform="translate(436.3057,292.21)"><path fill-rule="evenodd" fill="#231f20" d="m0,0,6.16,4.22c2.8,1.92,3.5,5.75,1.56,8.51s-5.82,3.46-8.62,1.54l-6.16-4.22c-2.8-1.84-3.54-5.68-1.56-8.44,1.94-2.77,5.82-3.46,8.62-1.54"/></g><g transform="translate(435.9473,293.668)"><path fill-rule="evenodd" fill="#FFF" d="m0,0,5.26,3.6c2.43,1.66,3.19,4.77,1.7,6.9-1.5,2.13-4.71,2.51-7.14,0.849l-5.27-3.55c-2.43-1.66-3.19-4.77-1.69-6.9s4.71-2.51,7.14-0.85"/></g><text font-size="7.06169987px" font-weight="normal" fill-rule="nonzero" transform="matrix(1,0,0,-0.98755257,321.5078,500.3423)" font-stretch="normal" font-variant="normal" font-family="Franklin Gothic Book" fill="#231f20"><tspan style="writing-mode:lr-tb;" y="0" x="0 3.460233 7.1252551 10.663167 12.428592 18.148569 21.884209 23.649633 27.738358 31.551676 35.287315">Lok Ma Chau</tspan><tspan style="writing-mode:lr-tb;" y="41.176773" x="248.6707 252.99953 256.73517 260.02591 263.698 266.98874 270.65378 274.47415 276.83981 280.11646">Racecourse</tspan><tspan style="writing-mode:lr-tb;" y="371.02173" x="179.36719 183.23698 186.97263 190.24925 192.41721 194.18263 197.21916 200.49579 202.11292 207.86115">East Tsim </tspan><tspan style="writing-mode:lr-tb;" y="378.08344" x="181.95177 185.96986 189.78319 193.51883 195.28426 198.32079 201.59741 205.41779">Sha Tsui</tspan><tspan style="writing-mode:lr-tb;" y="301.15326" x="155.64693 159.31195 163.13939 166.41602 168.58397 170.2011">Austin</tspan><tspan style="writing-mode:lr-tb;" y="108.42534" x="-62.340687 -59.304157 -56.027527 -52.20715 -48.528004 -44.700562 -42.935135 -37.349331 -33.613693 -29.786251 -28.020826 -22.420898 -18.748814 -15.472185">Tsuen Wan West</tspan><tspan style="writing-mode:lr-tb;" y="73.914818" x="-71.407913 -67.015533 -63.279892 -57.53167 -55.766247 -51.748138 -47.934818 -44.255672 -40.435295 -36.607853 -33.140556 -31.375134 -27.159298 -23.487215 -19.751575">Kam Sheung Road</tspan><tspan style="writing-mode:lr-tb;" y="42.49025" x="-71.443222 -68.194839 -64.374458 -60.702374 -56.874931 -55.109509 -51.649273 -47.977188 -44.14975">Yuen Long</tspan><tspan style="writing-mode:lr-tb;" y="12.520394" x="-72.368301 -68.908066 -65.24305 -61.415604 -57.948311 -56.182884 -52.235394 -50.618267 -46.790825">Long Ping</tspan><tspan style="writing-mode:lr-tb;" y="16.602057" x="-157.94199 -154.51706 -152.89993 -149.07249 -147.30707 -143.28896 -139.47563 -135.65526 -134.03813 -132.27271 -126.6869 -122.95126">Tin Shui Wai</tspan><tspan style="writing-mode:lr-tb;" y="60.794174" x="-148.88182 -144.86371 -143.24658 -139.42621 -137.66078 -133.1201 -129.44803 -125.62058">Siu Hong</tspan><tspan style="writing-mode:lr-tb;" y="105.80545" x="-152.32793 -149.39732 -145.57695 -141.90486 -138.07742 -136.312 -130.59201 -126.77164">Tuen Mun</tspan></text>
<g transform="translate(328.9971,547.5767)"><path fill-rule="nonzero" fill="#758ed0" d="m0,0c-2.57,2.53-5.72,3.83-9.31,3.83s-6.74-1.3-9.3-3.83-3.81-5.57-3.81-9.19c0-3.54,1.25-6.66,3.81-9.19s5.71-3.76,9.3-3.76,6.74,1.23,9.31,3.76c2.56,2.53,3.81,5.65,3.81,9.19-0.01,3.64-1.26,6.68-3.82,9.21"/></g><text transform="matrix(1,0,0,-0.98755938,307.8232,534.0747)"><tspan style="writing-mode:lr-tb;" font-weight="500" fill-rule="nonzero" font-size="15.40919971px" font-stretch="condensed" font-variant="normal" y="0" x="0 7.5813265 15.871476" font-family="Myriad Pro" fill="#ffffff">ERL</tspan></text>
<g transform="translate(232.333,394.062)"><path fill-rule="nonzero" fill="#a6157a" d="m0,0c-2.57,2.53-5.72,3.83-9.31,3.83s-6.74-1.3-9.3-3.83-3.81-5.57-3.81-9.19c0-3.54,1.24-6.66,3.81-9.19,2.56-2.53,5.72-3.76,9.3-3.76,3.59,0,6.74,1.23,9.31,3.76,2.56,2.53,3.81,5.65,3.81,9.19-0.01,3.64-1.26,6.68-3.82,9.21"/></g><text transform="matrix(0.86738952,0,0,-1,211.4834,379.5713)"><tspan style="writing-mode:lr-tb;" font-weight="500" fill-rule="nonzero" font-size="15.21749973px" font-stretch="condensed" font-variant="normal" y="0" x="0 12.874005 21.06102" font-family="Myriad Pro" fill="#ffffff">WRL</tspan></text>
<g transform="translate(569.5967,177.6973)"><path fill-rule="nonzero" fill="#758ed0" d="m0,0c-2.57,2.53-5.72,3.83-9.31,3.83s-6.74-1.3-9.3-3.83-3.81-5.57-3.81-9.19c0-3.54,1.25-6.66,3.81-9.19s5.71-3.76,9.3-3.76,6.74,1.23,9.31,3.76c2.56,2.53,3.81,5.65,3.81,9.19-0.01,3.64-1.26,6.68-3.82,9.21"/></g><text transform="matrix(1,0,0,-0.98755938,548.4209,164.2002)"><tspan style="writing-mode:lr-tb;" font-weight="500" fill-rule="nonzero" font-size="15.40919971px" font-stretch="condensed" font-variant="normal" y="0" x="0 7.5813265 15.871476" font-family="Myriad Pro" fill="#ffffff">ERL</tspan></text>
<g transform="translate(569.5967,136.5361)"><path fill-rule="nonzero" fill="#a6157a" d="m0,0c-2.57,2.53-5.72,3.84-9.31,3.84s-6.74-1.3-9.3-3.84c-2.56-2.53-3.81-5.57-3.81-9.19,0-3.54,1.25-6.66,3.81-9.19s5.71-3.76,9.3-3.76,6.74,1.23,9.31,3.76c2.56,2.53,3.81,5.65,3.81,9.19-0.01,3.64-1.26,6.68-3.82,9.21"/></g><text transform="matrix(0.82518153,0,0,-1,549.3418,122.0508)"><tspan style="writing-mode:lr-tb;" font-weight="500" fill-rule="nonzero" font-size="15.21749973px" font-stretch="condensed" font-variant="normal" y="0" x="0 12.874005 21.06102" font-family="Myriad Pro" fill="#ffffff">WRL</tspan></text>
<g transform="translate(267.6021,276.0234)"><path fill-rule="nonzero" fill="#2c8081" d="m0,0c-2.57,2.53-5.72,3.84-9.31,3.84s-6.74-1.3-9.3-3.84c-2.56-2.53-3.81-5.57-3.81-9.19,0-3.54,1.25-6.66,3.81-9.19s5.71-3.76,9.3-3.76,6.74,1.23,9.31,3.76c2.56,2.53,3.81,5.65,3.81,9.19-0.01,3.64-1.26,6.68-3.82,9.21"/></g><text transform="matrix(1,0,0,-0.98755938,245.5386,262.5195)"><tspan style="writing-mode:lr-tb;" font-weight="500" fill-rule="nonzero" font-size="15.40919971px" font-stretch="condensed" font-variant="normal" y="0" x="0 9.4304304 17.011757" font-family="Myriad Pro" fill="#ffffff">AEL</tspan></text>
<g transform="translate(423.4971,100.082)"><path fill-rule="evenodd" fill="#231f20" d="m0,0,7.5,0c3.41,0,6.2-2.75,6.2-6.12,0-3.36-2.79-6.12-6.2-6.12h-7.5c-3.41,0-6.2,2.75-6.2,6.12,0,3.33,2.79,6.08,6.2,6.08"/></g><g transform="translate(424.0439,98.6816)"><path fill-rule="evenodd" fill="#FFF" d="m0,0,6.4,0c2.96,0,5.38-2.12,5.38-4.72s-2.42-4.72-5.38-4.72h-6.4c-2.96,0-5.38,2.12-5.38,4.72-0.02,2.6,2.4,4.72,5.36,4.72"/></g><g transform="translate(415.5615,130.4971)"><path fill-rule="nonzero" fill="#2c8081" d="m0,0c-2.57,2.53-5.72,3.83-9.31,3.83s-6.74-1.3-9.3-3.83-3.81-5.57-3.81-9.19c0-3.54,1.25-6.66,3.81-9.19s5.71-3.76,9.3-3.76,6.74,1.23,9.31,3.76c2.56,2.53,3.81,5.65,3.81,9.19-0.01,3.64-1.26,6.68-3.82,9.21"/></g><text transform="matrix(1,0,0,-0.98755938,394.4971,116.9922)"><tspan style="writing-mode:lr-tb;" font-weight="500" fill-rule="nonzero" font-size="15.40919971px" font-stretch="condensed" font-variant="normal" y="0" x="0 9.4304304 17.011757" font-family="Myriad Pro" fill="#ffffff">AEL</tspan></text>
<g transform="translate(324.0986,212.4893)"><path fill-rule="nonzero" fill="#f2531b" d="m0,0c-2.57,2.53-5.72,3.83-9.31,3.83s-6.74-1.3-9.3-3.83-3.81-5.57-3.81-9.19c0-3.54,1.25-6.66,3.81-9.19s5.71-3.76,9.3-3.76,6.74,1.23,9.31,3.76c2.56,2.53,3.81,5.65,3.81,9.19-0.01,3.64-1.26,6.68-3.82,9.21"/></g><text transform="matrix(1,0,0,-0.98755938,303.8921,197.9922)"><tspan style="writing-mode:lr-tb;" font-weight="500" fill-rule="nonzero" font-size="15.40919971px" font-stretch="condensed" font-variant="normal" y="0" x="0 7.2423239 16.179661" font-family="Myriad Pro" fill="#ffffff">TCL</tspan></text>
<g transform="translate(456.916,130.4971)"><path fill-rule="nonzero" fill="#f2531b" d="m0,0c-2.57,2.53-5.72,3.83-9.31,3.83s-6.74-1.3-9.3-3.83-3.81-5.57-3.81-9.19c0-3.54,1.24-6.66,3.81-9.19,2.56-2.53,5.72-3.76,9.3-3.76,3.59,0,6.74,1.23,9.31,3.76,2.56,2.53,3.81,5.65,3.81,9.19-0.01,3.64-1.26,6.68-3.82,9.21"/></g><text transform="matrix(1,0,0,-0.98755938,436.7061,116)"><tspan style="writing-mode:lr-tb;" font-weight="500" fill-rule="nonzero" font-size="15.40919971px" font-stretch="condensed" font-variant="normal" y="0" x="0 7.2423239 16.179661" font-family="Myriad Pro" fill="#ffffff">TCL</tspan></text>
<g transform="translate(372.4307,261.833)"><path fill-rule="nonzero" fill="#f57ec5" d="m0,0c-2.57,2.53-5.72,3.84-9.31,3.84s-6.74-1.3-9.3-3.84c-2.56-2.53-3.81-5.57-3.81-9.19,0-3.54,1.24-6.66,3.81-9.19,2.56-2.53,5.71-3.76,9.3-3.76s6.74,1.23,9.31,3.76c2.56,2.53,3.81,5.65,3.81,9.19-0.01,3.64-1.26,6.68-3.82,9.21"/></g><text transform="matrix(0.88561196,0,0,-1,352.4668,247.4209)"><tspan style="writing-mode:lr-tb;" font-weight="500" fill-rule="nonzero" font-size="15.21749973px" font-stretch="condensed" font-variant="normal" y="0" x="0 10.134855 18.321871" font-family="Myriad Pro" fill="#ffffff">DRL</tspan></text>
<g transform="translate(272.1743,365.0366)"><path fill-rule="nonzero" fill="#ed1d24" d="m0,0c-2.57,2.53-5.72,3.83-9.31,3.83s-6.74-1.3-9.3-3.83-3.81-5.57-3.81-9.19c0-3.54,1.25-6.66,3.81-9.19s5.71-3.76,9.3-3.76,6.74,1.23,9.31,3.76c2.56,2.53,3.81,5.65,3.81,9.19-0.01,3.64-1.26,6.68-3.82,9.21"/></g><text transform="matrix(0.89924101,0,0,-1,249.7993,350.5459)"><tspan style="writing-mode:lr-tb;" font-weight="500" fill-rule="nonzero" font-size="15.21749973px" font-stretch="condensed" font-variant="normal" y="0" x="0 8.1717978 21.045803" font-family="Myriad Pro" fill="#ffffff">TWL</tspan></text>
<g transform="translate(433.7773,48.8125)"><path fill-rule="nonzero" fill="#ed1d24" d="m0,0c-2.57,2.53-5.72,3.84-9.31,3.84s-6.74-1.3-9.3-3.84c-2.56-2.53-3.81-5.57-3.81-9.19,0-3.54,1.25-6.66,3.81-9.19s5.71-3.76,9.3-3.76,6.74,1.23,9.31,3.76c2.56,2.53,3.81,5.65,3.81,9.19-0.01,3.64-1.26,6.68-3.82,9.21"/></g><text transform="matrix(0.96287169,0,0,-1,411.5098,34.3281)"><tspan style="writing-mode:lr-tb;" font-weight="500" fill-rule="nonzero" font-size="15.21749973px" font-stretch="condensed" font-variant="normal" y="0" x="0 8.1717978 21.045803" font-family="Myriad Pro" fill="#ffffff">TWL</tspan></text>
<g transform="translate(374.064,78.6484)"><path fill-rule="nonzero" fill="#3b4ba7" d="m0,0c-2.57,2.53-5.72,3.83-9.31,3.83s-6.74-1.3-9.3-3.83-3.81-5.57-3.81-9.19c0-3.54,1.25-6.66,3.81-9.19s5.71-3.76,9.3-3.76,6.74,1.23,9.31,3.76c2.56,2.53,3.81,5.65,3.81,9.19-0.01,3.64-1.26,6.68-3.82,9.21"/></g><g transform="translate(374.064,78.6484)"><path stroke-linejoin="miter" d="m0,0c-2.57,2.53-5.72,3.83-9.31,3.83s-6.74-1.3-9.3-3.83-3.81-5.57-3.81-9.19c0-3.54,1.25-6.66,3.81-9.19s5.71-3.76,9.3-3.76,6.74,1.23,9.31,3.76c2.56,2.53,3.81,5.65,3.81,9.19-0.01,3.64-1.26,6.68-3.82,9.21z" stroke="#3b4ba7" stroke-linecap="butt" stroke-miterlimit="2.61299992" stroke-dasharray="none" stroke-width="1" fill="none"/></g><text transform="matrix(1,0,0,-0.98755938,355.1152,65.2441)"><tspan style="writing-mode:lr-tb;" font-weight="500" fill-rule="nonzero" font-size="15.40919971px" font-stretch="condensed" font-variant="normal" y="0" x="0 3.6827989 11.279534" font-family="Myriad Pro" fill="#ffffff">ISL</tspan></text>
<g transform="translate(743.2686,33.1484)"><path fill-rule="nonzero" fill="#3b4ba7" d="m0,0c-2.57,2.53-5.72,3.84-9.31,3.84s-6.74-1.3-9.3-3.84c-2.56-2.53-3.81-5.57-3.81-9.19,0-3.54,1.25-6.66,3.81-9.19s5.71-3.76,9.3-3.76,6.74,1.23,9.31,3.76c2.56,2.53,3.81,5.65,3.81,9.19-0.01,3.64-1.26,6.68-3.82,9.21"/></g><g transform="translate(743.2686,33.1484)"><path stroke-linejoin="miter" d="m0,0c-2.57,2.53-5.72,3.84-9.31,3.84s-6.74-1.3-9.3-3.84c-2.56-2.53-3.81-5.57-3.81-9.19,0-3.54,1.25-6.66,3.81-9.19s5.71-3.76,9.3-3.76,6.74,1.23,9.31,3.76c2.56,2.53,3.81,5.65,3.81,9.19-0.01,3.64-1.26,6.68-3.82,9.21z" stroke="#3b4ba7" stroke-linecap="butt" stroke-miterlimit="2.61299992" stroke-dasharray="none" stroke-width="1" fill="none"/></g><text transform="matrix(1,0,0,-0.98755938,725.3184,18.7451)"><tspan style="writing-mode:lr-tb;" font-weight="500" fill-rule="nonzero" font-size="15.40919971px" font-stretch="condensed" font-variant="normal" y="0" x="0 3.6827989 11.279534" font-family="Myriad Pro" fill="#ffffff">ISL</tspan></text>
<g transform="translate(823.7295,135.4092)"><path fill-rule="nonzero" fill="#4d2783" d="m0,0c-2.57,2.53-5.72,3.84-9.31,3.84s-6.74-1.3-9.3-3.84c-2.56-2.53-3.81-5.57-3.81-9.19,0-3.54,1.24-6.66,3.81-9.19,2.56-2.53,5.71-3.76,9.3-3.76s6.74,1.23,9.31,3.76c2.56,2.53,3.81,5.65,3.81,9.19-0.01,3.64-1.26,6.68-3.82,9.21"/></g><text transform="matrix(1,0,0,-0.98755938,803.7217,120.9121)"><tspan style="writing-mode:lr-tb;" font-weight="500" fill-rule="nonzero" font-size="15.40919971px" font-stretch="condensed" font-variant="normal" y="0" x="0 7.6583724 16.010159" font-family="Myriad Pro" fill="#ffffff">TKL</tspan></text>
<g transform="translate(622.499,48.9766)"><path fill-rule="nonzero" fill="#4d2783" d="m0,0c-2.57,2.53-5.72,3.84-9.31,3.84s-6.74-1.3-9.3-3.84c-2.56-2.53-3.81-5.57-3.81-9.19,0-3.54,1.24-6.66,3.81-9.19,2.56-2.53,5.71-3.76,9.3-3.76s6.74,1.23,9.31,3.76c2.56,2.53,3.81,5.65,3.81,9.19-0.01,3.64-1.26,6.68-3.82,9.21"/></g><text transform="matrix(1,0,0,-0.98755938,602.4912,34.4805)"><tspan style="writing-mode:lr-tb;" font-weight="500" fill-rule="nonzero" font-size="15.40919971px" font-stretch="condensed" font-variant="normal" y="0" x="0 7.6583724 16.010159" font-family="Myriad Pro" fill="#ffffff">TKL</tspan></text>
<g transform="translate(797.793,324.3994)"><path fill-rule="nonzero" fill="#4d2783" d="m0,0c-2.57,2.53-5.72,3.83-9.31,3.83s-6.74-1.3-9.3-3.83-3.81-5.57-3.81-9.19c0-3.54,1.25-6.66,3.81-9.19s5.71-3.76,9.3-3.76,6.74,1.23,9.31,3.76c2.56,2.53,3.81,5.65,3.81,9.19-0.01,3.64-1.26,6.68-3.82,9.21"/></g><text transform="matrix(1,0,0,-0.98755938,777.7852,309.8975)"><tspan style="writing-mode:lr-tb;" font-weight="500" fill-rule="nonzero" font-size="15.40919971px" font-stretch="condensed" font-variant="normal" y="0" x="0 7.6583724 16.010159" font-family="Myriad Pro" fill="#ffffff">TKL</tspan></text>
<g transform="translate(772.8037,218.6162)"><path fill-rule="nonzero" fill="#26813a" d="m0,0c-2.56,2.53-5.72,3.84-9.31,3.84s-6.74-1.3-9.3-3.84c-2.56-2.53-3.81-5.57-3.81-9.19,0-3.54,1.24-6.66,3.81-9.19,2.56-2.53,5.71-3.76,9.3-3.76s6.74,1.23,9.31,3.76c2.56,2.53,3.81,5.65,3.81,9.19-0.01,3.64-1.26,6.68-3.82,9.21"/></g><text transform="matrix(1,0,0,-0.98755938,752.0703,204.1201)"><tspan style="writing-mode:lr-tb;" font-weight="500" fill-rule="nonzero" font-size="15.40919971px" font-stretch="condensed" font-variant="normal" y="0" x="0 8.6753798 16.333752" font-family="Myriad Pro" fill="#ffffff">KTL</tspan></text>
<g transform="translate(532.7764,244.7012)"><path fill-rule="nonzero" fill="#26813a" d="m0,0c-2.57,2.53-5.72,3.84-9.31,3.84s-6.74-1.3-9.3-3.84c-2.56-2.53-3.81-5.57-3.81-9.19,0-3.54,1.25-6.66,3.81-9.19s5.71-3.76,9.3-3.76,6.74,1.23,9.31,3.76c2.56,2.53,3.81,5.65,3.81,9.19-0.01,3.64-1.26,6.68-3.82,9.21"/></g><text transform="matrix(1,0,0,-0.98755938,512.043,230.2051)"><tspan style="writing-mode:lr-tb;" font-weight="500" fill-rule="nonzero" font-size="15.40919971px" font-stretch="condensed" font-variant="normal" y="0" x="0 8.6753798 16.333752" font-family="Myriad Pro" fill="#ffffff">KTL</tspan></text>
<g transform="translate(577.8418,399.5449)"><path fill-rule="nonzero" fill="#873b1b" d="m0,0c-2.56,2.53-5.72,3.83-9.31,3.83s-6.74-1.3-9.3-3.83-3.81-5.57-3.81-9.19c0-3.54,1.24-6.66,3.81-9.19,2.56-2.53,5.71-3.76,9.3-3.76s6.74,1.23,9.31,3.76c2.56,2.53,3.81,5.64,3.81,9.19-0.01,3.64-1.26,6.68-3.82,9.21"/></g><text transform="matrix(0.75419747,0,0,-1,557.9531,385.0435)"><tspan style="writing-mode:lr-tb;" font-weight="500" fill-rule="nonzero" font-size="15.21749973px" font-stretch="condensed" font-variant="normal" y="0" x="0 12.23487 22.719727" font-family="Myriad Pro" fill="#ffffff">MOL</tspan></text>
<g transform="translate(797.2969,490.1699)"><path fill-rule="nonzero" fill="#873b1b" d="m0,0c-2.57,2.53-5.72,3.84-9.31,3.84s-6.74-1.3-9.3-3.84c-2.56-2.53-3.81-5.57-3.81-9.19,0-3.54,1.24-6.66,3.81-9.19,2.56-2.53,5.71-3.76,9.3-3.76s6.74,1.23,9.31,3.76c2.56,2.53,3.81,5.64,3.81,9.19-0.01,3.64-1.26,6.68-3.82,9.21"/></g><text transform="matrix(0.75419747,0,0,-1,777.4072,475.668)"><tspan style="writing-mode:lr-tb;" font-weight="500" fill-rule="nonzero" font-size="15.21749973px" font-stretch="condensed" font-variant="normal" y="0" x="0 12.23487 22.719727" font-family="Myriad Pro" fill="#ffffff">MOL</tspan></text>
</g></svg>
