<?xml version="1.0" encoding="UTF-8" standalone="no"?>
<!-- Created with Inkscape (http://www.inkscape.org/) -->

<svg
   xmlns:dc="http://purl.org/dc/elements/1.1/"
   xmlns:cc="http://creativecommons.org/ns#"
   xmlns:rdf="http://www.w3.org/1999/02/22-rdf-syntax-ns#"
   xmlns:svg="http://www.w3.org/2000/svg"
   xmlns="http://www.w3.org/2000/svg"
   xmlns:sodipodi="http://sodipodi.sourceforge.net/DTD/sodipodi-0.dtd"
   xmlns:inkscape="http://www.inkscape.org/namespaces/inkscape"
   width="100"
   height="30"
   id="svg2985"
   version="1.1"
   inkscape:version="0.48.4 r9939"
   sodipodi:docname="lingling.svg">
  <defs
     id="defs2987" />
  <sodipodi:namedview
     id="base"
     pagecolor="#ffffff"
     bordercolor="#666666"
     borderopacity="1.0"
     inkscape:pageopacity="0.0"
     inkscape:pageshadow="2"
     inkscape:zoom="9.8994949"
     inkscape:cx="15.877718"
     inkscape:cy="20.957484"
     inkscape:current-layer="layer1"
     showgrid="true"
     inkscape:grid-bbox="true"
     inkscape:document-units="px"
     fit-margin-top="0"
     fit-margin-left="0"
     fit-margin-right="0"
     fit-margin-bottom="0"
     inkscape:window-width="1020"
     inkscape:window-height="721"
     inkscape:window-x="0"
     inkscape:window-y="0"
     inkscape:window-maximized="1" />
  <metadata
     id="metadata2990">
    <rdf:RDF>
      <cc:Work
         rdf:about="">
        <dc:format>image/svg+xml</dc:format>
        <dc:type
           rdf:resource="http://purl.org/dc/dcmitype/StillImage" />
        <dc:title />
      </cc:Work>
    </rdf:RDF>
  </metadata>
  <g
     id="layer1"
     inkscape:label="Layer 1"
     inkscape:groupmode="layer"
     transform="translate(-15.488995,-3.9648433)">
    <path
       inkscape:connector-curvature="0"
       id="path11850"
       style="font-size:24px;font-style:italic;font-variant:normal;font-weight:bold;font-stretch:normal;line-height:125%;letter-spacing:0px;word-spacing:0px;fill:#5599ff;fill-opacity:0.99115043999999997;stroke:none;font-family:Dancing Script;-inkscape-font-specification:Dancing Script Bold Italic"
       d="m 17.794111,22.606433 c 0.236276,-1.528763 0.667138,-3.140414 1.292585,-4.834961 0.625441,-1.712946 1.369024,-3.306179 2.230753,-4.779704 0.861717,-1.491915 1.869376,-2.72598 3.022982,-3.7021986 1.153588,-0.9761822 2.307184,-1.4642825 3.460794,-1.4643024 1.375964,1.99e-5 2.369725,0.672309 2.981286,2.0168693 0.625428,1.3445957 0.750517,3.2325307 0.375266,5.6638117 -0.250193,1.67613 -0.708852,3.379876 -1.375978,5.111244 -0.653256,1.731381 -1.431586,3.306195 -2.334993,4.724447 -0.903431,1.399836 -1.92499,2.541807 -3.064679,3.425915 -1.125808,0.902524 -2.237708,1.353786 -3.335704,1.353789 -1.417679,-3e-6 -2.397541,-0.70913 -2.93959,-2.127383 -0.542054,-1.399835 -0.646294,-3.195676 -0.312722,-5.387527 m 2.022271,0.469682 c -0.264081,1.749797 -0.250182,3.140423 0.0417,4.17188 0.305769,1.031457 0.861719,1.547186 1.667852,1.547187 1.000705,-1e-6 2.070909,-0.792013 3.210616,-2.376037 1.153587,-1.602442 2.147349,-3.499586 2.981286,-5.69144 0.847812,-2.210258 1.41766,-4.310011 1.709549,-6.299263 0.250163,-1.676104 0.236265,-3.002264 -0.0417,-3.978482 -0.26409,-0.9946023 -0.847838,-1.491912 -1.751245,-1.4919308 -0.875633,1.88e-5 -1.772103,0.4973285 -2.689411,1.4919308 -0.903429,0.994637 -1.695658,2.237911 -2.37669,3.729827 -0.667147,1.491942 -1.243946,3.02071 -1.730397,4.586306 -0.486462,1.565613 -0.826981,3.002286 -1.021559,4.310022" />
    <path
       inkscape:connector-curvature="0"
       id="path11852"
       style="font-size:24px;font-style:italic;font-variant:normal;font-weight:bold;font-stretch:normal;line-height:125%;letter-spacing:0px;word-spacing:0px;fill:#5599ff;fill-opacity:0.99115043999999997;stroke:none;font-family:Dancing Script;-inkscape-font-specification:Dancing Script Bold Italic"
       d="m 31.55715,22.606433 c 0.236276,-1.528763 0.667138,-3.140414 1.292585,-4.834961 0.62544,-1.712946 1.369024,-3.306179 2.230753,-4.779704 0.861716,-1.491915 1.869376,-2.72598 3.022982,-3.7021986 1.153588,-0.9761822 2.307184,-1.4642825 3.460793,-1.4643024 1.375965,1.99e-5 2.369726,0.672309 2.981286,2.0168693 0.625429,1.3445957 0.750518,3.2325307 0.375267,5.6638117 -0.250193,1.67613 -0.708852,3.379876 -1.375978,5.111244 -0.653256,1.731381 -1.431586,3.306195 -2.334993,4.724447 -0.903432,1.399836 -1.92499,2.541807 -3.064679,3.425915 -1.125808,0.902524 -2.237709,1.353786 -3.335704,1.353789 -1.417679,-3e-6 -2.397541,-0.70913 -2.93959,-2.127383 -0.542054,-1.399835 -0.646294,-3.195676 -0.312722,-5.387527 m 2.022271,0.469682 c -0.264081,1.749797 -0.250183,3.140423 0.0417,4.17188 0.305768,1.031457 0.861718,1.547186 1.667852,1.547187 1.000705,-1e-6 2.070909,-0.792013 3.210616,-2.376037 1.153587,-1.602442 2.147348,-3.499586 2.981286,-5.69144 0.847812,-2.210258 1.41766,-4.310011 1.709548,-6.299263 0.250164,-1.676104 0.236266,-3.002264 -0.0417,-3.978482 -0.26409,-0.9946023 -0.847838,-1.491912 -1.751245,-1.4919308 -0.875634,1.88e-5 -1.772103,0.4973285 -2.689412,1.4919308 -0.903428,0.994637 -1.695657,2.237911 -2.376689,3.729827 -0.667147,1.491942 -1.243946,3.02071 -1.730397,4.586306 -0.486462,1.565613 -0.826981,3.002286 -1.021559,4.310022" />
    <path
       inkscape:connector-curvature="0"
       id="path11854"
       style="font-size:18px;font-style:normal;font-variant:normal;font-weight:normal;font-stretch:normal;line-height:125%;letter-spacing:0px;word-spacing:0px;fill:#999999;fill-opacity:1;stroke:none;font-family:Dancing Script;-inkscape-font-specification:Dancing Script Bold Italic"
       d="m 54.332454,26.142861 c 0.198057,-1.270901 0.792229,-2.990764 1.782517,-5.159594 0.990284,-2.182631 2.006631,-4.088984 3.049043,-5.719067 1.052826,-1.643873 1.772086,-2.465815 2.157784,-2.46583 0.177201,1.5e-5 0.297078,0.186505 0.35963,0.559474 0.07296,0.359182 0.0886,0.725257 0.04691,1.098227 -0.09383,0.635464 -0.411759,1.540291 -0.953803,2.714485 -0.531634,1.160399 -1.235259,2.396767 -2.110876,3.709105 -0.875627,1.312351 -1.740824,2.35532 -2.595595,3.12891 -0.239755,0.815039 -0.390905,1.443584 -0.453447,1.885635 -0.01042,0.01381 -0.01564,0.03453 -0.01564,0.06216 -0.145939,0.953178 0.0052,1.429767 0.453447,1.429767 0.36484,0 0.802651,-0.317726 1.313434,-0.953178 0.510775,-0.649265 0.995495,-1.429765 1.454158,-2.341503 l 0.328359,0.269377 c -0.646297,1.257091 -1.297802,2.237897 -1.954515,2.942419 -0.656719,0.690707 -1.282163,1.036062 -1.876333,1.036063 -0.875624,-10e-7 -1.203981,-0.732151 -0.985076,-2.196454 m 2.204693,-3.419008 c 1.021556,-1.201827 1.985782,-2.652314 2.892681,-4.351464 0.917313,-1.712947 1.433303,-2.942408 1.547975,-3.688385 -0.13552,1.3e-5 -0.463878,0.400624 -0.985075,1.201834 -0.510785,0.801232 -1.099745,1.851108 -1.766881,3.149631 -0.667144,1.284725 -1.230045,2.514185 -1.6887,3.688384" />
    <path
       inkscape:connector-curvature="0"
       id="path11856"
       style="font-size:18px;font-style:normal;font-variant:normal;font-weight:normal;font-stretch:normal;line-height:125%;letter-spacing:0px;word-spacing:0px;fill:#999999;fill-opacity:1;stroke:none;font-family:Dancing Script;-inkscape-font-specification:Dancing Script Bold Italic"
       d="m 57.946596,26.495123 c 0.08339,-0.552566 0.302298,-1.277809 0.656716,-2.175733 0.354418,-0.911732 0.776592,-1.747488 1.266526,-2.507272 0.489929,-0.759774 0.917316,-1.139663 1.282161,-1.139669 0.13551,6e-6 0.23975,0.05527 0.312722,0.16577 0.07297,0.09671 0.09381,0.241753 0.06255,0.435146 -0.02085,0.17959 -0.208485,0.55948 -0.5629,1.139669 -0.354421,0.566386 -0.724476,1.215651 -1.110164,1.947799 -0.375269,0.718339 -0.604599,1.339976 -0.687989,1.864913 -0.06255,0.42824 -0.04691,0.718337 0.04691,0.870293 0.09381,0.151956 0.2606,0.227934 0.500356,0.227934 0.823499,0 1.798149,-1.056783 2.923953,-3.170353 l 0.187633,0.33154 c -0.542056,1.215649 -1.146651,2.16192 -1.813789,2.838813 -0.667143,0.676893 -1.323859,1.015341 -1.97015,1.015342 -0.437813,-10e-7 -0.750534,-0.172679 -0.938167,-0.518032 -0.187634,-0.345354 -0.239754,-0.787408 -0.156361,-1.32616 m 3.690123,-8.309226 c 0.05212,-0.317716 0.229325,-0.594 0.531628,-0.82885 0.302293,-0.248645 0.604591,-0.372972 0.906894,-0.372983 0.44823,1.1e-5 0.630651,0.255573 0.547264,0.766687 -0.0417,0.290107 -0.203274,0.573297 -0.484719,0.849572 -0.281456,0.262477 -0.562905,0.393712 -0.84435,0.393704 -0.21891,8e-6 -0.39612,-0.06906 -0.531628,-0.207213 -0.125093,-0.138134 -0.166789,-0.338438 -0.125089,-0.600917" />
    <path
       inkscape:connector-curvature="0"
       id="path11858"
       style="font-size:18px;font-style:normal;font-variant:normal;font-weight:normal;font-stretch:normal;line-height:125%;letter-spacing:0px;word-spacing:0px;fill:#999999;fill-opacity:1;stroke:none;font-family:Dancing Script;-inkscape-font-specification:Dancing Script Bold Italic"
       d="m 61.154198,27.427579 c 10e-7,-0.01381 0.140726,-0.324633 0.422175,-0.932456 0.28145,-0.607823 0.5629,-1.291623 0.84435,-2.051405 0.281449,-0.759776 0.458659,-1.402134 0.531628,-1.927077 0.281449,-0.331536 0.578534,-0.497305 0.891259,-0.497311 0.36484,6e-6 0.515989,0.207218 0.453447,0.621638 -0.05212,0.372988 -0.234544,0.987717 -0.547264,1.844192 1.344702,-1.878723 2.470502,-2.818085 3.377401,-2.818091 0.416958,6e-6 0.708831,0.193404 0.875622,0.580195 0.177203,0.372988 0.229324,0.821948 0.156361,1.346882 -0.07298,0.455871 -0.260608,1.022251 -0.5629,1.699144 -0.302303,0.663081 -0.474301,1.132763 -0.515992,1.409045 -0.06255,0.400611 0.03126,0.600917 0.28145,0.600917 0.343989,0 0.760952,-0.310819 1.25089,-0.932457 0.500348,-0.635451 0.979855,-1.381415 1.438522,-2.237896 l 0.218906,0.290098 c -1.198776,2.472737 -2.319363,3.709104 -3.361765,3.709105 -0.396119,-1e-6 -0.682781,-0.131236 -0.859986,-0.393704 -0.177214,-0.262469 -0.234545,-0.607823 -0.171998,-1.036063 0.0417,-0.276282 0.182417,-0.725243 0.422176,-1.346882 0.239749,-0.621635 0.380474,-1.084409 0.422175,-1.388324 0.08338,-0.538749 -0.05734,-0.808125 -0.422175,-0.808129 -0.291879,4e-6 -0.625448,0.158866 -1.000712,0.476589 -0.375269,0.303915 -0.78702,0.759782 -1.235253,1.367603 -0.437813,0.607825 -0.776595,1.098228 -1.016347,1.471209 l -0.969439,1.554095 c -0.448236,-1e-6 -0.755745,-0.200307 -0.922531,-0.600917" />
    <path
       inkscape:connector-curvature="0"
       id="path11860"
       style="font-size:18px;font-style:normal;font-variant:normal;font-weight:normal;font-stretch:normal;line-height:125%;letter-spacing:0px;word-spacing:0px;fill:#999999;fill-opacity:1;stroke:none;font-family:Dancing Script;-inkscape-font-specification:Dancing Script Bold Italic"
       d="m 68.138167,32.193469 c 0.05212,-0.331545 0.17721,-0.663085 0.375266,-0.99462 0.187634,-0.31773 0.380479,-0.587106 0.578537,-0.80813 0.198057,-0.207216 0.48993,-0.448963 0.875622,-0.725244 0.396113,-0.276285 0.6932,-0.469684 0.891259,-0.580195 l 0.969439,-0.580195 c 0.396111,-0.870293 0.734894,-1.733679 1.016347,-2.590158 -1.052834,1.409046 -1.949304,2.113568 -2.689411,2.113569 -0.416964,-1e-6 -0.719263,-0.1934 -0.906895,-0.580195 -0.187634,-0.386797 -0.234542,-0.897921 -0.140725,-1.533374 0.208481,-1.381415 0.875621,-2.624689 2.001423,-3.729826 1.125796,-1.105129 2.173415,-1.657694 3.142859,-1.657701 0.32314,7e-6 0.557682,0.07599 0.703625,0.227934 0.156355,0.151961 0.218899,0.338453 0.187633,0.559474 -0.02086,0.138147 -0.07298,0.262475 -0.156361,0.372982 -0.07298,0.110525 -0.135519,0.172683 -0.187633,0.186492 -0.145943,-0.24865 -0.349212,-0.372977 -0.609809,-0.372983 -0.01043,6e-6 -0.02086,6e-6 -0.03127,0 -0.771386,6e-6 -1.558403,0.524944 -2.361053,1.574816 -0.802656,1.036066 -1.271739,2.009964 -1.407251,2.921697 -0.09382,0.566383 0.02085,0.849572 0.343995,0.849572 0.281448,0 0.661926,-0.241747 1.141436,-0.725244 0.489928,-0.483495 0.995495,-1.105132 1.516703,-1.864913 0.23975,-0.773591 0.458655,-1.326157 0.656717,-1.657701 0.208477,-0.34535 0.458654,-0.518027 0.750534,-0.518032 0.135507,5e-6 0.286656,0.02763 0.453447,0.08289 -0.06255,0.359173 -0.29188,1.077509 -0.687989,2.155011 -0.385696,1.077508 -0.828719,2.196455 -1.32907,3.356844 0.573319,-0.290097 1.146643,-0.739058 1.719973,-1.346882 0.573317,-0.621636 1.026764,-1.333065 1.360342,-2.134289 l 0.218905,0.372982 c -0.354425,0.870296 -0.880841,1.657702 -1.579247,2.362224 -0.698418,0.704523 -1.381195,1.243274 -2.048331,1.616258 -1.532342,3.315397 -2.83535,4.973097 -3.909029,4.973103 -0.291874,-6e-6 -0.521204,-0.117427 -0.687989,-0.352262 -0.177208,-0.221032 -0.234541,-0.545665 -0.171997,-0.973899 m 0.734897,-0.207213 c -0.06254,0.386793 0.0052,0.58019 0.20327,0.580196 0.208481,-6e-6 0.515991,-0.255567 0.92253,-0.766687 0.416962,-0.511129 0.880833,-1.284721 1.391615,-2.320781 -0.740112,0.442051 -1.329071,0.856475 -1.766881,1.243276 -0.437812,0.400607 -0.687989,0.821938 -0.750534,1.263996" />
    <path
       inkscape:connector-curvature="0"
       id="path11862"
       style="font-size:18px;font-style:normal;font-variant:normal;font-weight:normal;font-stretch:normal;line-height:125%;letter-spacing:0px;word-spacing:0px;fill:#999999;fill-opacity:1;stroke:none;font-family:Dancing Script;-inkscape-font-specification:Dancing Script Bold Italic"
       d="m 75.648876,26.142861 c 0.198058,-1.270901 0.792229,-2.990764 1.782518,-5.159594 0.990284,-2.182631 2.006631,-4.088984 3.049042,-5.719067 1.052826,-1.643873 1.772086,-2.465815 2.157784,-2.46583 0.177202,1.5e-5 0.297079,0.186505 0.35963,0.559474 0.07296,0.359182 0.0886,0.725257 0.04691,1.098227 -0.09382,0.635464 -0.411758,1.540291 -0.953803,2.714485 -0.531634,1.160399 -1.235258,2.396767 -2.110876,3.709105 -0.875626,1.312351 -1.740823,2.35532 -2.595595,3.12891 -0.239755,0.815039 -0.390904,1.443584 -0.453447,1.885635 -0.01042,0.01381 -0.01564,0.03453 -0.01564,0.06216 -0.145938,0.953178 0.0052,1.429767 0.453447,1.429767 0.364841,0 0.802651,-0.317726 1.313434,-0.953178 0.510776,-0.649265 0.995495,-1.429765 1.454158,-2.341503 l 0.328359,0.269377 c -0.646297,1.257091 -1.297801,2.237897 -1.954515,2.942419 -0.656719,0.690707 -1.282163,1.036062 -1.876333,1.036063 -0.875623,-10e-7 -1.203981,-0.732151 -0.985076,-2.196454 m 2.204693,-3.419008 c 1.021556,-1.201827 1.985782,-2.652314 2.892681,-4.351464 0.917313,-1.712947 1.433304,-2.942408 1.547975,-3.688385 -0.13552,1.3e-5 -0.463877,0.400624 -0.985075,1.201834 -0.510785,0.801232 -1.099744,1.851108 -1.766881,3.149631 -0.667144,1.284725 -1.230044,2.514185 -1.6887,3.688384" />
    <path
       inkscape:connector-curvature="0"
       id="path11864"
       style="font-size:18px;font-style:normal;font-variant:normal;font-weight:normal;font-stretch:normal;line-height:125%;letter-spacing:0px;word-spacing:0px;fill:#999999;fill-opacity:1;stroke:none;font-family:Dancing Script;-inkscape-font-specification:Dancing Script Bold Italic"
       d="m 79.263018,26.495123 c 0.08339,-0.552566 0.302298,-1.277809 0.656717,-2.175733 0.354417,-0.911732 0.776592,-1.747488 1.266526,-2.507272 0.489929,-0.759774 0.917315,-1.139663 1.282161,-1.139669 0.13551,6e-6 0.239749,0.05527 0.312722,0.16577 0.07297,0.09671 0.09381,0.241753 0.06255,0.435146 -0.02086,0.17959 -0.208485,0.55948 -0.5629,1.139669 -0.354422,0.566386 -0.724476,1.215651 -1.110164,1.947799 -0.375269,0.718339 -0.604599,1.339976 -0.68799,1.864913 -0.06254,0.42824 -0.04691,0.718337 0.04691,0.870293 0.09381,0.151956 0.2606,0.227934 0.500355,0.227934 0.823499,0 1.798149,-1.056783 2.923954,-3.170353 l 0.187633,0.33154 c -0.542057,1.215649 -1.146652,2.16192 -1.813789,2.838813 -0.667143,0.676893 -1.32386,1.015341 -1.97015,1.015342 -0.437813,-10e-7 -0.750535,-0.172679 -0.938167,-0.518032 -0.187635,-0.345354 -0.239754,-0.787408 -0.156362,-1.32616 m 3.690124,-8.309226 c 0.05212,-0.317716 0.229325,-0.594 0.531628,-0.82885 0.302293,-0.248645 0.604591,-0.372972 0.906894,-0.372983 0.448229,1.1e-5 0.630651,0.255573 0.547264,0.766687 -0.04171,0.290107 -0.203275,0.573297 -0.484719,0.849572 -0.281456,0.262477 -0.562906,0.393712 -0.844351,0.393704 -0.218909,8e-6 -0.396119,-0.06906 -0.531627,-0.207213 -0.125094,-0.138134 -0.16679,-0.338438 -0.125089,-0.600917" />
    <path
       inkscape:connector-curvature="0"
       id="path11866"
       style="font-size:18px;font-style:normal;font-variant:normal;font-weight:normal;font-stretch:normal;line-height:125%;letter-spacing:0px;word-spacing:0px;fill:#999999;fill-opacity:1;stroke:none;font-family:Dancing Script;-inkscape-font-specification:Dancing Script Bold Italic"
       d="m 82.470621,27.427579 c 0,-0.01381 0.140725,-0.324633 0.422175,-0.932456 0.28145,-0.607823 0.562899,-1.291623 0.84435,-2.051405 0.281449,-0.759776 0.458658,-1.402134 0.531628,-1.927077 0.281448,-0.331536 0.578534,-0.497305 0.891258,-0.497311 0.364841,6e-6 0.51599,0.207218 0.453448,0.621638 -0.05212,0.372988 -0.234545,0.987717 -0.547264,1.844192 1.344702,-1.878723 2.470498,-2.818085 3.377402,-2.818091 0.416954,6e-6 0.708828,0.193404 0.875622,0.580195 0.177201,0.372988 0.229321,0.821948 0.156361,1.346882 -0.07297,0.455871 -0.260611,1.022251 -0.5629,1.699144 -0.302307,0.663081 -0.474304,1.132763 -0.515992,1.409045 -0.06254,0.400611 0.03127,0.600917 0.28145,0.600917 0.343986,0 0.760949,-0.310819 1.250889,-0.932457 0.500347,-0.635451 0.979855,-1.381415 1.438523,-2.237896 l 0.218906,0.290098 c -1.198778,2.472737 -2.319366,3.709104 -3.361765,3.709105 -0.396124,-1e-6 -0.682786,-0.131236 -0.859986,-0.393704 -0.177218,-0.262469 -0.234551,-0.607823 -0.171998,-1.036063 0.0417,-0.276282 0.182413,-0.725243 0.422175,-1.346882 0.239745,-0.621635 0.380471,-1.084409 0.422176,-1.388324 0.08339,-0.538749 -0.05733,-0.808125 -0.422176,-0.808129 -0.291882,4e-6 -0.625453,0.158866 -1.000712,0.476589 -0.37527,0.303915 -0.78702,0.759782 -1.235253,1.367603 -0.437813,0.607825 -0.776595,1.098228 -1.016347,1.471209 l -0.96944,1.554095 c -0.448235,-1e-6 -0.755745,-0.200307 -0.92253,-0.600917" />
    <path
       inkscape:connector-curvature="0"
       id="path11868"
       style="font-size:18px;font-style:normal;font-variant:normal;font-weight:normal;font-stretch:normal;line-height:125%;letter-spacing:0px;word-spacing:0px;fill:#999999;fill-opacity:1;stroke:none;font-family:Dancing Script;-inkscape-font-specification:Dancing Script Bold Italic"
       d="m 89.454588,32.193469 c 0.05212,-0.331545 0.177209,-0.663085 0.375267,-0.99462 0.187633,-0.31773 0.380478,-0.587106 0.578536,-0.80813 0.198057,-0.207216 0.489932,-0.448963 0.875622,-0.725244 0.396115,-0.276285 0.693201,-0.469684 0.891259,-0.580195 l 0.969439,-0.580195 c 0.396115,-0.870293 0.734897,-1.733679 1.016348,-2.590158 -1.052832,1.409046 -1.949303,2.113568 -2.689412,2.113569 -0.416963,-1e-6 -0.719262,-0.1934 -0.906895,-0.580195 -0.187633,-0.386797 -0.234542,-0.897921 -0.140725,-1.533374 0.208482,-1.381415 0.875622,-2.624689 2.001423,-3.729826 1.1258,-1.105129 2.17342,-1.657694 3.142859,-1.657701 0.323138,7e-6 0.557679,0.07599 0.703625,0.227934 0.156353,0.151961 0.218897,0.338453 0.187633,0.559474 -0.02085,0.138147 -0.07297,0.262475 -0.156361,0.372982 -0.07297,0.110525 -0.135521,0.172683 -0.187633,0.186492 -0.145946,-0.24865 -0.349207,-0.372977 -0.609809,-0.372983 -0.01042,6e-6 -0.02085,6e-6 -0.03127,0 -0.771381,6e-6 -1.558399,0.524944 -2.361053,1.574816 -0.802654,1.036066 -1.271738,2.009964 -1.407251,2.921697 -0.09382,0.566383 0.02085,0.849572 0.343995,0.849572 0.28145,0 0.661929,-0.241747 1.141436,-0.725244 0.489932,-0.483495 0.9955,-1.105132 1.516704,-1.864913 0.239753,-0.773591 0.458659,-1.326157 0.656716,-1.657701 0.208482,-0.34535 0.45866,-0.518027 0.750534,-0.518032 0.135504,5e-6 0.286653,0.02763 0.453447,0.08289 -0.06254,0.359173 -0.291883,1.077509 -0.687989,2.155011 -0.385691,1.077508 -0.828714,2.196455 -1.32907,3.356844 0.573325,-0.290097 1.146649,-0.739058 1.719973,-1.346882 0.573316,-0.621636 1.026763,-1.333065 1.360342,-2.134289 l 0.218906,0.372982 c -0.354428,0.870296 -0.880843,1.657702 -1.579248,2.362224 -0.698413,0.704523 -1.38119,1.243274 -2.048331,1.616258 -1.532339,3.315397 -2.835349,4.973097 -3.909029,4.973103 -0.291874,-6e-6 -0.521204,-0.117427 -0.687989,-0.352262 -0.177209,-0.221032 -0.234542,-0.545665 -0.171997,-0.973899 m 0.734897,-0.207213 c -0.06254,0.386793 0.0052,0.58019 0.20327,0.580196 0.208481,-6e-6 0.515992,-0.255567 0.922531,-0.766687 0.416963,-0.511129 0.880834,-1.284721 1.391614,-2.320781 -0.74011,0.442051 -1.32907,0.856475 -1.766881,1.243276 -0.437811,0.400607 -0.687989,0.821938 -0.750534,1.263996" />
  </g>
</svg>
