<?xml version="1.0" encoding="UTF-8" standalone="no"?>
<!-- Created with Inkscape (http://www.inkscape.org/) -->

<svg
   xmlns:dc="http://purl.org/dc/elements/1.1/"
   xmlns:cc="http://creativecommons.org/ns#"
   xmlns:rdf="http://www.w3.org/1999/02/22-rdf-syntax-ns#"
   xmlns:svg="http://www.w3.org/2000/svg"
   xmlns="http://www.w3.org/2000/svg"
   xmlns:sodipodi="http://sodipodi.sourceforge.net/DTD/sodipodi-0.dtd"
   xmlns:inkscape="http://www.inkscape.org/namespaces/inkscape"
   width="100"
   height="30"
   id="svg2985"
   version="1.1"
   inkscape:version="0.48.4 r9939"
   sodipodi:docname="lingling.svg">
  <defs
     id="defs2987" />
  <sodipodi:namedview
     id="base"
     pagecolor="#ffffff"
     bordercolor="#666666"
     borderopacity="1.0"
     inkscape:pageopacity="0.0"
     inkscape:pageshadow="2"
     inkscape:zoom="9.8994949"
     inkscape:cx="32.191682"
     inkscape:cy="20.957484"
     inkscape:current-layer="layer1"
     showgrid="true"
     inkscape:grid-bbox="true"
     inkscape:document-units="px"
     fit-margin-top="0"
     fit-margin-left="0"
     fit-margin-right="0"
     fit-margin-bottom="0"
     inkscape:window-width="1020"
     inkscape:window-height="721"
     inkscape:window-x="0"
     inkscape:window-y="0"
     inkscape:window-maximized="1" />
  <metadata
     id="metadata2990">
    <rdf:RDF>
      <cc:Work
         rdf:about="">
        <dc:format>image/svg+xml</dc:format>
        <dc:type
           rdf:resource="http://purl.org/dc/dcmitype/StillImage" />
        <dc:title />
      </cc:Work>
    </rdf:RDF>
  </metadata>
  <g
     id="layer1"
     inkscape:label="Layer 1"
     inkscape:groupmode="layer"
     transform="translate(-15.488995,-3.9648433)">
    <g
       transform="scale(0.86867306,1.1511811)"
       style="font-size:16.11653519px;font-style:normal;font-variant:normal;font-weight:normal;font-stretch:normal;line-height:125%;letter-spacing:0px;word-spacing:0px;fill:#cccccc;fill-opacity:1;stroke:none;font-family:Kingthings Conundrum;-inkscape-font-specification:Kingthings Conundrum"
       id="text2993-0">
      <path
         d="m 20.484244,19.637599 c 0.271997,-1.327995 0.767997,-2.727993 1.488,-4.2 0.719995,-1.48799 1.575994,-2.871989 2.568,-4.152 0.991992,-1.2959863 2.151991,-2.3679853 3.48,-3.2160004 1.327989,-0.8479832 2.655987,-1.2719827 3.984,-1.272 1.583984,1.73e-5 2.727983,0.5840167 3.432,1.752 0.719982,1.1680143 0.863982,2.8080124 0.432,4.9200004 -0.288018,1.456009 -0.816017,2.936007 -1.584,4.44 -0.752016,1.504004 -1.648015,2.872003 -2.688,4.104 -1.040013,1.216 -2.216012,2.207999 -3.528,2.976 -1.296009,0.783998 -2.576008,1.175997 -3.84,1.176 -1.632005,-3e-6 -2.760004,-0.616002 -3.384,-1.848 -0.624002,-1.215999 -0.744002,-2.775998 -0.36,-4.68 m 2.328,0.408 c -0.304005,1.520002 -0.288005,2.728001 0.048,3.624 0.351995,0.895999 0.991994,1.343999 1.92,1.344 1.151992,-10e-7 2.383991,-0.688001 3.696,-2.064 1.327988,-1.391998 2.471987,-3.039996 3.432,-4.944 0.975985,-1.919992 1.631984,-3.743991 1.968,-5.472 0.287984,-1.455987 0.271984,-2.6079863 -0.048,-3.4560004 -0.304016,-0.8639842 -0.976015,-1.2959837 -2.016,-1.296 -1.008013,1.63e-5 -2.040012,0.4320158 -3.096,1.296 -1.04001,0.8640141 -1.952009,1.9440134 -2.736,3.2400004 -0.768007,1.29601 -1.432007,2.624009 -1.992,3.984 -0.560006,1.360006 -0.952005,2.608005 -1.176,3.744"
         style="font-size:24px;font-style:italic;font-weight:bold;font-family:Dancing Script;-inkscape-font-specification:Dancing Script Bold Italic"
         id="path11850" />
      <path
         d="m 36.327994,19.637599 c 0.271997,-1.327995 0.767997,-2.727993 1.488,-4.2 0.719995,-1.48799 1.575994,-2.871989 2.568,-4.152 0.991992,-1.2959863 2.151991,-2.3679853 3.48,-3.2160004 1.327989,-0.8479832 2.655987,-1.2719827 3.984,-1.272 1.583984,1.73e-5 2.727983,0.5840167 3.432,1.752 0.719982,1.1680143 0.863982,2.8080124 0.432,4.9200004 -0.288018,1.456009 -0.816017,2.936007 -1.584,4.44 -0.752016,1.504004 -1.648015,2.872003 -2.688,4.104 -1.040013,1.216 -2.216012,2.207999 -3.528,2.976 -1.296009,0.783998 -2.576008,1.175997 -3.84,1.176 -1.632005,-3e-6 -2.760004,-0.616002 -3.384,-1.848 -0.624002,-1.215999 -0.744002,-2.775998 -0.36,-4.68 m 2.328,0.408 c -0.304005,1.520002 -0.288005,2.728001 0.048,3.624 0.351995,0.895999 0.991994,1.343999 1.92,1.344 1.151992,-10e-7 2.383991,-0.688001 3.696,-2.064 1.327988,-1.391998 2.471987,-3.039996 3.432,-4.944 0.975985,-1.919992 1.631984,-3.743991 1.968,-5.472 0.287984,-1.455987 0.271984,-2.6079863 -0.048,-3.4560004 -0.304016,-0.8639842 -0.976015,-1.2959837 -2.016,-1.296 -1.008013,1.63e-5 -2.040012,0.4320158 -3.096,1.296 -1.04001,0.8640141 -1.952009,1.9440134 -2.736,3.2400004 -0.768007,1.29601 -1.432007,2.624009 -1.992,3.984 -0.560006,1.360006 -0.952005,2.608005 -1.176,3.744"
         style="font-size:24px;font-style:italic;font-weight:bold;font-family:Dancing Script;-inkscape-font-specification:Dancing Script Bold Italic"
         id="path11852" />
      <path
         d="m 62.546494,22.709599 c 0.227999,-1.103998 0.911999,-2.597996 2.052,-4.482 1.139996,-1.895993 2.309995,-3.551991 3.51,-4.968 1.211993,-1.427988 2.039992,-2.141987 2.484,-2.142 0.203991,1.3e-5 0.341991,0.162012 0.414,0.486 0.08399,0.312012 0.101991,0.630011 0.054,0.954 -0.108009,0.552011 -0.474009,1.33801 -1.098,2.358 -0.612007,1.008008 -1.422007,2.082007 -2.43,3.222 -1.008005,1.140004 -2.004004,2.046003 -2.988,2.718 -0.276002,0.708002 -0.450002,1.254002 -0.522,1.638 -0.012,0.012 -0.018,0.03 -0.018,0.054 -0.168002,0.828 0.006,1.242 0.522,1.242 0.419997,0 0.923997,-0.276 1.512,-0.828 0.587995,-0.563999 1.145995,-1.241998 1.674,-2.034 l 0.378,0.234 c -0.744005,1.092001 -1.494005,1.944001 -2.25,2.556 -0.756003,0.599999 -1.476002,0.899999 -2.16,0.9 -1.008001,-10e-7 -1.386,-0.636 -1.134,-1.908 m 2.538,-2.97 c 1.175996,-1.043995 2.285995,-2.303994 3.33,-3.78 1.055993,-1.487991 1.649992,-2.55599 1.782,-3.204 -0.156008,1.1e-5 -0.534008,0.348011 -1.134,1.044 -0.588006,0.696009 -1.266006,1.608008 -2.034,2.736 -0.768004,1.116006 -1.416004,2.184005 -1.944,3.204"
         style="font-size:18px;fill:#999999;font-family:Dancing Script;-inkscape-font-specification:Dancing Script Bold Italic"
         id="path11854" />
      <path
         d="m 66.707025,23.015599 c 0.096,-0.479999 0.348,-1.109998 0.756,-1.89 0.407999,-0.791997 0.893998,-1.517996 1.458,-2.178 0.563997,-0.659995 1.055997,-0.989994 1.476,-0.99 0.155996,6e-6 0.275996,0.04801 0.36,0.144 0.084,0.08401 0.107996,0.210005 0.072,0.378 -0.024,0.156005 -0.240004,0.486005 -0.648,0.99 -0.408003,0.492004 -0.834003,1.056003 -1.278,1.692 -0.432002,0.624002 -0.696002,1.164001 -0.792,1.62 -0.072,0.372 -0.054,0.624 0.054,0.756 0.107998,0.132 0.299998,0.198 0.576,0.198 0.947997,0 2.069996,-0.917999 3.366,-2.754 l 0.216,0.288 c -0.624005,1.056001 -1.320004,1.878001 -2.088,2.466 -0.768003,0.587999 -1.524002,0.881999 -2.268,0.882 -0.504001,-10e-7 -0.864,-0.150001 -1.08,-0.45 -0.216,-0.3 -0.276,-0.684 -0.18,-1.152 m 4.248,-7.218 c 0.06,-0.275992 0.263995,-0.515992 0.612,-0.72 0.347995,-0.215991 0.695994,-0.323991 1.044,-0.324 0.515994,9e-6 0.725993,0.222009 0.63,0.666 -0.04801,0.252008 -0.234006,0.498008 -0.558,0.738 -0.324006,0.228007 -0.648005,0.342007 -0.972,0.342 -0.252005,7e-6 -0.456005,-0.05999 -0.612,-0.18 -0.144004,-0.119993 -0.192004,-0.293992 -0.144,-0.522"
         style="font-size:18px;fill:#999999;font-family:Dancing Script;-inkscape-font-specification:Dancing Script Bold Italic"
         id="path11856" />
      <path
         d="m 70.399556,23.825599 c 10e-7,-0.012 0.162001,-0.282 0.486,-0.81 0.324,-0.527999 0.648,-1.121998 0.972,-1.782 0.323999,-0.659997 0.527999,-1.217996 0.612,-1.674 0.323999,-0.287996 0.665998,-0.431995 1.026,-0.432 0.419997,5e-6 0.593997,0.180004 0.522,0.54 -0.06,0.324004 -0.270002,0.858003 -0.63,1.602 1.547996,-1.631996 2.843995,-2.447995 3.888,-2.448 0.479994,5e-6 0.815993,0.168005 1.008,0.504 0.203993,0.324004 0.263993,0.714004 0.18,1.17 -0.08401,0.396003 -0.300007,0.888002 -0.648,1.476 -0.348006,0.576001 -0.546006,0.984001 -0.594,1.224 -0.07201,0.348 0.03599,0.522 0.324,0.522 0.395993,0 0.875993,-0.27 1.44,-0.81 0.575992,-0.551999 1.127991,-1.199998 1.656,-1.944 l 0.252,0.252 c -1.380008,2.148 -2.670007,3.221999 -3.87,3.222 -0.456005,-10e-7 -0.786005,-0.114001 -0.99,-0.342 -0.204005,-0.228 -0.270004,-0.528 -0.198,-0.9 0.048,-0.239999 0.209995,-0.629999 0.486,-1.17 0.275995,-0.539998 0.437995,-0.941997 0.486,-1.206 0.09599,-0.467997 -0.06601,-0.701996 -0.486,-0.702 -0.336005,4e-6 -0.720004,0.138003 -1.152,0.414 -0.432003,0.264003 -0.906003,0.660002 -1.422,1.188 -0.504002,0.528001 -0.894002,0.954001 -1.17,1.278 l -1.116,1.35 c -0.516,-10e-7 -0.869999,-0.174001 -1.062,-0.522"
         style="font-size:18px;fill:#999999;font-family:Dancing Script;-inkscape-font-specification:Dancing Script Bold Italic"
         id="path11858" />
      <path
         d="m 78.439369,27.965599 c 0.06,-0.288004 0.204001,-0.576004 0.432,-0.864 0.216,-0.276003 0.438,-0.510003 0.666,-0.702 0.228,-0.180003 0.563999,-0.390002 1.008,-0.63 0.455998,-0.240002 0.797998,-0.408002 1.026,-0.504 l 1.116,-0.504 c 0.455996,-0.756 0.845996,-1.506 1.17,-2.25 -1.212003,1.224 -2.244002,1.835999 -3.096,1.836 -0.480001,-10e-7 -0.828001,-0.168001 -1.044,-0.504 -0.216,-0.336 -0.27,-0.779999 -0.162,-1.332 0.24,-1.199998 1.007999,-2.279997 2.304,-3.24 1.295996,-0.959995 2.501995,-1.439994 3.618,-1.44 0.371993,6e-6 0.641993,0.06601 0.81,0.198 0.179993,0.132005 0.251993,0.294005 0.216,0.486 -0.02401,0.120005 -0.08401,0.228005 -0.18,0.324 -0.08401,0.09601 -0.156007,0.150005 -0.216,0.162 -0.168007,-0.215995 -0.402006,-0.323995 -0.702,-0.324 -0.01201,5e-6 -0.02401,5e-6 -0.036,0 -0.888005,5e-6 -1.794004,0.456005 -2.718,1.368 -0.924002,0.900003 -1.464002,1.746002 -1.62,2.538 -0.108002,0.492001 0.024,0.738 0.396,0.738 0.323998,0 0.761997,-0.209999 1.314,-0.63 0.563996,-0.419999 1.145995,-0.959998 1.746,-1.62 0.275995,-0.671997 0.527994,-1.151996 0.756,-1.44 0.239994,-0.299996 0.527994,-0.449996 0.864,-0.45 0.155993,4e-6 0.329993,0.024 0.522,0.072 -0.07201,0.312004 -0.336007,0.936003 -0.792,1.872 -0.444006,0.936002 -0.954006,1.908001 -1.53,2.916 0.659994,-0.252 1.319994,-0.642 1.98,-1.17 0.659992,-0.539999 1.181992,-1.157998 1.566,-1.854 l 0.252,0.324 c -0.408008,0.756002 -1.014008,1.440001 -1.818,2.052 -0.804006,0.612 -1.590005,1.079999 -2.358,1.404 -1.764003,2.879996 -3.264001,4.319995 -4.5,4.32 -0.336,-5e-6 -0.6,-0.102005 -0.792,-0.306 -0.203999,-0.192005 -0.269999,-0.474005 -0.198,-0.846 m 0.846,-0.18 c -0.072,0.335996 0.006,0.503995 0.234,0.504 0.24,-5e-6 0.593999,-0.222004 1.062,-0.666 0.479998,-0.444004 1.013998,-1.116003 1.602,-2.016 -0.852002,0.383998 -1.530001,0.743997 -2.034,1.08 -0.504,0.347997 -0.792,0.713996 -0.864,1.098"
         style="font-size:18px;fill:#999999;font-family:Dancing Script;-inkscape-font-specification:Dancing Script Bold Italic"
         id="path11860" />
      <path
         d="m 87.085556,22.709599 c 0.228,-1.103998 0.911999,-2.597996 2.052,-4.482 1.139997,-1.895993 2.309996,-3.551991 3.51,-4.968 1.211993,-1.427988 2.039992,-2.141987 2.484,-2.142 0.203992,1.3e-5 0.341992,0.162012 0.414,0.486 0.08399,0.312012 0.101991,0.630011 0.054,0.954 -0.108008,0.552011 -0.474008,1.33801 -1.098,2.358 -0.612007,1.008008 -1.422006,2.082007 -2.43,3.222 -1.008004,1.140004 -2.004003,2.046003 -2.988,2.718 -0.276002,0.708002 -0.450002,1.254002 -0.522,1.638 -0.012,0.012 -0.018,0.03 -0.018,0.054 -0.168001,0.828 0.006,1.242 0.522,1.242 0.419998,0 0.923997,-0.276 1.512,-0.828 0.587996,-0.563999 1.145995,-1.241998 1.674,-2.034 l 0.378,0.234 c -0.744005,1.092001 -1.494004,1.944001 -2.25,2.556 -0.756003,0.599999 -1.476002,0.899999 -2.16,0.9 -1.008,-10e-7 -1.386,-0.636 -1.134,-1.908 m 2.538,-2.97 c 1.175996,-1.043995 2.285995,-2.303994 3.33,-3.78 1.055993,-1.487991 1.649992,-2.55599 1.782,-3.204 -0.156008,1.1e-5 -0.534007,0.348011 -1.134,1.044 -0.588006,0.696009 -1.266005,1.608008 -2.034,2.736 -0.768004,1.116006 -1.416003,2.184005 -1.944,3.204"
         style="font-size:18px;fill:#999999;font-family:Dancing Script;-inkscape-font-specification:Dancing Script Bold Italic"
         id="path11862" />
      <path
         d="m 91.246088,23.015599 c 0.096,-0.479999 0.347999,-1.109998 0.756,-1.89 0.407998,-0.791997 0.893998,-1.517996 1.458,-2.178 0.563997,-0.659995 1.055996,-0.989994 1.476,-0.99 0.155996,6e-6 0.275995,0.04801 0.36,0.144 0.084,0.08401 0.107995,0.210005 0.072,0.378 -0.02401,0.156005 -0.240004,0.486005 -0.648,0.99 -0.408004,0.492004 -0.834003,1.056003 -1.278,1.692 -0.432002,0.624002 -0.696002,1.164001 -0.792,1.62 -0.072,0.372 -0.054,0.624 0.054,0.756 0.107998,0.132 0.299998,0.198 0.576,0.198 0.947996,0 2.069995,-0.917999 3.366,-2.754 l 0.216,0.288 c -0.624006,1.056001 -1.320005,1.878001 -2.088,2.466 -0.768003,0.587999 -1.524003,0.881999 -2.268,0.882 -0.504001,-10e-7 -0.864001,-0.150001 -1.08,-0.45 -0.216001,-0.3 -0.276,-0.684 -0.18,-1.152 m 4.248,-7.218 c 0.06,-0.275992 0.263995,-0.515992 0.612,-0.72 0.347994,-0.215991 0.695994,-0.323991 1.044,-0.324 0.515993,9e-6 0.725993,0.222009 0.63,0.666 -0.04801,0.252008 -0.234007,0.498008 -0.558,0.738 -0.324006,0.228007 -0.648006,0.342007 -0.972,0.342 -0.252005,7e-6 -0.456005,-0.05999 -0.612,-0.18 -0.144005,-0.119993 -0.192005,-0.293992 -0.144,-0.522"
         style="font-size:18px;fill:#999999;font-family:Dancing Script;-inkscape-font-specification:Dancing Script Bold Italic"
         id="path11864" />
      <path
         d="m 94.938619,23.825599 c 0,-0.012 0.162,-0.282 0.486,-0.81 0.324,-0.527999 0.647999,-1.121998 0.972,-1.782 0.323999,-0.659997 0.527998,-1.217996 0.612,-1.674 0.323998,-0.287996 0.665998,-0.431995 1.026,-0.432 0.419997,5e-6 0.593997,0.180004 0.522,0.54 -0.06,0.324004 -0.270003,0.858003 -0.63,1.602 1.547996,-1.631996 2.843991,-2.447995 3.888001,-2.448 0.47999,5e-6 0.81599,0.168005 1.008,0.504 0.20399,0.324004 0.26399,0.714004 0.18,1.17 -0.084,0.396003 -0.30001,0.888002 -0.648,1.476 -0.34801,0.576001 -0.54601,0.984001 -0.594,1.224 -0.072,0.348 0.036,0.522 0.324,0.522 0.39599,0 0.87599,-0.27 1.44,-0.81 0.57599,-0.551999 1.12799,-1.199998 1.656,-1.944 l 0.252,0.252 c -1.38001,2.148 -2.67001,3.221999 -3.87,3.222 -0.45601,-10e-7 -0.78601,-0.114001 -0.99,-0.342 -0.20401,-0.228 -0.27001,-0.528 -0.198,-0.9 0.048,-0.239999 0.20999,-0.629999 0.486,-1.17 0.27599,-0.539998 0.43799,-0.941997 0.486,-1.206 0.096,-0.467997 -0.066,-0.701996 -0.486,-0.702 -0.33601,4e-6 -0.72001,0.138003 -1.152001,0.414 -0.432004,0.264003 -0.906003,0.660002 -1.422,1.188 -0.504002,0.528001 -0.894002,0.954001 -1.17,1.278 l -1.116,1.35 c -0.516,-10e-7 -0.87,-0.174001 -1.062,-0.522"
         style="font-size:18px;fill:#999999;font-family:Dancing Script;-inkscape-font-specification:Dancing Script Bold Italic"
         id="path11866" />
      <path
         d="m 102.97843,27.965599 c 0.06,-0.288004 0.204,-0.576004 0.432,-0.864 0.216,-0.276003 0.438,-0.510003 0.666,-0.702 0.228,-0.180003 0.564,-0.390002 1.008,-0.63 0.456,-0.240002 0.798,-0.408002 1.026,-0.504 l 1.116,-0.504 c 0.456,-0.756 0.846,-1.506 1.17,-2.25 -1.212,1.224 -2.244,1.835999 -3.096,1.836 -0.48,-10e-7 -0.828,-0.168001 -1.044,-0.504 -0.216,-0.336 -0.27,-0.779999 -0.162,-1.332 0.24,-1.199998 1.008,-2.279997 2.304,-3.24 1.296,-0.959995 2.502,-1.439994 3.618,-1.44 0.37199,6e-6 0.64199,0.06601 0.81,0.198 0.17999,0.132005 0.25199,0.294005 0.216,0.486 -0.024,0.120005 -0.084,0.228005 -0.18,0.324 -0.084,0.09601 -0.15601,0.150005 -0.216,0.162 -0.16801,-0.215995 -0.402,-0.323995 -0.702,-0.324 -0.012,5e-6 -0.024,5e-6 -0.036,0 -0.888,5e-6 -1.794,0.456005 -2.718,1.368 -0.924,0.900003 -1.464,1.746002 -1.62,2.538 -0.108,0.492001 0.024,0.738 0.396,0.738 0.324,0 0.762,-0.209999 1.314,-0.63 0.564,-0.419999 1.146,-0.959998 1.746,-1.62 0.276,-0.671997 0.528,-1.151996 0.756,-1.44 0.24,-0.299996 0.528,-0.449996 0.864,-0.45 0.15599,4e-6 0.32999,0.024 0.522,0.072 -0.072,0.312004 -0.33601,0.936003 -0.792,1.872 -0.444,0.936002 -0.954,1.908001 -1.53,2.916 0.66,-0.252 1.32,-0.642 1.98,-1.17 0.65999,-0.539999 1.18199,-1.157998 1.566,-1.854 l 0.252,0.324 c -0.40801,0.756002 -1.01401,1.440001 -1.818,2.052 -0.804,0.612 -1.59,1.079999 -2.358,1.404 -1.764,2.879996 -3.264,4.319995 -4.5,4.32 -0.336,-5e-6 -0.6,-0.102005 -0.792,-0.306 -0.204,-0.192005 -0.27,-0.474005 -0.198,-0.846 m 0.846,-0.18 c -0.072,0.335996 0.006,0.503995 0.234,0.504 0.24,-5e-6 0.594,-0.222004 1.062,-0.666 0.48,-0.444004 1.014,-1.116003 1.602,-2.016 -0.852,0.383998 -1.53,0.743997 -2.034,1.08 -0.504,0.347997 -0.792,0.713996 -0.864,1.098"
         style="font-size:18px;fill:#999999;font-family:Dancing Script;-inkscape-font-specification:Dancing Script Bold Italic"
         id="path11868" />
    </g>
  </g>
</svg>
