<svg xmlns:rdf="http://www.w3.org/1999/02/22-rdf-syntax-ns#" xmlns="http://www.w3.org/2000/svg" height="32" width="32" version="1.1" xmlns:cc="http://creativecommons.org/ns#" xmlns:dc="http://purl.org/dc/elements/1.1/">
<metadata>
<rdf:RDF>
<cc:Work rdf:about="">
<dc:format>image/svg+xml</dc:format>
<dc:type rdf:resource="http://purl.org/dc/dcmitype/StillImage"/>
<dc:title/>
</cc:Work>
</rdf:RDF>
</metadata>
<g transform="translate(-274.43425,-495.18112)">
<g stroke-linejoin="round" stroke-dasharray="none" stroke-miterlimit="4" transform="matrix(0.66665146,0,0,0.66667229,96.814864,170.38827)">
<path d="m267,511,0-23.8,23.8,0,23.8,0,0,23.8,0,23.8-23.8,0-23.8,0,0-23.8z" fill-rule="nonzero" stroke="#fefffa" stroke-width="0.41982508" fill="#036"/>
<g stroke="#feff02" stroke-width="2" transform="matrix(1.4209065,0,0,1.3422508,-123.22108,-172.17439)" fill="none">
<path d="m254,494c0,9.02-6.96,16.3-15.5,16.3-8.58,0-15.5-7.32-15.5-16.3,0-9.02,6.96-16.3,15.5-16.3,8.58,0,15.5,7.32,15.5,16.3z" transform="matrix(0.9300325,0,0,0.92254454,69.115457,52.716851)"/>
<path d="m288,503c0.613,0.292,1.4,0.335,2.02,0.0598,0.829-0.338,1.74-0.145,2.6-0.193,1.1-0.00071,2.19-0.006,3.29,0.007,0.616,0.137,1.44,0.446,1.43,1.2,0.0473,0.844,0.021,1.69-0.006,2.54-0.111,0.847-0.739,1.54-1.5,1.88-0.584,0.371-1.27,0.489-1.91,0.725-0.532,0.0774-1.49,0.432-1.74,0.472,0.222-0.115,0.721-0.417,0.788-0.434-0.67,0.358-1.33,0.929-2.14,0.786-0.992-0.048-1.98-0.201-2.94-0.418-0.654-0.0405-1.34-0.079-1.95,0.211-0.376,0.172-0.597,0.0118-0.178-0.176,0.334-0.199,0.611-0.526,1.02-0.569,0.61-0.247,1.26-0.299,1.91-0.237,0.714,0.084,1.4,0.296,2.12,0.355,0.656,0.0518,1.36,0.196,1.98-0.0812-0.222,0.12-0.988,0.568-0.853,0.478,0.651-0.459,1.38-0.769,2.15-0.967,0.7-0.128,1.35-0.402,2.03-0.59-0.199,0.164-0.998,0.588-1.05,0.648,0.809-0.436,1.24-1.39,1.12-2.29-0.0219-0.695,0.0818-1.41-0.0722-2.09-0.281-0.486-0.915-0.666-1.44-0.679-1.65-0.0268-3.31-0.008-4.96-0.004-0.624,0.189-1.24,0.464-1.91,0.343-0.357,0.0333-1.25-0.253-0.545-0.511,0.242-0.155,0.485-0.309,0.725-0.466z"/>
<path d="m288,512c-0.0891,0.61-0.314,1.2-0.259,1.83,0.002,1.27-0.121,2.63,0.495,3.79,0.434,0.839,1.28,1.36,2.08,1.82,0.514,0.306,1.07,0.571,1.69,0.55,0.587-0.008,1.17-0.0124,1.76,0.00087,0.525-0.0891,1.16-0.113,1.33-0.625,0.297-0.758,0.148-1.59,0.186-2.39,0.0001-1.57-0.00082-3.14,0.00008-4.71,0.458-0.239,0.13,0.76,0.229,1.02-0.0144,1.8,0.0397,3.59-0.0302,5.39-0.0137,0.621-0.455,1.12-1.05,1.27-0.659,0.304-1.39,0.134-2.08,0.19-0.61,0.0117-1.25,0.004-1.79-0.321-0.847-0.426-1.68-0.945-2.3-1.68-0.683-0.976-0.777-2.21-0.745-3.37,0.0288-0.716-0.0722-1.45,0.169-2.14,0.0947-0.25-0.0382-0.589,0.326-0.636z"/>
<path d="m289,514c0.829-0.009,1.66,0.0303,2.49-0.0231,0.392-0.0827,0.787-0.168,1.19-0.163,0.417-0.0495,0.836-0.103,1.26-0.0776,0.129-0.003,0.658-0.116,0.332,0.0676-0.326,0.121-0.684,0.0625-1.03,0.0885-0.421,0.0231-0.839,0.0877-1.26,0.11-0.369,0.0326-0.72,0.173-1.09,0.155-0.7-0.006-1.4-0.005-2.1-0.00055,0.0714-0.0522,0.144-0.104,0.215-0.156z"/>
<path d="m287,506c2.14,0.0881,4.31-0.371,6.41,0.189,1.23,0.296,2.51,0.316,3.74,0.551,0.947,0.433,1.1,1.62,1.13,2.55,0.019,1.21,0.295,2.41,0.36,3.62,0.202,1.26,0.474,2.5,0.861,3.71,0.214,1.12,0.59,2.23,0.509,3.39-0.0951,0.97,0.0735,2.15,0.0962,2.98-0.579-0.445-0.221-1.53-0.338-2.24,0.04-1.09,0.005-2.2-0.339-3.24-0.206-1.24-0.71-2.41-0.867-3.66-0.243-1.29-0.319-2.61-0.492-3.91-0.038-1,0.007-2.19-0.859-2.89-0.605-0.44-1.4-0.237-2.09-0.396-1.54-0.153-3.02-0.676-4.58-0.597-1.24,0.005-2.48,0.187-3.72,0.0724l0.0873-0.0634,0.0867-0.0631v0.00002z"/>
<path d="m291,501c-0.004,2.73-0.0117,5.47,0.005,8.2,0.105,0.603,0.362,1.16,0.596,1.72,0.289,0.19-0.0872,0.71-0.17,0.265-0.31-0.785-0.736-1.57-0.672-2.44,0.0135-1.96,0.002-3.92,0.007-5.88-0.00045-0.584-0.002-1.17-0.004-1.75,0.0791-0.04,0.158-0.0813,0.237-0.12z"/>
<path d="m291,497c0.37,0.162,0.591,0.546,0.64,0.935,0.0889,0.508,0.0286,1.03,0.0502,1.54-0.0394,0.138-0.314,0.232-0.236-0.003-0.0164-0.606-0.675-1.24-0.909-1.82,0.965,0.105,0.458-0.409,0.232-0.511,0.0743-0.0476,0.149-0.0952,0.223-0.143z"/>
<path d="m280,524c1.47-0.112,1.88-1.77,2.38-2.88,0.524-1.59,0.496-3.28,0.714-4.92,0.0709-2.51,0.0472-5.03,0.432-7.51,0.195-2.34,0.0959-4.69,0.154-7.03,0.0197-1.04,0.258-2.71,1.71-2.37,1.45,0.517,2.98,0.318,4.48,0.364,2.57,0.0522,5.15,0.0144,7.69-0.444,0.614-0.0798,2.29-0.382,0.826-0.006-1.59,0.251-3.2,0.498-4.81,0.589-2.19,0.0423-4.38-0.006-6.57,0.007-1.16-0.117-3.02-0.982-3.06,0.933-0.129,3.29,0.0813,6.62-0.453,9.89-0.202,2.78-0.0163,5.59-0.475,8.35-0.107,1.37-0.592,2.67-1.23,3.87-0.185,0.611-1.71,1.44-1.79,1.16z"/>
</g>
</g>
</g>
</svg>
