<svg xmlns:rdf="http://www.w3.org/1999/02/22-rdf-syntax-ns#" xmlns="http://www.w3.org/2000/svg" xml:space="preserve" overflow="visible" height="29.5" viewBox="0 0 81.629058 29.495012" width="81.6" version="1.1" enable-background="new 0 0 564.502 108" xmlns:cc="http://creativecommons.org/ns#" xmlns:dc="http://purl.org/dc/elements/1.1/"><metadata><rdf:RDF><cc:Work rdf:about=""><dc:format>image/svg+xml</dc:format><dc:type rdf:resource="http://purl.org/dc/dcmitype/StillImage"/><dc:title/></cc:Work></rdf:RDF></metadata>
<g fill="#ff2b06" transform="matrix(0.29629531,0,0,0.29629531,-1.2926871e-6,0)">
<path d="M27.9,25.5h-27.9v-25.5h86.4v25.5h-27.9v74h-30.6v-74z"/>
<path d="m91.2,0h83.9v25.5h-53.2v12.4h53.2v23.7h-53.2v12.4h53.2v25.5h-83.8v-99.5z"/>
<path d="m180,0h50.3c33.2,0,44.9,24.5,44.9,49.6,0,30.5-16.2,49.9-50.9,49.9h-43.7v-99.5zm30.7,74h12c19.1,0,21.9-15.5,21.9-24.8,0-6.26-1.96-23.7-24.1-23.7h-9.76v48.5z"/>
</g></svg>
